G04 #@! TF.GenerationSoftware,KiCad,Pcbnew,(5.0.0)*
G04 #@! TF.CreationDate,2019-01-08T13:39:35+09:00*
G04 #@! TF.ProjectId,novem,6E6F76656D2E6B696361645F70636200,rev?*
G04 #@! TF.SameCoordinates,PX3473bc0PY17d7840*
G04 #@! TF.FileFunction,Copper,L2,Bot,Signal*
G04 #@! TF.FilePolarity,Positive*
%FSLAX46Y46*%
G04 Gerber Fmt 4.6, Leading zero omitted, Abs format (unit mm)*
G04 Created by KiCad (PCBNEW (5.0.0)) date 01/08/19 13:39:35*
%MOMM*%
%LPD*%
G01*
G04 APERTURE LIST*
G04 #@! TA.AperFunction,ComponentPad*
%ADD10O,1.700000X1.700000*%
G04 #@! TD*
G04 #@! TA.AperFunction,ComponentPad*
%ADD11R,1.700000X1.700000*%
G04 #@! TD*
G04 #@! TA.AperFunction,ComponentPad*
%ADD12C,1.800000*%
G04 #@! TD*
G04 #@! TA.AperFunction,Conductor*
%ADD13C,0.100000*%
G04 #@! TD*
G04 #@! TA.AperFunction,ComponentPad*
%ADD14C,1.524000*%
G04 #@! TD*
G04 #@! TA.AperFunction,ComponentPad*
%ADD15R,0.850000X0.850000*%
G04 #@! TD*
G04 #@! TA.AperFunction,ComponentPad*
%ADD16O,0.850000X0.850000*%
G04 #@! TD*
G04 #@! TA.AperFunction,ViaPad*
%ADD17C,0.800000*%
G04 #@! TD*
G04 #@! TA.AperFunction,Conductor*
%ADD18C,0.250000*%
G04 #@! TD*
G04 #@! TA.AperFunction,Conductor*
%ADD19C,0.400000*%
G04 #@! TD*
G04 #@! TA.AperFunction,Conductor*
%ADD20C,0.600000*%
G04 #@! TD*
G04 #@! TA.AperFunction,Conductor*
%ADD21C,0.500000*%
G04 #@! TD*
G04 #@! TA.AperFunction,Conductor*
%ADD22C,0.254000*%
G04 #@! TD*
G04 APERTURE END LIST*
D10*
G04 #@! TO.P,CN1,2*
G04 #@! TO.N,GND*
X54140000Y-96800000D03*
D11*
G04 #@! TO.P,CN1,1*
G04 #@! TO.N,fun_power*
X51600000Y-96800000D03*
G04 #@! TD*
D12*
G04 #@! TO.P,D1,2*
G04 #@! TO.N,Net-(D1-Pad2)*
X21401019Y-17814268D03*
D13*
G04 #@! TD*
G04 #@! TO.N,Net-(D1-Pad2)*
G04 #@! TO.C,D1*
G36*
X21290088Y-16546319D02*
X22668968Y-17703337D01*
X21511950Y-19082217D01*
X20133070Y-17925199D01*
X21290088Y-16546319D01*
X21290088Y-16546319D01*
G37*
D12*
G04 #@! TO.P,D1,1*
G04 #@! TO.N,Net-(D1-Pad1)*
X19768339Y-19760021D03*
G04 #@! TD*
G04 #@! TO.P,D2,1*
G04 #@! TO.N,Net-(D2-Pad1)*
X6166910Y-26709236D03*
G04 #@! TO.P,D2,2*
G04 #@! TO.N,Net-(D2-Pad2)*
X3636576Y-26930612D03*
D13*
G04 #@! TD*
G04 #@! TO.N,Net-(D2-Pad2)*
G04 #@! TO.C,D2*
G36*
X2818441Y-27905627D02*
X2661561Y-26112477D01*
X4454711Y-25955597D01*
X4611591Y-27748747D01*
X2818441Y-27905627D01*
X2818441Y-27905627D01*
G37*
D12*
G04 #@! TO.P,D4,2*
G04 #@! TO.N,+3V3*
X49231661Y-19960021D03*
D13*
G04 #@! TD*
G04 #@! TO.N,+3V3*
G04 #@! TO.C,D4*
G36*
X50499610Y-20070952D02*
X49120730Y-21227970D01*
X47963712Y-19849090D01*
X49342592Y-18692072D01*
X50499610Y-20070952D01*
X50499610Y-20070952D01*
G37*
D12*
G04 #@! TO.P,D4,1*
G04 #@! TO.N,Net-(D1-Pad2)*
X47598981Y-18014268D03*
G04 #@! TD*
G04 #@! TO.P,D5,1*
G04 #@! TO.N,Net-(D2-Pad2)*
X65463424Y-27030612D03*
G04 #@! TO.P,D5,2*
G04 #@! TO.N,+3V3*
X62933090Y-26809236D03*
D13*
G04 #@! TD*
G04 #@! TO.N,+3V3*
G04 #@! TO.C,D5*
G36*
X61958075Y-27627371D02*
X62114955Y-25834221D01*
X63908105Y-25991101D01*
X63751225Y-27784251D01*
X61958075Y-27627371D01*
X61958075Y-27627371D01*
G37*
D12*
G04 #@! TO.P,Q4,2*
G04 #@! TO.N,sensor0*
X63125135Y-24291424D03*
G04 #@! TO.P,Q4,1*
G04 #@! TO.N,VDD*
X65655470Y-24512800D03*
G04 #@! TD*
G04 #@! TO.P,Q5,1*
G04 #@! TO.N,VDD*
X19579708Y-16157467D03*
G04 #@! TO.P,Q5,2*
G04 #@! TO.N,sensor2*
X17947028Y-18103220D03*
G04 #@! TD*
G04 #@! TO.P,Q6,2*
G04 #@! TO.N,sensor1*
X51036823Y-18248951D03*
G04 #@! TO.P,Q6,1*
G04 #@! TO.N,VDD*
X49404143Y-16303198D03*
G04 #@! TD*
G04 #@! TO.P,Q7,1*
G04 #@! TO.N,VDD*
X3423613Y-24473713D03*
G04 #@! TO.P,Q7,2*
G04 #@! TO.N,sensor3*
X5953948Y-24252338D03*
G04 #@! TD*
D14*
G04 #@! TO.P,SW1,*
G04 #@! TO.N,*
X9012000Y-96924000D03*
X12060000Y-96924000D03*
G04 #@! TD*
D10*
G04 #@! TO.P,U1,6*
G04 #@! TO.N,enc_LB*
X30080000Y-94460000D03*
G04 #@! TO.P,U1,5*
G04 #@! TO.N,enc_LA*
X30080000Y-97000000D03*
G04 #@! TO.P,U1,4*
G04 #@! TO.N,VCC*
X27540000Y-94460000D03*
G04 #@! TO.P,U1,3*
G04 #@! TO.N,GND*
X27540000Y-97000000D03*
G04 #@! TO.P,U1,2*
G04 #@! TO.N,MOTOR_L2*
X25000000Y-94460000D03*
D11*
G04 #@! TO.P,U1,1*
G04 #@! TO.N,MOTOR_L1*
X25000000Y-97000000D03*
G04 #@! TD*
G04 #@! TO.P,U2,1*
G04 #@! TO.N,MOTOR_R1*
X39000000Y-97000000D03*
D10*
G04 #@! TO.P,U2,2*
G04 #@! TO.N,MOTOR_R2*
X39000000Y-94460000D03*
G04 #@! TO.P,U2,3*
G04 #@! TO.N,GND*
X41540000Y-97000000D03*
G04 #@! TO.P,U2,4*
G04 #@! TO.N,VCC*
X41540000Y-94460000D03*
G04 #@! TO.P,U2,5*
G04 #@! TO.N,enc_RA*
X44080000Y-97000000D03*
G04 #@! TO.P,U2,6*
G04 #@! TO.N,enc_RB*
X44080000Y-94460000D03*
G04 #@! TD*
D15*
G04 #@! TO.P,U8,1*
G04 #@! TO.N,VDD*
X3900000Y-95300000D03*
D16*
G04 #@! TO.P,U8,2*
G04 #@! TO.N,usart3_rx*
X3900000Y-96300000D03*
G04 #@! TO.P,U8,3*
G04 #@! TO.N,usart3_tx*
X2900000Y-95300000D03*
G04 #@! TO.P,U8,4*
G04 #@! TO.N,GND*
X2900000Y-96300000D03*
G04 #@! TO.P,U8,5*
G04 #@! TO.N,Net-(U8-Pad5)*
X1900000Y-95300000D03*
G04 #@! TO.P,U8,6*
G04 #@! TO.N,boot*
X1900000Y-96300000D03*
G04 #@! TD*
D10*
G04 #@! TO.P,J1,2*
G04 #@! TO.N,Net-(J1-Pad2)*
X66500000Y-85460000D03*
D11*
G04 #@! TO.P,J1,1*
G04 #@! TO.N,fun_power*
X66500000Y-88000000D03*
G04 #@! TD*
D17*
G04 #@! TO.N,VDD*
X10400000Y-87600000D03*
X37050000Y-83000000D03*
X26550000Y-83100000D03*
X38100000Y-83000000D03*
X24950000Y-79550000D03*
X36350000Y-76100000D03*
X40250000Y-83000000D03*
X41050000Y-83800000D03*
X48150000Y-45050000D03*
X22150000Y-68250000D03*
X48140000Y-43960000D03*
X48140000Y-43960000D03*
X28820000Y-55900000D03*
X30150000Y-49350000D03*
G04 #@! TO.N,GND*
X62700000Y-86800000D03*
X4600000Y-87725000D03*
X5650000Y-99100000D03*
X18550000Y-85300000D03*
X23300000Y-84750000D03*
X42400000Y-87450000D03*
X41050000Y-87450000D03*
X24000000Y-76050000D03*
X15350000Y-86450000D03*
X9600000Y-91500000D03*
X2400000Y-91550000D03*
X14450000Y-94300000D03*
X20300000Y-90650000D03*
X42400000Y-66850000D03*
X41800000Y-77500000D03*
X58520000Y-20500000D03*
X42525000Y-12100000D03*
X28680000Y-13360000D03*
X18200000Y-10030000D03*
X11850000Y-18470000D03*
X15950000Y-77630000D03*
X19280000Y-27380000D03*
X23486000Y-23768000D03*
X30344000Y-20212000D03*
X25264000Y-59074000D03*
X23486000Y-59074000D03*
X48378000Y-54756000D03*
X50450000Y-54756000D03*
X13800000Y-39000000D03*
X16650000Y-39100000D03*
X12050000Y-33050000D03*
X12850000Y-28150000D03*
X12800000Y-30450000D03*
X2400000Y-29100000D03*
X7650000Y-29100000D03*
X11500000Y-25500000D03*
X7750000Y-25400000D03*
X7800000Y-22900000D03*
X4600000Y-15400000D03*
X9530000Y-14300000D03*
X13950000Y-10000000D03*
X13650000Y-15650000D03*
X15750000Y-18100000D03*
X6400000Y-19200000D03*
X16000000Y-24450000D03*
X21200000Y-37550000D03*
X20650000Y-32050000D03*
X19650000Y-22100000D03*
X22100000Y-20050000D03*
X21708000Y-23768000D03*
X21650000Y-27500000D03*
X28050000Y-20212000D03*
X27950000Y-24100000D03*
X25550000Y-26650000D03*
X24200000Y-30500000D03*
X24200000Y-34950000D03*
X25200000Y-37750000D03*
X23600000Y-37700000D03*
X24600000Y-43900000D03*
X25300000Y-54650000D03*
X27050000Y-55100000D03*
X27100000Y-52450000D03*
X29400000Y-47800000D03*
X27300000Y-47750000D03*
X31100000Y-43400000D03*
X31000000Y-46650000D03*
X32600000Y-41850000D03*
X36900000Y-41600000D03*
X37000000Y-44350000D03*
X33350000Y-44300000D03*
X33200000Y-46800000D03*
X36950000Y-46850000D03*
X40550000Y-44300000D03*
X40400000Y-46250000D03*
X41450000Y-40250000D03*
X39000000Y-42600000D03*
X43800000Y-41350000D03*
X46350000Y-39500000D03*
X47050000Y-35800000D03*
X46300000Y-28850000D03*
X49900000Y-28450000D03*
X46400000Y-31250000D03*
X47050000Y-26050000D03*
X46950000Y-20250000D03*
X44050000Y-27500000D03*
X42050000Y-27700000D03*
X41850000Y-23050000D03*
X41950000Y-20050000D03*
X35900000Y-20050000D03*
X35900000Y-23150000D03*
X30200000Y-23100000D03*
X50050000Y-21900000D03*
X49500000Y-24150000D03*
X52850000Y-21650000D03*
X52800000Y-23800000D03*
X58500000Y-25250000D03*
X61450000Y-25250000D03*
X57750000Y-31850000D03*
X53500000Y-31800000D03*
X51850000Y-35050000D03*
X55250000Y-39100000D03*
X55350000Y-35150000D03*
X51900000Y-39050000D03*
X50750000Y-41500000D03*
X50800000Y-46250000D03*
X50450000Y-59350000D03*
X1150000Y-84150000D03*
X9200000Y-84200000D03*
X22300000Y-98800000D03*
X34550000Y-98750000D03*
X46800000Y-98800000D03*
X60150000Y-98800000D03*
X67900000Y-98750000D03*
X37450000Y-17750000D03*
X42500000Y-17750000D03*
X30900000Y-17600000D03*
X27850000Y-16250000D03*
X31550000Y-13350000D03*
X34550000Y-12100000D03*
X36900000Y-12100000D03*
X40900000Y-5500000D03*
X41050000Y-8050000D03*
X55150000Y-9730000D03*
X50950000Y-13650000D03*
X58450000Y-13300000D03*
X55250000Y-16000000D03*
X52950000Y-17850000D03*
X56300000Y-18650000D03*
X62200000Y-21900000D03*
X62700000Y-18850000D03*
X64450000Y-15250000D03*
X66500000Y-22600000D03*
X60950000Y-14800000D03*
X45300000Y-72750000D03*
X45250000Y-75650000D03*
X42400000Y-74000000D03*
X38200000Y-75650000D03*
X27100000Y-58550000D03*
X36250000Y-64150000D03*
X37100000Y-59900000D03*
X40400000Y-57250000D03*
X40250000Y-60750000D03*
X42650000Y-58900000D03*
X42700000Y-61900000D03*
X37250000Y-62350000D03*
X34950000Y-48400000D03*
X37150000Y-49450000D03*
X27350000Y-39750000D03*
X27250000Y-43650000D03*
X24800000Y-46750000D03*
X23450000Y-54500000D03*
X56750000Y-92950000D03*
X62500000Y-90850000D03*
X65250000Y-90800000D03*
X67950000Y-92400000D03*
X67850000Y-89950000D03*
X67900000Y-84050000D03*
X55450000Y-81300000D03*
X55350000Y-75650000D03*
X50850000Y-75700000D03*
X50450000Y-68800000D03*
X50450000Y-64100000D03*
X5300000Y-84050000D03*
X29250000Y-5650000D03*
X29150000Y-9950000D03*
X26400000Y-7250000D03*
X26550000Y-9000000D03*
X20900000Y-8450000D03*
X20900000Y-13950000D03*
X16320000Y-8620000D03*
X8950000Y-17150000D03*
X1850000Y-93800000D03*
X34200000Y-57300000D03*
X37100000Y-56600000D03*
X35600000Y-61200000D03*
X41800000Y-64400000D03*
X60700000Y-28400000D03*
X55500000Y-28400000D03*
X58100000Y-28400000D03*
X50100000Y-94350000D03*
X57150000Y-95650000D03*
X55350000Y-98800000D03*
X64200000Y-98800000D03*
X61800000Y-92600000D03*
X58900000Y-92800000D03*
X64300000Y-87050000D03*
X56500000Y-86500000D03*
X43700000Y-82300000D03*
X27300000Y-90450000D03*
X32750000Y-90400000D03*
X41900000Y-90500000D03*
X48050000Y-12100000D03*
X48000000Y-14350000D03*
X51850000Y-8300000D03*
X20850000Y-10800000D03*
X40950000Y-80400000D03*
X14100000Y-90900000D03*
X12500000Y-92900000D03*
X11700000Y-88250000D03*
X5600000Y-91500000D03*
X35150000Y-85000000D03*
X42600000Y-85750000D03*
G04 #@! TO.N,VBAT*
X54700000Y-88150000D03*
X54700000Y-87050000D03*
X47150000Y-88350000D03*
X48250000Y-88300000D03*
G04 #@! TO.N,VCC*
X48400000Y-84800000D03*
X48450000Y-85850000D03*
X48450000Y-96150000D03*
X48450000Y-95000000D03*
G04 #@! TO.N,batt_analog*
X14150000Y-82550000D03*
X17900000Y-87050000D03*
G04 #@! TO.N,Net-(C14-Pad1)*
X15050000Y-87950000D03*
X29520000Y-67250000D03*
G04 #@! TO.N,led1*
X11580000Y-31560000D03*
X19390000Y-69310000D03*
G04 #@! TO.N,Net-(D9-Pad1)*
X42050000Y-2650000D03*
X47600000Y-5550000D03*
G04 #@! TO.N,Net-(D9-Pad4)*
X44400000Y-2950000D03*
X49700000Y-5550000D03*
G04 #@! TO.N,Net-(D9-Pad3)*
X29850000Y-2850000D03*
X27300000Y-5850000D03*
G04 #@! TO.N,Net-(Q1-Pad1)*
X21400000Y-91500000D03*
X9600000Y-95250000D03*
G04 #@! TO.N,sensor0*
X31900000Y-58000000D03*
G04 #@! TO.N,sensor2*
X21290000Y-62380000D03*
G04 #@! TO.N,sensor1*
X30900000Y-57500000D03*
G04 #@! TO.N,sensor3*
X21410000Y-64300000D03*
G04 #@! TO.N,fun*
X57400000Y-82600000D03*
X48100000Y-71800000D03*
G04 #@! TO.N,buzzer_pwm*
X24440000Y-20680000D03*
X22220000Y-70350000D03*
G04 #@! TO.N,push1*
X23360000Y-70460000D03*
X43550000Y-21800000D03*
G04 #@! TO.N,fledred*
X41660000Y-68990000D03*
X42750000Y-55810000D03*
G04 #@! TO.N,boot*
X12850000Y-83550000D03*
X28410000Y-69250000D03*
G04 #@! TO.N,Net-(R24-Pad1)*
X20500000Y-72900000D03*
X17750000Y-77150000D03*
G04 #@! TO.N,MOTOR_L1*
X22700000Y-88400000D03*
X23650000Y-88400000D03*
G04 #@! TO.N,MOTOR_L2*
X26150000Y-88350000D03*
X25050000Y-88350000D03*
G04 #@! TO.N,enc_LA*
X28750000Y-81700000D03*
G04 #@! TO.N,enc_LB*
X29100000Y-83250000D03*
G04 #@! TO.N,enc_RB*
X31400000Y-82750000D03*
G04 #@! TO.N,enc_RA*
X32100000Y-81900000D03*
G04 #@! TO.N,MOTOR_R2*
X36150000Y-88400000D03*
X35200000Y-88400000D03*
G04 #@! TO.N,SD0*
X39000000Y-73350000D03*
X30300000Y-50850000D03*
G04 #@! TO.N,SCL*
X40000000Y-74250000D03*
X39000000Y-53200000D03*
G04 #@! TO.N,SDI*
X41000000Y-72800000D03*
X39950000Y-52000000D03*
G04 #@! TO.N,fledgreen*
X39310000Y-47390000D03*
X42990000Y-67960000D03*
X45350000Y-21300000D03*
X41700000Y-52900000D03*
G04 #@! TO.N,led2*
X47616000Y-57550000D03*
X49648000Y-43326000D03*
G04 #@! TO.N,fledblue*
X24650000Y-17640000D03*
X29060000Y-17580000D03*
X35880000Y-62590000D03*
X32212000Y-48152000D03*
G04 #@! TO.N,MOTOR_R1*
X32900000Y-88350000D03*
X33950000Y-88350000D03*
G04 #@! TO.N,PWM_L*
X26750000Y-74650000D03*
X26400000Y-79700000D03*
X25500000Y-85650000D03*
X23400000Y-80800000D03*
G04 #@! TO.N,PWM_R*
X39400000Y-85750000D03*
X26750000Y-71850000D03*
G04 #@! TO.N,sensor_paluse_front*
X18914000Y-40532000D03*
X19422000Y-64408000D03*
G04 #@! TO.N,fun_power*
X57250000Y-94400000D03*
X56150000Y-94400000D03*
G04 #@! TD*
D18*
G04 #@! TO.N,VDD*
X3900000Y-95300000D02*
X3900000Y-94000000D01*
X3900000Y-94250000D02*
X4150000Y-94000000D01*
X3900000Y-94350000D02*
X3900000Y-94250000D01*
X3900000Y-94000000D02*
X4150000Y-94000000D01*
X3900000Y-94350000D02*
X3900000Y-95300000D01*
D19*
X3900000Y-94000000D02*
X12850000Y-94000000D01*
X12850000Y-94000000D02*
X20100000Y-86750000D01*
X26200000Y-86750000D02*
X24950000Y-86750000D01*
X27300000Y-85650000D02*
X26200000Y-86750000D01*
X24950000Y-86750000D02*
X20100000Y-86750000D01*
X26600000Y-83150000D02*
X26550000Y-83100000D01*
X27300000Y-83150000D02*
X26600000Y-83150000D01*
X27300000Y-83150000D02*
X27300000Y-85650000D01*
X27950000Y-80700000D02*
X27300000Y-81350000D01*
X27300000Y-81350000D02*
X27300000Y-83150000D01*
X27950000Y-80700000D02*
X25700000Y-80700000D01*
X35250000Y-83000000D02*
X32950000Y-80700000D01*
X37050000Y-83000000D02*
X35250000Y-83000000D01*
X32950000Y-80700000D02*
X27950000Y-80700000D01*
X37050000Y-83000000D02*
X38100000Y-83000000D01*
X24950000Y-79950000D02*
X25700000Y-80700000D01*
X24950000Y-79550000D02*
X24950000Y-79950000D01*
D18*
X10400000Y-87600000D02*
X10400000Y-89150000D01*
X10400000Y-89150000D02*
X9650000Y-89900000D01*
X9650000Y-89900000D02*
X5550000Y-89900000D01*
X3900000Y-91550000D02*
X3900000Y-95300000D01*
X5550000Y-89900000D02*
X3900000Y-91550000D01*
X36350000Y-76100000D02*
X36350000Y-77350000D01*
X36350000Y-77350000D02*
X40250000Y-81250000D01*
X40250000Y-81250000D02*
X40250000Y-83000000D01*
D20*
X40250000Y-83000000D02*
X41050000Y-83800000D01*
D21*
X41050000Y-83800000D02*
X41050000Y-82030000D01*
X41050000Y-82030000D02*
X46340000Y-76740000D01*
X46340000Y-46860000D02*
X48150000Y-45050000D01*
X46340000Y-76740000D02*
X46340000Y-46860000D01*
D18*
X19530000Y-75150000D02*
X19530000Y-72520000D01*
X10400000Y-87600000D02*
X10400000Y-83210000D01*
X10400000Y-83210000D02*
X14510000Y-79100000D01*
X14510000Y-79100000D02*
X14510000Y-77440000D01*
X14510000Y-77440000D02*
X15770000Y-76180000D01*
X15770000Y-76180000D02*
X18500000Y-76180000D01*
X18500000Y-76180000D02*
X19530000Y-75150000D01*
X19690000Y-72360000D02*
X19700000Y-72360000D01*
X19530000Y-72520000D02*
X19690000Y-72360000D01*
X21310000Y-70750000D02*
X21310000Y-69090000D01*
X19700000Y-72360000D02*
X21310000Y-70750000D01*
X21310000Y-69090000D02*
X22150000Y-68250000D01*
D21*
X48150000Y-43970000D02*
X48140000Y-43960000D01*
X48150000Y-45050000D02*
X48150000Y-43970000D01*
D18*
X28820000Y-55900000D02*
X28946000Y-55900000D01*
X28946000Y-55900000D02*
X31360000Y-53486000D01*
X31360000Y-53486000D02*
X31360000Y-50560000D01*
X31360000Y-50560000D02*
X30150000Y-49350000D01*
D20*
G04 #@! TO.N,GND*
X54140000Y-96800000D02*
X54140000Y-93410000D01*
X60750000Y-86800000D02*
X62700000Y-86800000D01*
X54140000Y-93410000D02*
X60750000Y-86800000D01*
D18*
X5650000Y-99100000D02*
X2150000Y-99100000D01*
X2150000Y-99100000D02*
X650000Y-97600000D01*
X650000Y-87100000D02*
X1550000Y-86200000D01*
X1550000Y-86200000D02*
X3750000Y-86200000D01*
X4600000Y-87050000D02*
X4600000Y-87725000D01*
X3750000Y-86200000D02*
X4600000Y-87050000D01*
X18550000Y-85300000D02*
X22750000Y-85300000D01*
X22750000Y-85300000D02*
X23300000Y-84750000D01*
D19*
X42400000Y-87450000D02*
X41050000Y-87450000D01*
X47000000Y-92050000D02*
X42400000Y-87450000D01*
X47000000Y-96950000D02*
X47000000Y-92050000D01*
X48800000Y-98750000D02*
X47000000Y-96950000D01*
X53600000Y-98750000D02*
X48800000Y-98750000D01*
X54140000Y-98210000D02*
X53600000Y-98750000D01*
D18*
X16650000Y-78500000D02*
X15950000Y-77800000D01*
X21550000Y-78500000D02*
X21050000Y-78500000D01*
X24000000Y-76050000D02*
X21550000Y-78500000D01*
X21050000Y-78500000D02*
X16650000Y-78500000D01*
X15350000Y-86450000D02*
X15650000Y-86450000D01*
X15650000Y-86450000D02*
X16450000Y-87250000D01*
X16450000Y-88050000D02*
X16450000Y-88550000D01*
X16450000Y-87250000D02*
X16450000Y-88050000D01*
X16450000Y-88550000D02*
X14100000Y-90900000D01*
X13500000Y-91500000D02*
X9600000Y-91500000D01*
X2400000Y-91550000D02*
X850000Y-91550000D01*
X850000Y-91550000D02*
X650000Y-91550000D01*
X650000Y-97600000D02*
X650000Y-91550000D01*
X650000Y-91550000D02*
X650000Y-87100000D01*
X14450000Y-94300000D02*
X18100000Y-90650000D01*
X18100000Y-90650000D02*
X20300000Y-90650000D01*
D20*
X58520000Y-20500000D02*
X59720000Y-19300000D01*
X59720000Y-19300000D02*
X59720000Y-13540000D01*
X59720000Y-13540000D02*
X55910000Y-9730000D01*
X55910000Y-9730000D02*
X55150000Y-9730000D01*
X53340000Y-9730000D02*
X50970000Y-12100000D01*
X50970000Y-12100000D02*
X48050000Y-12100000D01*
D18*
X18200000Y-10030000D02*
X17730000Y-10030000D01*
D21*
X25350000Y-10030000D02*
X17730000Y-10030000D01*
X17730000Y-10030000D02*
X16320000Y-8620000D01*
X16320000Y-8620000D02*
X12490000Y-8620000D01*
X12490000Y-8620000D02*
X9530000Y-11580000D01*
X9530000Y-16150000D02*
X11850000Y-18470000D01*
X9530000Y-11580000D02*
X9530000Y-14300000D01*
X27440000Y-12120000D02*
X25350000Y-10030000D01*
X28680000Y-13360000D02*
X27440000Y-12120000D01*
X27460000Y-12100000D02*
X27440000Y-12120000D01*
X42525000Y-12100000D02*
X36900000Y-12100000D01*
X42400000Y-66850000D02*
X40510000Y-66850000D01*
X40510000Y-66850000D02*
X40010000Y-67350000D01*
X40010000Y-70010000D02*
X42400000Y-72400000D01*
X40010000Y-67350000D02*
X40010000Y-70010000D01*
X42400000Y-76900000D02*
X41800000Y-77500000D01*
X42400000Y-72400000D02*
X42400000Y-74000000D01*
D18*
X15950000Y-77800000D02*
X15950000Y-77630000D01*
X19280000Y-27380000D02*
X18700000Y-27960000D01*
X18700000Y-27960000D02*
X18700000Y-30230000D01*
X23486000Y-23768000D02*
X23740000Y-23768000D01*
X23740000Y-23768000D02*
X27296000Y-20212000D01*
X27296000Y-20212000D02*
X28050000Y-20212000D01*
X25264000Y-59074000D02*
X23486000Y-59074000D01*
D19*
X54140000Y-96800000D02*
X54140000Y-98210000D01*
D21*
X9530000Y-14300000D02*
X9530000Y-16150000D01*
D18*
X28050000Y-20212000D02*
X30344000Y-20212000D01*
D21*
X34550000Y-12100000D02*
X27460000Y-12100000D01*
X36900000Y-12100000D02*
X34550000Y-12100000D01*
D20*
X55150000Y-9730000D02*
X53340000Y-9730000D01*
X48378000Y-54756000D02*
X50450000Y-54756000D01*
D21*
X42400000Y-74000000D02*
X42400000Y-76900000D01*
X16320000Y-8620000D02*
X16320000Y-8620000D01*
D20*
X48050000Y-12100000D02*
X42525000Y-12100000D01*
D18*
X14100000Y-90900000D02*
X13500000Y-91500000D01*
D19*
G04 #@! TO.N,VBAT*
X54700000Y-87050000D02*
X54700000Y-88150000D01*
X54550000Y-88300000D02*
X54700000Y-88150000D01*
X47200000Y-88300000D02*
X47150000Y-88350000D01*
X49600000Y-88300000D02*
X47200000Y-88300000D01*
X49600000Y-88300000D02*
X54550000Y-88300000D01*
X48250000Y-88300000D02*
X49600000Y-88300000D01*
G04 #@! TO.N,VCC*
X48450000Y-95000000D02*
X48450000Y-96150000D01*
X48450000Y-85850000D02*
X45250000Y-85850000D01*
X45250000Y-85850000D02*
X44450000Y-86650000D01*
X44450000Y-86650000D02*
X44450000Y-87850000D01*
X48450000Y-91850000D02*
X48450000Y-95000000D01*
X44450000Y-87850000D02*
X48450000Y-91850000D01*
D18*
G04 #@! TO.N,batt_analog*
X17900000Y-86300000D02*
X14150000Y-82550000D01*
X17900000Y-87050000D02*
X17900000Y-86300000D01*
G04 #@! TO.N,Net-(C14-Pad1)*
X25000000Y-70190000D02*
X27940000Y-67250000D01*
X25000000Y-76600000D02*
X25000000Y-70190000D01*
X13950000Y-87950000D02*
X11750000Y-85750000D01*
X15050000Y-87950000D02*
X13950000Y-87950000D01*
X11750000Y-85750000D02*
X11750000Y-82700000D01*
X11750000Y-82700000D02*
X15100000Y-79350000D01*
X15100000Y-79350000D02*
X22250000Y-79350000D01*
X27940000Y-67250000D02*
X29520000Y-67250000D01*
X22250000Y-79350000D02*
X25000000Y-76600000D01*
G04 #@! TO.N,led1*
X14290000Y-34270000D02*
X11580000Y-31560000D01*
X14290000Y-35670000D02*
X14290000Y-34270000D01*
X18130000Y-39510000D02*
X14290000Y-35670000D01*
X18130000Y-68050000D02*
X18130000Y-67630000D01*
X19390000Y-69310000D02*
X18130000Y-68050000D01*
X18130000Y-39510000D02*
X18130000Y-67630000D01*
G04 #@! TO.N,Net-(D9-Pad1)*
X44050000Y-4650000D02*
X42050000Y-2650000D01*
X44050000Y-4650000D02*
X46700000Y-4650000D01*
X46700000Y-4650000D02*
X47600000Y-5550000D01*
G04 #@! TO.N,Net-(D9-Pad4)*
X44400000Y-2950000D02*
X47900000Y-2950000D01*
X49650000Y-5500000D02*
X49700000Y-5550000D01*
X49650000Y-4700000D02*
X49650000Y-5500000D01*
X47900000Y-2950000D02*
X49650000Y-4700000D01*
G04 #@! TO.N,Net-(D9-Pad3)*
X29850000Y-3300000D02*
X29850000Y-2850000D01*
X27300000Y-5850000D02*
X29850000Y-3300000D01*
D19*
G04 #@! TO.N,Net-(Q1-Pad1)*
X21400000Y-91500000D02*
X21400000Y-92700000D01*
X21400000Y-92700000D02*
X18850000Y-95250000D01*
X18850000Y-95250000D02*
X9600000Y-95250000D01*
D18*
G04 #@! TO.N,sensor0*
X50072000Y-32249424D02*
X58030000Y-24291424D01*
X58030000Y-24291424D02*
X63125135Y-24291424D01*
X50072000Y-39828000D02*
X50072000Y-38500000D01*
X31900000Y-58000000D02*
X50072000Y-39828000D01*
X50072000Y-38500000D02*
X50072000Y-32249424D01*
G04 #@! TO.N,sensor2*
X17947028Y-36197028D02*
X17947028Y-18103220D01*
X21440000Y-39690000D02*
X17947028Y-36197028D01*
X21440000Y-62230000D02*
X21440000Y-53310000D01*
X21290000Y-62380000D02*
X21440000Y-62230000D01*
X21440000Y-39690000D02*
X21440000Y-53310000D01*
G04 #@! TO.N,sensor1*
X51036823Y-29519177D02*
X48660000Y-31896000D01*
X51036823Y-18248951D02*
X51036823Y-29519177D01*
X48660000Y-39740000D02*
X48660000Y-36400000D01*
X30900000Y-57500000D02*
X48660000Y-39740000D01*
X48660000Y-36400000D02*
X48660000Y-31896000D01*
G04 #@! TO.N,sensor3*
X5953948Y-24252338D02*
X13852338Y-24252338D01*
X13852338Y-24252338D02*
X15500000Y-25900000D01*
X15500000Y-25900000D02*
X15500000Y-35200000D01*
X15500000Y-35200000D02*
X19910000Y-39610000D01*
X19910000Y-62800000D02*
X19910000Y-61120000D01*
X21410000Y-64300000D02*
X19910000Y-62800000D01*
X19910000Y-61120000D02*
X19910000Y-39610000D01*
G04 #@! TO.N,fun*
X48100000Y-71800000D02*
X48100000Y-80640000D01*
X50060000Y-82600000D02*
X57400000Y-82600000D01*
X48100000Y-80640000D02*
X50060000Y-82600000D01*
G04 #@! TO.N,buzzer_pwm*
X22580000Y-22540000D02*
X24440000Y-20680000D01*
X22580000Y-62480000D02*
X22580000Y-22540000D01*
X24650000Y-64550000D02*
X22580000Y-62480000D01*
X24650000Y-67920000D02*
X24650000Y-64550000D01*
X22220000Y-70350000D02*
X24650000Y-67920000D01*
G04 #@! TO.N,push1*
X43550000Y-22970000D02*
X43550000Y-21800000D01*
X29860000Y-24120000D02*
X42400000Y-24120000D01*
X25540000Y-28440000D02*
X29860000Y-24120000D01*
X42400000Y-24120000D02*
X43550000Y-22970000D01*
X23360000Y-70460000D02*
X25550000Y-68270000D01*
X25550000Y-68270000D02*
X25550000Y-64700000D01*
X25540000Y-36590000D02*
X25540000Y-28440000D01*
X26200000Y-64050000D02*
X25550000Y-64700000D01*
X26200000Y-37250000D02*
X26200000Y-64050000D01*
X26200000Y-37250000D02*
X25540000Y-36590000D01*
G04 #@! TO.N,fledred*
X43560000Y-68990000D02*
X41660000Y-68990000D01*
X44600000Y-67950000D02*
X43560000Y-68990000D01*
X44600000Y-57660000D02*
X44600000Y-67950000D01*
X42750000Y-55810000D02*
X44600000Y-57660000D01*
G04 #@! TO.N,boot*
X12850000Y-82600000D02*
X12850000Y-83550000D01*
X27400000Y-69250000D02*
X25700000Y-70950000D01*
X25700000Y-70950000D02*
X25700000Y-77050000D01*
X25700000Y-77050000D02*
X22750000Y-80000000D01*
X22750000Y-80000000D02*
X15450000Y-80000000D01*
X15450000Y-80000000D02*
X12850000Y-82600000D01*
X28410000Y-69250000D02*
X27400000Y-69250000D01*
G04 #@! TO.N,Net-(R24-Pad1)*
X17750000Y-77150000D02*
X19350000Y-77150000D01*
X20500000Y-76000000D02*
X20500000Y-72900000D01*
X19350000Y-77150000D02*
X20500000Y-76000000D01*
D20*
G04 #@! TO.N,MOTOR_L1*
X22700000Y-88400000D02*
X23650000Y-88400000D01*
X22700000Y-96000000D02*
X22700000Y-88400000D01*
X25000000Y-97000000D02*
X23700000Y-97000000D01*
X23700000Y-97000000D02*
X22700000Y-96000000D01*
G04 #@! TO.N,MOTOR_L2*
X25050000Y-94410000D02*
X25000000Y-94460000D01*
X25050000Y-88350000D02*
X25050000Y-94410000D01*
X25050000Y-88350000D02*
X26150000Y-88350000D01*
D18*
G04 #@! TO.N,enc_LA*
X31100000Y-97000000D02*
X30080000Y-97000000D01*
X28750000Y-81700000D02*
X31650000Y-84600000D01*
X31650000Y-96450000D02*
X31100000Y-97000000D01*
X31650000Y-84600000D02*
X31650000Y-96450000D01*
G04 #@! TO.N,enc_LB*
X30080000Y-94460000D02*
X30080000Y-84230000D01*
X30080000Y-84230000D02*
X29100000Y-83250000D01*
G04 #@! TO.N,enc_RB*
X44080000Y-94460000D02*
X44080000Y-93280000D01*
X44080000Y-93280000D02*
X42850000Y-92050000D01*
X42850000Y-92050000D02*
X39100000Y-92050000D01*
X39100000Y-92050000D02*
X37100000Y-90050000D01*
X31400000Y-82750000D02*
X31400000Y-83100000D01*
X31400000Y-83100000D02*
X32400000Y-84100000D01*
X32400000Y-84100000D02*
X32400000Y-86250000D01*
X32400000Y-86250000D02*
X33450000Y-87300000D01*
X36550000Y-87300000D02*
X37100000Y-87850000D01*
X33450000Y-87300000D02*
X36550000Y-87300000D01*
X37100000Y-90050000D02*
X37100000Y-87850000D01*
G04 #@! TO.N,enc_RA*
X45700000Y-97000000D02*
X44080000Y-97000000D01*
X46000000Y-96700000D02*
X45700000Y-97000000D01*
X39650000Y-91400000D02*
X44050000Y-91400000D01*
X32100000Y-81900000D02*
X33100000Y-82900000D01*
X33100000Y-82900000D02*
X33100000Y-85950000D01*
X46000000Y-93350000D02*
X46000000Y-96700000D01*
X33100000Y-85950000D02*
X33850000Y-86700000D01*
X44050000Y-91400000D02*
X46000000Y-93350000D01*
X33850000Y-86700000D02*
X37400000Y-86700000D01*
X37400000Y-86700000D02*
X37900000Y-87200000D01*
X37900000Y-89650000D02*
X39650000Y-91400000D01*
X37900000Y-87200000D02*
X37900000Y-89650000D01*
D20*
G04 #@! TO.N,MOTOR_R2*
X35200000Y-88400000D02*
X35200000Y-93550000D01*
X36110000Y-94460000D02*
X39000000Y-94460000D01*
X35200000Y-93550000D02*
X36110000Y-94460000D01*
X35200000Y-88400000D02*
X36150000Y-88400000D01*
D18*
G04 #@! TO.N,SD0*
X37650000Y-72900000D02*
X38100000Y-73350000D01*
X38100000Y-73350000D02*
X39000000Y-73350000D01*
X37650000Y-66400000D02*
X37650000Y-72900000D01*
X30300000Y-50850000D02*
X29050000Y-50850000D01*
X29050000Y-50850000D02*
X27950000Y-51950000D01*
X27950000Y-51950000D02*
X27950000Y-64350000D01*
X27950000Y-64350000D02*
X28750000Y-65150000D01*
X28750000Y-65150000D02*
X36400000Y-65150000D01*
X36400000Y-65150000D02*
X37650000Y-66400000D01*
G04 #@! TO.N,SCL*
X40000000Y-74250000D02*
X40000000Y-72850000D01*
X39000000Y-53200000D02*
X38350000Y-53850000D01*
X38350000Y-71200000D02*
X39300000Y-72150000D01*
X38350000Y-53850000D02*
X38350000Y-71200000D01*
X39300000Y-72150000D02*
X40000000Y-72850000D01*
G04 #@! TO.N,SDI*
X41000000Y-72800000D02*
X41000000Y-72650000D01*
X41000000Y-72650000D02*
X39200000Y-70850000D01*
X39200000Y-70850000D02*
X39200000Y-54850000D01*
X39950000Y-52000000D02*
X39950000Y-54100000D01*
X39200000Y-54850000D02*
X39950000Y-54100000D01*
G04 #@! TO.N,fledgreen*
X39310000Y-44090000D02*
X39310000Y-47390000D01*
X45350000Y-21300000D02*
X45350000Y-38050000D01*
X45350000Y-38050000D02*
X39310000Y-44090000D01*
X41700000Y-56300000D02*
X41700000Y-52900000D01*
X43620000Y-58220000D02*
X41700000Y-56300000D01*
X42990000Y-67960000D02*
X43620000Y-67330000D01*
X43620000Y-67330000D02*
X43620000Y-58220000D01*
G04 #@! TO.N,led2*
X47616000Y-57550000D02*
X47616000Y-48914000D01*
X47616000Y-48914000D02*
X49648000Y-46882000D01*
X49648000Y-46882000D02*
X49648000Y-43326000D01*
G04 #@! TO.N,fledblue*
X24650000Y-17640000D02*
X24710000Y-17580000D01*
X24710000Y-17580000D02*
X29060000Y-17580000D01*
X29074000Y-57804000D02*
X29074000Y-60090000D01*
X35078000Y-63392000D02*
X35880000Y-62590000D01*
X29074000Y-62122000D02*
X30344000Y-63392000D01*
X29074000Y-61360000D02*
X29074000Y-62122000D01*
X30344000Y-63392000D02*
X35078000Y-63392000D01*
X29074000Y-57804000D02*
X29074000Y-58312000D01*
X32212000Y-48450000D02*
X32212000Y-48152000D01*
X32212000Y-53650000D02*
X32212000Y-54238000D01*
X32212000Y-48450000D02*
X32212000Y-53650000D01*
X29074000Y-57376000D02*
X29074000Y-58850000D01*
X32212000Y-54238000D02*
X29074000Y-57376000D01*
X29074000Y-58312000D02*
X29074000Y-58850000D01*
X29074000Y-58850000D02*
X29074000Y-61360000D01*
D20*
G04 #@! TO.N,MOTOR_R1*
X33950000Y-94700000D02*
X36250000Y-97000000D01*
X33950000Y-88350000D02*
X33950000Y-94700000D01*
X36250000Y-97000000D02*
X39000000Y-97000000D01*
X33950000Y-88350000D02*
X32900000Y-88350000D01*
D18*
G04 #@! TO.N,PWM_L*
X26750000Y-74650000D02*
X26750000Y-79350000D01*
X26750000Y-79350000D02*
X26400000Y-79700000D01*
X25500000Y-85650000D02*
X25500000Y-84500000D01*
X23400000Y-82400000D02*
X23400000Y-80800000D01*
X25500000Y-84500000D02*
X23400000Y-82400000D01*
G04 #@! TO.N,PWM_R*
X39400000Y-82550000D02*
X39400000Y-85750000D01*
X39400000Y-81750000D02*
X39400000Y-82550000D01*
X26750000Y-71850000D02*
X26750000Y-73200000D01*
X26750000Y-73200000D02*
X27500000Y-73950000D01*
X27500000Y-73950000D02*
X27500000Y-78950000D01*
X27500000Y-78950000D02*
X28350000Y-79800000D01*
X28350000Y-79800000D02*
X37450000Y-79800000D01*
X37450000Y-79800000D02*
X39400000Y-81750000D01*
G04 #@! TO.N,sensor_paluse_front*
X18914000Y-63900000D02*
X19422000Y-64408000D01*
X18914000Y-57804000D02*
X18914000Y-63900000D01*
X18914000Y-57804000D02*
X18914000Y-40532000D01*
D20*
G04 #@! TO.N,Net-(D1-Pad2)*
X46663249Y-18950000D02*
X47598981Y-18014268D01*
X21401019Y-17814268D02*
X22536751Y-18950000D01*
X22536751Y-18950000D02*
X46663249Y-18950000D01*
G04 #@! TO.N,Net-(D2-Pad2)*
X67900000Y-26100000D02*
X66969388Y-27030612D01*
X67900000Y-15350000D02*
X67900000Y-26100000D01*
X63000000Y-10450000D02*
X67900000Y-15350000D01*
X59200000Y-10450000D02*
X63000000Y-10450000D01*
X55800000Y-7050000D02*
X59200000Y-10450000D01*
X39200000Y-1450000D02*
X44800000Y-7050000D01*
X66969388Y-27030612D02*
X65463424Y-27030612D01*
X29150000Y-1450000D02*
X39200000Y-1450000D01*
X1780612Y-26930612D02*
X1150000Y-26300000D01*
X1150000Y-26300000D02*
X1150000Y-17000000D01*
X44800000Y-7050000D02*
X55800000Y-7050000D01*
X3636576Y-26930612D02*
X1780612Y-26930612D01*
X1150000Y-17000000D02*
X11300000Y-6850000D01*
X21600000Y-2800000D02*
X17550000Y-6850000D01*
X27800000Y-2800000D02*
X21600000Y-2800000D01*
X11300000Y-6850000D02*
X17550000Y-6850000D01*
X27800000Y-2800000D02*
X29150000Y-1450000D01*
G04 #@! TO.N,fun_power*
X66500000Y-92300000D02*
X66500000Y-88000000D01*
X56000000Y-94400000D02*
X57250000Y-94400000D01*
X64400000Y-94400000D02*
X66500000Y-92300000D01*
X56000000Y-94400000D02*
X64400000Y-94400000D01*
G04 #@! TD*
D22*
G04 #@! TO.N,GND*
G36*
X21199334Y-19454778D02*
X21365703Y-19546051D01*
X21554338Y-19566710D01*
X21736519Y-19513609D01*
X21883529Y-19395621D01*
X21933215Y-19445308D01*
X21976565Y-19510186D01*
X22132796Y-19614576D01*
X22233580Y-19681918D01*
X22536751Y-19742222D01*
X22613277Y-19727000D01*
X46586724Y-19727000D01*
X46663249Y-19742222D01*
X46739774Y-19727000D01*
X46739775Y-19727000D01*
X46966419Y-19681918D01*
X47223435Y-19510186D01*
X47266787Y-19445305D01*
X47322070Y-19390022D01*
X47325079Y-19391268D01*
X47752706Y-19391268D01*
X47651096Y-19476529D01*
X47532320Y-19624521D01*
X47479219Y-19806702D01*
X47499878Y-19995337D01*
X47591151Y-20161706D01*
X48748169Y-21540586D01*
X48896161Y-21659362D01*
X49078342Y-21712463D01*
X49266977Y-21691804D01*
X49433346Y-21600531D01*
X50434823Y-20760192D01*
X50434824Y-29269819D01*
X48276243Y-31428401D01*
X48225984Y-31461983D01*
X48192402Y-31512242D01*
X48192399Y-31512245D01*
X48092930Y-31661112D01*
X48046208Y-31896000D01*
X48058001Y-31955287D01*
X48058000Y-36459287D01*
X48058001Y-36459292D01*
X48058000Y-39490643D01*
X40187000Y-47361643D01*
X40187000Y-47215554D01*
X40053484Y-46893220D01*
X39912000Y-46751736D01*
X39912000Y-44339356D01*
X45733758Y-38517599D01*
X45784017Y-38484017D01*
X45817599Y-38433758D01*
X45817601Y-38433756D01*
X45917070Y-38284889D01*
X45917071Y-38284888D01*
X45952000Y-38109288D01*
X45952000Y-38109283D01*
X45963792Y-38050000D01*
X45952000Y-37990717D01*
X45952000Y-21938264D01*
X46093484Y-21796780D01*
X46227000Y-21474446D01*
X46227000Y-21125554D01*
X46093484Y-20803220D01*
X45846780Y-20556516D01*
X45524446Y-20423000D01*
X45175554Y-20423000D01*
X44853220Y-20556516D01*
X44606516Y-20803220D01*
X44473000Y-21125554D01*
X44473000Y-21474446D01*
X44606516Y-21796780D01*
X44748000Y-21938264D01*
X44748001Y-37800642D01*
X38926245Y-43622399D01*
X38875983Y-43655983D01*
X38742929Y-43855113D01*
X38708000Y-44030713D01*
X38708000Y-44030717D01*
X38696208Y-44090000D01*
X38708000Y-44149283D01*
X38708001Y-46751735D01*
X38566516Y-46893220D01*
X38433000Y-47215554D01*
X38433000Y-47564446D01*
X38566516Y-47886780D01*
X38813220Y-48133484D01*
X39135554Y-48267000D01*
X39281644Y-48267000D01*
X30925644Y-56623000D01*
X30725554Y-56623000D01*
X30644982Y-56656374D01*
X32595758Y-54705599D01*
X32646017Y-54672017D01*
X32679599Y-54621758D01*
X32679601Y-54621756D01*
X32779070Y-54472889D01*
X32779071Y-54472888D01*
X32814000Y-54297288D01*
X32814000Y-54297284D01*
X32825792Y-54238001D01*
X32814000Y-54178718D01*
X32814000Y-48790264D01*
X32955484Y-48648780D01*
X33089000Y-48326446D01*
X33089000Y-47977554D01*
X32955484Y-47655220D01*
X32708780Y-47408516D01*
X32386446Y-47275000D01*
X32037554Y-47275000D01*
X31715220Y-47408516D01*
X31468516Y-47655220D01*
X31335000Y-47977554D01*
X31335000Y-48326446D01*
X31468516Y-48648780D01*
X31610000Y-48790264D01*
X31610000Y-49958644D01*
X31027000Y-49375644D01*
X31027000Y-49175554D01*
X30893484Y-48853220D01*
X30646780Y-48606516D01*
X30324446Y-48473000D01*
X29975554Y-48473000D01*
X29653220Y-48606516D01*
X29406516Y-48853220D01*
X29273000Y-49175554D01*
X29273000Y-49524446D01*
X29406516Y-49846780D01*
X29653220Y-50093484D01*
X29768501Y-50141235D01*
X29661736Y-50248000D01*
X29109283Y-50248000D01*
X29050000Y-50236208D01*
X28990717Y-50248000D01*
X28990712Y-50248000D01*
X28815112Y-50282929D01*
X28815110Y-50282930D01*
X28815111Y-50282930D01*
X28666244Y-50382399D01*
X28666242Y-50382401D01*
X28615983Y-50415983D01*
X28582401Y-50466242D01*
X27566245Y-51482399D01*
X27515983Y-51515983D01*
X27382929Y-51715113D01*
X27348000Y-51890713D01*
X27348000Y-51890717D01*
X27336208Y-51950000D01*
X27348000Y-52009283D01*
X27348001Y-64290712D01*
X27336208Y-64350000D01*
X27382930Y-64584888D01*
X27482399Y-64733755D01*
X27482402Y-64733758D01*
X27515984Y-64784017D01*
X27566243Y-64817599D01*
X28282401Y-65533758D01*
X28315983Y-65584017D01*
X28366242Y-65617599D01*
X28366244Y-65617601D01*
X28462599Y-65681983D01*
X28515112Y-65717071D01*
X28690712Y-65752000D01*
X28690717Y-65752000D01*
X28750000Y-65763792D01*
X28809283Y-65752000D01*
X36150644Y-65752000D01*
X37048000Y-66649357D01*
X37048001Y-72840712D01*
X37036208Y-72900000D01*
X37048001Y-72959288D01*
X37049385Y-72966244D01*
X37082930Y-73134888D01*
X37182399Y-73283755D01*
X37182402Y-73283758D01*
X37215984Y-73334017D01*
X37266243Y-73367599D01*
X37632401Y-73733757D01*
X37665983Y-73784017D01*
X37716242Y-73817599D01*
X37716244Y-73817601D01*
X37759914Y-73846780D01*
X37865112Y-73917071D01*
X38040712Y-73952000D01*
X38040716Y-73952000D01*
X38099999Y-73963792D01*
X38159282Y-73952000D01*
X38361736Y-73952000D01*
X38503220Y-74093484D01*
X38825554Y-74227000D01*
X39123000Y-74227000D01*
X39123000Y-74424446D01*
X39256516Y-74746780D01*
X39503220Y-74993484D01*
X39825554Y-75127000D01*
X40174446Y-75127000D01*
X40496780Y-74993484D01*
X40743484Y-74746780D01*
X40877000Y-74424446D01*
X40877000Y-74075554D01*
X40743484Y-73753220D01*
X40602000Y-73611736D01*
X40602000Y-73584400D01*
X40825554Y-73677000D01*
X41174446Y-73677000D01*
X41496780Y-73543484D01*
X41743484Y-73296780D01*
X41877000Y-72974446D01*
X41877000Y-72625554D01*
X41743484Y-72303220D01*
X41496780Y-72056516D01*
X41174446Y-71923000D01*
X41124356Y-71923000D01*
X39802000Y-70600644D01*
X39802000Y-68815554D01*
X40783000Y-68815554D01*
X40783000Y-69164446D01*
X40916516Y-69486780D01*
X41163220Y-69733484D01*
X41485554Y-69867000D01*
X41834446Y-69867000D01*
X42156780Y-69733484D01*
X42298264Y-69592000D01*
X43500717Y-69592000D01*
X43560000Y-69603792D01*
X43619283Y-69592000D01*
X43619288Y-69592000D01*
X43794888Y-69557071D01*
X43994017Y-69424017D01*
X44027601Y-69373755D01*
X44983758Y-68417599D01*
X45034017Y-68384017D01*
X45067599Y-68333758D01*
X45067601Y-68333756D01*
X45131983Y-68237401D01*
X45167071Y-68184888D01*
X45202000Y-68009288D01*
X45202000Y-68009284D01*
X45213792Y-67950001D01*
X45202000Y-67890718D01*
X45202000Y-57719282D01*
X45213792Y-57659999D01*
X45202000Y-57600716D01*
X45202000Y-57600712D01*
X45167071Y-57425112D01*
X45130235Y-57369983D01*
X45067601Y-57276244D01*
X45067599Y-57276242D01*
X45034017Y-57225983D01*
X44983758Y-57192401D01*
X43627000Y-55835644D01*
X43627000Y-55635554D01*
X43493484Y-55313220D01*
X43246780Y-55066516D01*
X42924446Y-54933000D01*
X42575554Y-54933000D01*
X42302000Y-55046311D01*
X42302000Y-53538264D01*
X42443484Y-53396780D01*
X42577000Y-53074446D01*
X42577000Y-52725554D01*
X42443484Y-52403220D01*
X42196780Y-52156516D01*
X41874446Y-52023000D01*
X41525554Y-52023000D01*
X41203220Y-52156516D01*
X40956516Y-52403220D01*
X40823000Y-52725554D01*
X40823000Y-53074446D01*
X40956516Y-53396780D01*
X41098001Y-53538265D01*
X41098000Y-56240717D01*
X41086208Y-56300000D01*
X41098000Y-56359283D01*
X41098000Y-56359287D01*
X41132929Y-56534887D01*
X41265983Y-56734017D01*
X41316245Y-56767601D01*
X43018001Y-58469358D01*
X43018000Y-67080643D01*
X43015643Y-67083000D01*
X42815554Y-67083000D01*
X42493220Y-67216516D01*
X42246516Y-67463220D01*
X42113000Y-67785554D01*
X42113000Y-68134446D01*
X42161289Y-68251025D01*
X42156780Y-68246516D01*
X41834446Y-68113000D01*
X41485554Y-68113000D01*
X41163220Y-68246516D01*
X40916516Y-68493220D01*
X40783000Y-68815554D01*
X39802000Y-68815554D01*
X39802000Y-55099356D01*
X40333758Y-54567599D01*
X40384017Y-54534017D01*
X40417599Y-54483758D01*
X40417601Y-54483756D01*
X40517070Y-54334889D01*
X40517071Y-54334888D01*
X40552000Y-54159288D01*
X40552000Y-54159284D01*
X40563792Y-54100001D01*
X40552000Y-54040718D01*
X40552000Y-52638264D01*
X40693484Y-52496780D01*
X40827000Y-52174446D01*
X40827000Y-51825554D01*
X40693484Y-51503220D01*
X40446780Y-51256516D01*
X40124446Y-51123000D01*
X39775554Y-51123000D01*
X39524271Y-51227086D01*
X50455758Y-40295599D01*
X50506017Y-40262017D01*
X50539599Y-40211758D01*
X50539601Y-40211756D01*
X50639070Y-40062889D01*
X50639071Y-40062888D01*
X50674000Y-39887288D01*
X50674000Y-39887283D01*
X50685792Y-39828000D01*
X50674000Y-39768717D01*
X50674000Y-32498780D01*
X58279357Y-24893424D01*
X61884038Y-24893424D01*
X61957771Y-25071432D01*
X62243615Y-25357276D01*
X62157343Y-25349728D01*
X61968708Y-25370387D01*
X61802339Y-25461660D01*
X61683563Y-25609652D01*
X61630462Y-25791833D01*
X61473582Y-27584983D01*
X61494241Y-27773618D01*
X61585514Y-27939987D01*
X61733506Y-28058763D01*
X61915687Y-28111864D01*
X63708837Y-28268744D01*
X63897472Y-28248085D01*
X64063841Y-28156812D01*
X64182617Y-28008820D01*
X64235718Y-27826639D01*
X64247398Y-27693139D01*
X64296060Y-27810620D01*
X64683416Y-28197976D01*
X65189522Y-28407612D01*
X65737326Y-28407612D01*
X66243432Y-28197976D01*
X66630788Y-27810620D01*
X66632034Y-27807612D01*
X66892863Y-27807612D01*
X66969388Y-27822834D01*
X67045913Y-27807612D01*
X67045914Y-27807612D01*
X67272558Y-27762530D01*
X67529574Y-27590798D01*
X67572926Y-27525917D01*
X68395305Y-26703538D01*
X68423000Y-26685033D01*
X68423000Y-31308406D01*
X59528621Y-31308406D01*
X59471793Y-31297102D01*
X59414965Y-31308406D01*
X59246660Y-31341884D01*
X59055800Y-31469412D01*
X59023608Y-31517591D01*
X55982186Y-34559014D01*
X55934007Y-34591206D01*
X55817225Y-34765983D01*
X55806479Y-34782066D01*
X55761696Y-35007200D01*
X55773001Y-35064033D01*
X55773001Y-39623000D01*
X51250000Y-39623000D01*
X51201399Y-39632667D01*
X51160197Y-39660197D01*
X51132667Y-39701399D01*
X51123000Y-39750000D01*
X51123000Y-75000000D01*
X51132667Y-75048601D01*
X51160197Y-75089803D01*
X51201399Y-75117333D01*
X51250000Y-75127000D01*
X55773000Y-75127000D01*
X55773000Y-80033646D01*
X55761696Y-80090474D01*
X55773000Y-80147302D01*
X55806478Y-80315607D01*
X55934006Y-80506468D01*
X55982188Y-80538662D01*
X57183814Y-81740289D01*
X56903220Y-81856516D01*
X56761736Y-81998000D01*
X50309357Y-81998000D01*
X48702000Y-80390644D01*
X48702000Y-72438264D01*
X48843484Y-72296780D01*
X48977000Y-71974446D01*
X48977000Y-71625554D01*
X48843484Y-71303220D01*
X48596780Y-71056516D01*
X48274446Y-70923000D01*
X47925554Y-70923000D01*
X47603220Y-71056516D01*
X47356516Y-71303220D01*
X47223000Y-71625554D01*
X47223000Y-71974446D01*
X47356516Y-72296780D01*
X47498000Y-72438264D01*
X47498001Y-80580712D01*
X47486208Y-80640000D01*
X47498001Y-80699288D01*
X47498143Y-80700000D01*
X47532930Y-80874888D01*
X47632399Y-81023755D01*
X47632402Y-81023758D01*
X47665984Y-81074017D01*
X47716243Y-81107599D01*
X49592401Y-82983758D01*
X49625983Y-83034017D01*
X49676242Y-83067599D01*
X49676244Y-83067601D01*
X49719914Y-83096780D01*
X49825112Y-83167071D01*
X50000712Y-83202000D01*
X50000713Y-83202000D01*
X50060000Y-83213793D01*
X50119287Y-83202000D01*
X56761736Y-83202000D01*
X56903220Y-83343484D01*
X57225554Y-83477000D01*
X57574446Y-83477000D01*
X57896780Y-83343484D01*
X58143484Y-83096780D01*
X58259711Y-82816186D01*
X58901816Y-83458292D01*
X58934006Y-83506468D01*
X58982182Y-83538658D01*
X58982183Y-83538659D01*
X59124865Y-83633996D01*
X59350000Y-83678778D01*
X59406829Y-83667474D01*
X68423001Y-83667474D01*
X68423000Y-99430200D01*
X54138479Y-99430200D01*
X54899170Y-98479336D01*
X54917333Y-98448601D01*
X54927000Y-98400000D01*
X54927000Y-98053349D01*
X55335183Y-97681358D01*
X55581486Y-97156892D01*
X55460819Y-96927000D01*
X54267000Y-96927000D01*
X54267000Y-96947000D01*
X54013000Y-96947000D01*
X54013000Y-96927000D01*
X53993000Y-96927000D01*
X53993000Y-96673000D01*
X54013000Y-96673000D01*
X54013000Y-96653000D01*
X54267000Y-96653000D01*
X54267000Y-96673000D01*
X55460819Y-96673000D01*
X55581486Y-96443108D01*
X55335183Y-95918642D01*
X54906924Y-95528355D01*
X54877000Y-95515961D01*
X54877000Y-94400000D01*
X55207778Y-94400000D01*
X55268082Y-94703170D01*
X55439814Y-94960186D01*
X55530549Y-95020813D01*
X55653220Y-95143484D01*
X55975554Y-95277000D01*
X56324446Y-95277000D01*
X56565866Y-95177000D01*
X56834134Y-95177000D01*
X57075554Y-95277000D01*
X57424446Y-95277000D01*
X57665866Y-95177000D01*
X64323475Y-95177000D01*
X64400000Y-95192222D01*
X64476525Y-95177000D01*
X64476526Y-95177000D01*
X64703170Y-95131918D01*
X64960186Y-94960186D01*
X65003538Y-94895305D01*
X66995309Y-92903535D01*
X67060186Y-92860186D01*
X67231918Y-92603170D01*
X67277000Y-92376526D01*
X67277000Y-92376525D01*
X67292222Y-92300001D01*
X67277000Y-92223476D01*
X67277000Y-89336344D01*
X67350000Y-89336344D01*
X67536116Y-89299323D01*
X67693897Y-89193897D01*
X67799323Y-89036116D01*
X67836344Y-88850000D01*
X67836344Y-87150000D01*
X67799323Y-86963884D01*
X67693897Y-86806103D01*
X67536116Y-86700677D01*
X67350000Y-86663656D01*
X67087138Y-86663656D01*
X67456713Y-86416713D01*
X67750006Y-85977770D01*
X67852997Y-85460000D01*
X67750006Y-84942230D01*
X67456713Y-84503287D01*
X67017770Y-84209994D01*
X66630696Y-84133000D01*
X66369304Y-84133000D01*
X65982230Y-84209994D01*
X65543287Y-84503287D01*
X65249994Y-84942230D01*
X65147003Y-85460000D01*
X65215903Y-85806384D01*
X65210197Y-85810197D01*
X65182667Y-85851399D01*
X65173000Y-85900000D01*
X65173000Y-87000000D01*
X65182667Y-87048601D01*
X65183560Y-87049937D01*
X65163656Y-87150000D01*
X65163656Y-88850000D01*
X65200677Y-89036116D01*
X65306103Y-89193897D01*
X65463884Y-89299323D01*
X65650000Y-89336344D01*
X65723001Y-89336344D01*
X65723000Y-91978156D01*
X64078157Y-93623000D01*
X57665866Y-93623000D01*
X57424446Y-93523000D01*
X57075554Y-93523000D01*
X56834134Y-93623000D01*
X56565866Y-93623000D01*
X56324446Y-93523000D01*
X55975554Y-93523000D01*
X55653220Y-93656516D01*
X55530549Y-93779187D01*
X55439814Y-93839814D01*
X55268082Y-94096830D01*
X55207778Y-94400000D01*
X54877000Y-94400000D01*
X54877000Y-93802606D01*
X61052606Y-87627000D01*
X63250000Y-87627000D01*
X63298601Y-87617333D01*
X63339803Y-87589803D01*
X63367333Y-87548601D01*
X63377000Y-87500000D01*
X63377000Y-86000000D01*
X63367333Y-85951399D01*
X63339803Y-85910197D01*
X63298601Y-85882667D01*
X63250000Y-85873000D01*
X60500000Y-85873000D01*
X60451399Y-85882667D01*
X60410197Y-85910197D01*
X53410197Y-92910197D01*
X53382667Y-92951399D01*
X53373000Y-93000000D01*
X53373000Y-95528424D01*
X52944817Y-95918642D01*
X52934483Y-95940646D01*
X52899323Y-95763884D01*
X52793897Y-95606103D01*
X52636116Y-95500677D01*
X52450000Y-95463656D01*
X50750000Y-95463656D01*
X50563884Y-95500677D01*
X50406103Y-95606103D01*
X50300677Y-95763884D01*
X50263656Y-95950000D01*
X50263656Y-97650000D01*
X50300677Y-97836116D01*
X50406103Y-97993897D01*
X50524489Y-98073000D01*
X49252606Y-98073000D01*
X48157852Y-96978246D01*
X48275554Y-97027000D01*
X48624446Y-97027000D01*
X48946780Y-96893484D01*
X49193484Y-96646780D01*
X49327000Y-96324446D01*
X49327000Y-95975554D01*
X49193484Y-95653220D01*
X49127000Y-95586736D01*
X49127000Y-95563264D01*
X49193484Y-95496780D01*
X49327000Y-95174446D01*
X49327000Y-94825554D01*
X49193484Y-94503220D01*
X49127000Y-94436736D01*
X49127000Y-91916676D01*
X49140263Y-91849999D01*
X49118346Y-91739815D01*
X49087720Y-91585848D01*
X48995613Y-91448000D01*
X48975859Y-91418436D01*
X48975858Y-91418435D01*
X48938089Y-91361910D01*
X48881565Y-91324142D01*
X45732976Y-88175554D01*
X46273000Y-88175554D01*
X46273000Y-88524446D01*
X46406516Y-88846780D01*
X46653220Y-89093484D01*
X46975554Y-89227000D01*
X47324446Y-89227000D01*
X47646780Y-89093484D01*
X47725000Y-89015264D01*
X47753220Y-89043484D01*
X48075554Y-89177000D01*
X48424446Y-89177000D01*
X48746780Y-89043484D01*
X48813264Y-88977000D01*
X54404844Y-88977000D01*
X54525554Y-89027000D01*
X54874446Y-89027000D01*
X55196780Y-88893484D01*
X55443484Y-88646780D01*
X55577000Y-88324446D01*
X55577000Y-87975554D01*
X55443484Y-87653220D01*
X55390264Y-87600000D01*
X55443484Y-87546780D01*
X55577000Y-87224446D01*
X55577000Y-86875554D01*
X55443484Y-86553220D01*
X55196780Y-86306516D01*
X54874446Y-86173000D01*
X54525554Y-86173000D01*
X54203220Y-86306516D01*
X53956516Y-86553220D01*
X53823000Y-86875554D01*
X53823000Y-87224446D01*
X53956516Y-87546780D01*
X54009736Y-87600000D01*
X53986736Y-87623000D01*
X48813264Y-87623000D01*
X48746780Y-87556516D01*
X48424446Y-87423000D01*
X48075554Y-87423000D01*
X47753220Y-87556516D01*
X47686736Y-87623000D01*
X47663264Y-87623000D01*
X47646780Y-87606516D01*
X47324446Y-87473000D01*
X46975554Y-87473000D01*
X46653220Y-87606516D01*
X46406516Y-87853220D01*
X46273000Y-88175554D01*
X45732976Y-88175554D01*
X45127000Y-87569579D01*
X45127000Y-86930421D01*
X45530422Y-86527000D01*
X47886736Y-86527000D01*
X47953220Y-86593484D01*
X48275554Y-86727000D01*
X48624446Y-86727000D01*
X48946780Y-86593484D01*
X49193484Y-86346780D01*
X49327000Y-86024446D01*
X49327000Y-85675554D01*
X49193484Y-85353220D01*
X49140264Y-85300000D01*
X49143484Y-85296780D01*
X49277000Y-84974446D01*
X49277000Y-84625554D01*
X49143484Y-84303220D01*
X48896780Y-84056516D01*
X48574446Y-83923000D01*
X48225554Y-83923000D01*
X47903220Y-84056516D01*
X47656516Y-84303220D01*
X47523000Y-84625554D01*
X47523000Y-84974446D01*
X47605244Y-85173000D01*
X45316676Y-85173000D01*
X45250000Y-85159737D01*
X45183323Y-85173000D01*
X45183322Y-85173000D01*
X44985848Y-85212280D01*
X44761910Y-85361910D01*
X44724138Y-85418440D01*
X44018440Y-86124138D01*
X43961910Y-86161911D01*
X43812280Y-86385849D01*
X43778988Y-86553220D01*
X43759737Y-86650000D01*
X43773000Y-86716677D01*
X43773001Y-87633495D01*
X42891776Y-86712215D01*
X42848601Y-86682667D01*
X42800000Y-86673000D01*
X40400000Y-86673000D01*
X40351399Y-86682667D01*
X40310197Y-86710197D01*
X40282667Y-86751399D01*
X40273000Y-86800000D01*
X40273000Y-88200000D01*
X40282667Y-88248601D01*
X40310197Y-88289803D01*
X40351399Y-88317333D01*
X40400000Y-88327000D01*
X42345571Y-88327000D01*
X46273000Y-92450800D01*
X46273000Y-92771644D01*
X44517600Y-91016244D01*
X44484017Y-90965983D01*
X44284888Y-90832929D01*
X44109288Y-90798000D01*
X44109283Y-90798000D01*
X44050000Y-90786208D01*
X43990717Y-90798000D01*
X39899357Y-90798000D01*
X38502000Y-89400644D01*
X38502000Y-87259283D01*
X38513792Y-87200000D01*
X38502000Y-87140717D01*
X38502000Y-87140712D01*
X38467071Y-86965112D01*
X38407230Y-86875554D01*
X38367601Y-86816244D01*
X38367599Y-86816242D01*
X38334017Y-86765983D01*
X38283758Y-86732401D01*
X37867600Y-86316244D01*
X37834017Y-86265983D01*
X37634888Y-86132929D01*
X37459288Y-86098000D01*
X37459283Y-86098000D01*
X37400000Y-86086208D01*
X37340717Y-86098000D01*
X34099357Y-86098000D01*
X33702000Y-85700644D01*
X33702000Y-82959287D01*
X33713793Y-82900000D01*
X33701032Y-82835848D01*
X33667071Y-82665112D01*
X33625716Y-82603220D01*
X33567601Y-82516244D01*
X33567599Y-82516242D01*
X33534017Y-82465983D01*
X33483758Y-82432401D01*
X32977000Y-81925644D01*
X32977000Y-81725554D01*
X32947914Y-81655336D01*
X34724138Y-83431560D01*
X34761910Y-83488090D01*
X34985848Y-83637720D01*
X35183322Y-83677000D01*
X35183323Y-83677000D01*
X35249999Y-83690263D01*
X35316676Y-83677000D01*
X36486736Y-83677000D01*
X36553220Y-83743484D01*
X36875554Y-83877000D01*
X37224446Y-83877000D01*
X37546780Y-83743484D01*
X37575000Y-83715264D01*
X37603220Y-83743484D01*
X37925554Y-83877000D01*
X38274446Y-83877000D01*
X38596780Y-83743484D01*
X38798000Y-83542264D01*
X38798001Y-85111735D01*
X38656516Y-85253220D01*
X38523000Y-85575554D01*
X38523000Y-85924446D01*
X38656516Y-86246780D01*
X38903220Y-86493484D01*
X39225554Y-86627000D01*
X39574446Y-86627000D01*
X39896780Y-86493484D01*
X40143484Y-86246780D01*
X40277000Y-85924446D01*
X40277000Y-85575554D01*
X40143484Y-85253220D01*
X40002000Y-85111736D01*
X40002000Y-83850843D01*
X40206516Y-84055359D01*
X40306516Y-84296780D01*
X40553220Y-84543484D01*
X40875554Y-84677000D01*
X41224446Y-84677000D01*
X41546780Y-84543484D01*
X41793484Y-84296780D01*
X41927000Y-83974446D01*
X41927000Y-83625554D01*
X41793484Y-83303220D01*
X41777000Y-83286736D01*
X41777000Y-82331132D01*
X46803441Y-77304692D01*
X46864136Y-77264137D01*
X46904692Y-77203441D01*
X46904694Y-77203439D01*
X47024818Y-77023661D01*
X47032756Y-76983756D01*
X47067000Y-76811599D01*
X47067000Y-76811595D01*
X47081241Y-76740000D01*
X47067000Y-76668405D01*
X47067000Y-58241264D01*
X47119220Y-58293484D01*
X47441554Y-58427000D01*
X47790446Y-58427000D01*
X48112780Y-58293484D01*
X48359484Y-58046780D01*
X48493000Y-57724446D01*
X48493000Y-57375554D01*
X48359484Y-57053220D01*
X48218000Y-56911736D01*
X48218000Y-49163356D01*
X50031758Y-47349599D01*
X50082017Y-47316017D01*
X50115599Y-47265758D01*
X50115601Y-47265756D01*
X50215070Y-47116889D01*
X50215071Y-47116888D01*
X50250000Y-46941288D01*
X50250000Y-46941283D01*
X50261792Y-46882000D01*
X50250000Y-46822717D01*
X50250000Y-43964264D01*
X50391484Y-43822780D01*
X50525000Y-43500446D01*
X50525000Y-43151554D01*
X50391484Y-42829220D01*
X50144780Y-42582516D01*
X49822446Y-42449000D01*
X49473554Y-42449000D01*
X49151220Y-42582516D01*
X48904516Y-42829220D01*
X48771000Y-43151554D01*
X48771000Y-43350736D01*
X48636780Y-43216516D01*
X48314446Y-43083000D01*
X47965554Y-43083000D01*
X47643220Y-43216516D01*
X47396516Y-43463220D01*
X47263000Y-43785554D01*
X47263000Y-44134446D01*
X47396516Y-44456780D01*
X47423001Y-44483265D01*
X47423000Y-44536736D01*
X47406516Y-44553220D01*
X47273000Y-44875554D01*
X47273000Y-44898866D01*
X45876562Y-46295306D01*
X45815864Y-46335863D01*
X45775307Y-46396561D01*
X45775306Y-46396562D01*
X45655182Y-46576340D01*
X45598759Y-46860000D01*
X45613001Y-46931600D01*
X45613000Y-76438867D01*
X40853518Y-81198350D01*
X40852000Y-81190717D01*
X40852000Y-81190712D01*
X40817071Y-81015112D01*
X40777918Y-80956516D01*
X40717601Y-80866244D01*
X40717599Y-80866242D01*
X40684017Y-80815983D01*
X40633758Y-80782401D01*
X36952000Y-77100644D01*
X36952000Y-76738264D01*
X37093484Y-76596780D01*
X37227000Y-76274446D01*
X37227000Y-75925554D01*
X37093484Y-75603220D01*
X36846780Y-75356516D01*
X36524446Y-75223000D01*
X36175554Y-75223000D01*
X35853220Y-75356516D01*
X35606516Y-75603220D01*
X35473000Y-75925554D01*
X35473000Y-76274446D01*
X35606516Y-76596780D01*
X35748001Y-76738265D01*
X35748001Y-77290713D01*
X35736208Y-77350000D01*
X35782930Y-77584888D01*
X35882399Y-77733755D01*
X35882402Y-77733758D01*
X35915984Y-77784017D01*
X35966243Y-77817599D01*
X37346644Y-79198000D01*
X28599357Y-79198000D01*
X28102000Y-78700644D01*
X28102000Y-74009282D01*
X28113792Y-73949999D01*
X28102000Y-73890716D01*
X28102000Y-73890712D01*
X28067071Y-73715112D01*
X27979301Y-73583755D01*
X27967601Y-73566244D01*
X27967599Y-73566242D01*
X27934017Y-73515983D01*
X27883758Y-73482401D01*
X27352000Y-72950644D01*
X27352000Y-72488264D01*
X27493484Y-72346780D01*
X27627000Y-72024446D01*
X27627000Y-71675554D01*
X27493484Y-71353220D01*
X27246780Y-71106516D01*
X26924446Y-70973000D01*
X26575554Y-70973000D01*
X26494982Y-71006374D01*
X27649357Y-69852000D01*
X27771736Y-69852000D01*
X27913220Y-69993484D01*
X28235554Y-70127000D01*
X28584446Y-70127000D01*
X28906780Y-69993484D01*
X29153484Y-69746780D01*
X29287000Y-69424446D01*
X29287000Y-69075554D01*
X29153484Y-68753220D01*
X28906780Y-68506516D01*
X28584446Y-68373000D01*
X28235554Y-68373000D01*
X27913220Y-68506516D01*
X27771736Y-68648000D01*
X27459282Y-68648000D01*
X27404294Y-68637062D01*
X28189357Y-67852000D01*
X28881736Y-67852000D01*
X29023220Y-67993484D01*
X29345554Y-68127000D01*
X29694446Y-68127000D01*
X30016780Y-67993484D01*
X30263484Y-67746780D01*
X30397000Y-67424446D01*
X30397000Y-67075554D01*
X30263484Y-66753220D01*
X30016780Y-66506516D01*
X29694446Y-66373000D01*
X29345554Y-66373000D01*
X29023220Y-66506516D01*
X28881736Y-66648000D01*
X27999283Y-66648000D01*
X27940000Y-66636208D01*
X27880717Y-66648000D01*
X27880712Y-66648000D01*
X27705112Y-66682929D01*
X27705110Y-66682930D01*
X27705111Y-66682930D01*
X27556244Y-66782399D01*
X27556242Y-66782401D01*
X27505983Y-66815983D01*
X27472401Y-66866242D01*
X26152000Y-68186643D01*
X26152000Y-64949356D01*
X26583757Y-64517599D01*
X26634017Y-64484017D01*
X26667599Y-64433758D01*
X26667601Y-64433756D01*
X26746876Y-64315112D01*
X26767071Y-64284888D01*
X26802000Y-64109288D01*
X26802000Y-64109283D01*
X26813792Y-64050000D01*
X26802000Y-63990717D01*
X26802000Y-37309283D01*
X26813792Y-37250000D01*
X26802000Y-37190717D01*
X26802000Y-37190712D01*
X26767071Y-37015112D01*
X26731983Y-36962599D01*
X26667601Y-36866244D01*
X26667599Y-36866242D01*
X26634017Y-36815983D01*
X26583758Y-36782401D01*
X26142000Y-36340644D01*
X26142000Y-32632696D01*
X26411335Y-32632696D01*
X26443035Y-33804192D01*
X26643516Y-34958842D01*
X27008577Y-36072457D01*
X27530572Y-37121708D01*
X28198565Y-38084617D01*
X28998564Y-38941011D01*
X29913809Y-39672950D01*
X30925127Y-40265101D01*
X32011333Y-40705060D01*
X33149673Y-40983610D01*
X34316301Y-41094916D01*
X35486776Y-41036646D01*
X36636580Y-40810021D01*
X37741626Y-40419789D01*
X38778765Y-39874124D01*
X39726271Y-39184456D01*
X40564294Y-38365235D01*
X41275281Y-37433619D01*
X41844335Y-36409127D01*
X42259538Y-35313219D01*
X42512190Y-34168852D01*
X42597000Y-33000000D01*
X42585151Y-32562124D01*
X42437256Y-31399569D01*
X42123087Y-30270540D01*
X41649227Y-29198689D01*
X41025601Y-28206469D01*
X40265275Y-27314667D01*
X39384175Y-26541963D01*
X38400759Y-25904545D01*
X37335629Y-25415765D01*
X36211097Y-25085864D01*
X35050720Y-24921750D01*
X33878806Y-24926864D01*
X32719905Y-25101097D01*
X31598295Y-25440799D01*
X30537470Y-25938855D01*
X29559655Y-26584831D01*
X28685331Y-27365194D01*
X27932816Y-28263598D01*
X27317873Y-29261221D01*
X26853385Y-30337167D01*
X26549080Y-31468894D01*
X26411335Y-32632696D01*
X26142000Y-32632696D01*
X26142000Y-28689356D01*
X30109357Y-24722000D01*
X42340717Y-24722000D01*
X42400000Y-24733792D01*
X42459283Y-24722000D01*
X42459288Y-24722000D01*
X42634888Y-24687071D01*
X42834017Y-24554017D01*
X42867601Y-24503755D01*
X43933758Y-23437599D01*
X43984017Y-23404017D01*
X44017599Y-23353758D01*
X44017601Y-23353756D01*
X44117070Y-23204889D01*
X44117071Y-23204888D01*
X44152000Y-23029288D01*
X44152000Y-23029287D01*
X44163793Y-22970000D01*
X44152000Y-22910713D01*
X44152000Y-22438264D01*
X44293484Y-22296780D01*
X44427000Y-21974446D01*
X44427000Y-21625554D01*
X44293484Y-21303220D01*
X44046780Y-21056516D01*
X43724446Y-20923000D01*
X43375554Y-20923000D01*
X43053220Y-21056516D01*
X42806516Y-21303220D01*
X42673000Y-21625554D01*
X42673000Y-21974446D01*
X42806516Y-22296780D01*
X42948000Y-22438264D01*
X42948000Y-22720643D01*
X42150644Y-23518000D01*
X29919287Y-23518000D01*
X29860000Y-23506207D01*
X29800713Y-23518000D01*
X29800712Y-23518000D01*
X29625112Y-23552929D01*
X29592365Y-23574810D01*
X29476244Y-23652399D01*
X29476242Y-23652401D01*
X29425983Y-23685983D01*
X29392401Y-23736242D01*
X25156243Y-27972401D01*
X25105984Y-28005983D01*
X25072402Y-28056242D01*
X25072399Y-28056245D01*
X24972930Y-28205112D01*
X24926208Y-28440000D01*
X24938001Y-28499288D01*
X24938000Y-36530717D01*
X24926208Y-36590000D01*
X24938000Y-36649283D01*
X24938000Y-36649287D01*
X24972929Y-36824887D01*
X25105983Y-37024017D01*
X25156245Y-37057601D01*
X25598000Y-37499357D01*
X25598001Y-63800642D01*
X25166243Y-64232401D01*
X25163175Y-64234451D01*
X25162576Y-64233554D01*
X25117601Y-64166244D01*
X25117599Y-64166242D01*
X25084017Y-64115983D01*
X25033758Y-64082401D01*
X23182000Y-62230644D01*
X23182000Y-22789356D01*
X24414357Y-21557000D01*
X24614446Y-21557000D01*
X24936780Y-21423484D01*
X25183484Y-21176780D01*
X25317000Y-20854446D01*
X25317000Y-20505554D01*
X25183484Y-20183220D01*
X24936780Y-19936516D01*
X24614446Y-19803000D01*
X24265554Y-19803000D01*
X23943220Y-19936516D01*
X23696516Y-20183220D01*
X23563000Y-20505554D01*
X23563000Y-20705643D01*
X22196243Y-22072401D01*
X22145984Y-22105983D01*
X22112402Y-22156242D01*
X22112399Y-22156245D01*
X22047298Y-22253677D01*
X22012930Y-22305112D01*
X21982384Y-22458680D01*
X21966208Y-22540000D01*
X21978001Y-22599288D01*
X21978001Y-39411605D01*
X21874017Y-39255983D01*
X21823755Y-39222399D01*
X18549028Y-35947672D01*
X18549028Y-20414618D01*
X18600975Y-20540029D01*
X18988331Y-20927385D01*
X19494437Y-21137021D01*
X20042241Y-21137021D01*
X20548347Y-20927385D01*
X20935703Y-20540029D01*
X21145339Y-20033923D01*
X21145339Y-19486119D01*
X21096677Y-19368639D01*
X21199334Y-19454778D01*
X21199334Y-19454778D01*
G37*
X21199334Y-19454778D02*
X21365703Y-19546051D01*
X21554338Y-19566710D01*
X21736519Y-19513609D01*
X21883529Y-19395621D01*
X21933215Y-19445308D01*
X21976565Y-19510186D01*
X22132796Y-19614576D01*
X22233580Y-19681918D01*
X22536751Y-19742222D01*
X22613277Y-19727000D01*
X46586724Y-19727000D01*
X46663249Y-19742222D01*
X46739774Y-19727000D01*
X46739775Y-19727000D01*
X46966419Y-19681918D01*
X47223435Y-19510186D01*
X47266787Y-19445305D01*
X47322070Y-19390022D01*
X47325079Y-19391268D01*
X47752706Y-19391268D01*
X47651096Y-19476529D01*
X47532320Y-19624521D01*
X47479219Y-19806702D01*
X47499878Y-19995337D01*
X47591151Y-20161706D01*
X48748169Y-21540586D01*
X48896161Y-21659362D01*
X49078342Y-21712463D01*
X49266977Y-21691804D01*
X49433346Y-21600531D01*
X50434823Y-20760192D01*
X50434824Y-29269819D01*
X48276243Y-31428401D01*
X48225984Y-31461983D01*
X48192402Y-31512242D01*
X48192399Y-31512245D01*
X48092930Y-31661112D01*
X48046208Y-31896000D01*
X48058001Y-31955287D01*
X48058000Y-36459287D01*
X48058001Y-36459292D01*
X48058000Y-39490643D01*
X40187000Y-47361643D01*
X40187000Y-47215554D01*
X40053484Y-46893220D01*
X39912000Y-46751736D01*
X39912000Y-44339356D01*
X45733758Y-38517599D01*
X45784017Y-38484017D01*
X45817599Y-38433758D01*
X45817601Y-38433756D01*
X45917070Y-38284889D01*
X45917071Y-38284888D01*
X45952000Y-38109288D01*
X45952000Y-38109283D01*
X45963792Y-38050000D01*
X45952000Y-37990717D01*
X45952000Y-21938264D01*
X46093484Y-21796780D01*
X46227000Y-21474446D01*
X46227000Y-21125554D01*
X46093484Y-20803220D01*
X45846780Y-20556516D01*
X45524446Y-20423000D01*
X45175554Y-20423000D01*
X44853220Y-20556516D01*
X44606516Y-20803220D01*
X44473000Y-21125554D01*
X44473000Y-21474446D01*
X44606516Y-21796780D01*
X44748000Y-21938264D01*
X44748001Y-37800642D01*
X38926245Y-43622399D01*
X38875983Y-43655983D01*
X38742929Y-43855113D01*
X38708000Y-44030713D01*
X38708000Y-44030717D01*
X38696208Y-44090000D01*
X38708000Y-44149283D01*
X38708001Y-46751735D01*
X38566516Y-46893220D01*
X38433000Y-47215554D01*
X38433000Y-47564446D01*
X38566516Y-47886780D01*
X38813220Y-48133484D01*
X39135554Y-48267000D01*
X39281644Y-48267000D01*
X30925644Y-56623000D01*
X30725554Y-56623000D01*
X30644982Y-56656374D01*
X32595758Y-54705599D01*
X32646017Y-54672017D01*
X32679599Y-54621758D01*
X32679601Y-54621756D01*
X32779070Y-54472889D01*
X32779071Y-54472888D01*
X32814000Y-54297288D01*
X32814000Y-54297284D01*
X32825792Y-54238001D01*
X32814000Y-54178718D01*
X32814000Y-48790264D01*
X32955484Y-48648780D01*
X33089000Y-48326446D01*
X33089000Y-47977554D01*
X32955484Y-47655220D01*
X32708780Y-47408516D01*
X32386446Y-47275000D01*
X32037554Y-47275000D01*
X31715220Y-47408516D01*
X31468516Y-47655220D01*
X31335000Y-47977554D01*
X31335000Y-48326446D01*
X31468516Y-48648780D01*
X31610000Y-48790264D01*
X31610000Y-49958644D01*
X31027000Y-49375644D01*
X31027000Y-49175554D01*
X30893484Y-48853220D01*
X30646780Y-48606516D01*
X30324446Y-48473000D01*
X29975554Y-48473000D01*
X29653220Y-48606516D01*
X29406516Y-48853220D01*
X29273000Y-49175554D01*
X29273000Y-49524446D01*
X29406516Y-49846780D01*
X29653220Y-50093484D01*
X29768501Y-50141235D01*
X29661736Y-50248000D01*
X29109283Y-50248000D01*
X29050000Y-50236208D01*
X28990717Y-50248000D01*
X28990712Y-50248000D01*
X28815112Y-50282929D01*
X28815110Y-50282930D01*
X28815111Y-50282930D01*
X28666244Y-50382399D01*
X28666242Y-50382401D01*
X28615983Y-50415983D01*
X28582401Y-50466242D01*
X27566245Y-51482399D01*
X27515983Y-51515983D01*
X27382929Y-51715113D01*
X27348000Y-51890713D01*
X27348000Y-51890717D01*
X27336208Y-51950000D01*
X27348000Y-52009283D01*
X27348001Y-64290712D01*
X27336208Y-64350000D01*
X27382930Y-64584888D01*
X27482399Y-64733755D01*
X27482402Y-64733758D01*
X27515984Y-64784017D01*
X27566243Y-64817599D01*
X28282401Y-65533758D01*
X28315983Y-65584017D01*
X28366242Y-65617599D01*
X28366244Y-65617601D01*
X28462599Y-65681983D01*
X28515112Y-65717071D01*
X28690712Y-65752000D01*
X28690717Y-65752000D01*
X28750000Y-65763792D01*
X28809283Y-65752000D01*
X36150644Y-65752000D01*
X37048000Y-66649357D01*
X37048001Y-72840712D01*
X37036208Y-72900000D01*
X37048001Y-72959288D01*
X37049385Y-72966244D01*
X37082930Y-73134888D01*
X37182399Y-73283755D01*
X37182402Y-73283758D01*
X37215984Y-73334017D01*
X37266243Y-73367599D01*
X37632401Y-73733757D01*
X37665983Y-73784017D01*
X37716242Y-73817599D01*
X37716244Y-73817601D01*
X37759914Y-73846780D01*
X37865112Y-73917071D01*
X38040712Y-73952000D01*
X38040716Y-73952000D01*
X38099999Y-73963792D01*
X38159282Y-73952000D01*
X38361736Y-73952000D01*
X38503220Y-74093484D01*
X38825554Y-74227000D01*
X39123000Y-74227000D01*
X39123000Y-74424446D01*
X39256516Y-74746780D01*
X39503220Y-74993484D01*
X39825554Y-75127000D01*
X40174446Y-75127000D01*
X40496780Y-74993484D01*
X40743484Y-74746780D01*
X40877000Y-74424446D01*
X40877000Y-74075554D01*
X40743484Y-73753220D01*
X40602000Y-73611736D01*
X40602000Y-73584400D01*
X40825554Y-73677000D01*
X41174446Y-73677000D01*
X41496780Y-73543484D01*
X41743484Y-73296780D01*
X41877000Y-72974446D01*
X41877000Y-72625554D01*
X41743484Y-72303220D01*
X41496780Y-72056516D01*
X41174446Y-71923000D01*
X41124356Y-71923000D01*
X39802000Y-70600644D01*
X39802000Y-68815554D01*
X40783000Y-68815554D01*
X40783000Y-69164446D01*
X40916516Y-69486780D01*
X41163220Y-69733484D01*
X41485554Y-69867000D01*
X41834446Y-69867000D01*
X42156780Y-69733484D01*
X42298264Y-69592000D01*
X43500717Y-69592000D01*
X43560000Y-69603792D01*
X43619283Y-69592000D01*
X43619288Y-69592000D01*
X43794888Y-69557071D01*
X43994017Y-69424017D01*
X44027601Y-69373755D01*
X44983758Y-68417599D01*
X45034017Y-68384017D01*
X45067599Y-68333758D01*
X45067601Y-68333756D01*
X45131983Y-68237401D01*
X45167071Y-68184888D01*
X45202000Y-68009288D01*
X45202000Y-68009284D01*
X45213792Y-67950001D01*
X45202000Y-67890718D01*
X45202000Y-57719282D01*
X45213792Y-57659999D01*
X45202000Y-57600716D01*
X45202000Y-57600712D01*
X45167071Y-57425112D01*
X45130235Y-57369983D01*
X45067601Y-57276244D01*
X45067599Y-57276242D01*
X45034017Y-57225983D01*
X44983758Y-57192401D01*
X43627000Y-55835644D01*
X43627000Y-55635554D01*
X43493484Y-55313220D01*
X43246780Y-55066516D01*
X42924446Y-54933000D01*
X42575554Y-54933000D01*
X42302000Y-55046311D01*
X42302000Y-53538264D01*
X42443484Y-53396780D01*
X42577000Y-53074446D01*
X42577000Y-52725554D01*
X42443484Y-52403220D01*
X42196780Y-52156516D01*
X41874446Y-52023000D01*
X41525554Y-52023000D01*
X41203220Y-52156516D01*
X40956516Y-52403220D01*
X40823000Y-52725554D01*
X40823000Y-53074446D01*
X40956516Y-53396780D01*
X41098001Y-53538265D01*
X41098000Y-56240717D01*
X41086208Y-56300000D01*
X41098000Y-56359283D01*
X41098000Y-56359287D01*
X41132929Y-56534887D01*
X41265983Y-56734017D01*
X41316245Y-56767601D01*
X43018001Y-58469358D01*
X43018000Y-67080643D01*
X43015643Y-67083000D01*
X42815554Y-67083000D01*
X42493220Y-67216516D01*
X42246516Y-67463220D01*
X42113000Y-67785554D01*
X42113000Y-68134446D01*
X42161289Y-68251025D01*
X42156780Y-68246516D01*
X41834446Y-68113000D01*
X41485554Y-68113000D01*
X41163220Y-68246516D01*
X40916516Y-68493220D01*
X40783000Y-68815554D01*
X39802000Y-68815554D01*
X39802000Y-55099356D01*
X40333758Y-54567599D01*
X40384017Y-54534017D01*
X40417599Y-54483758D01*
X40417601Y-54483756D01*
X40517070Y-54334889D01*
X40517071Y-54334888D01*
X40552000Y-54159288D01*
X40552000Y-54159284D01*
X40563792Y-54100001D01*
X40552000Y-54040718D01*
X40552000Y-52638264D01*
X40693484Y-52496780D01*
X40827000Y-52174446D01*
X40827000Y-51825554D01*
X40693484Y-51503220D01*
X40446780Y-51256516D01*
X40124446Y-51123000D01*
X39775554Y-51123000D01*
X39524271Y-51227086D01*
X50455758Y-40295599D01*
X50506017Y-40262017D01*
X50539599Y-40211758D01*
X50539601Y-40211756D01*
X50639070Y-40062889D01*
X50639071Y-40062888D01*
X50674000Y-39887288D01*
X50674000Y-39887283D01*
X50685792Y-39828000D01*
X50674000Y-39768717D01*
X50674000Y-32498780D01*
X58279357Y-24893424D01*
X61884038Y-24893424D01*
X61957771Y-25071432D01*
X62243615Y-25357276D01*
X62157343Y-25349728D01*
X61968708Y-25370387D01*
X61802339Y-25461660D01*
X61683563Y-25609652D01*
X61630462Y-25791833D01*
X61473582Y-27584983D01*
X61494241Y-27773618D01*
X61585514Y-27939987D01*
X61733506Y-28058763D01*
X61915687Y-28111864D01*
X63708837Y-28268744D01*
X63897472Y-28248085D01*
X64063841Y-28156812D01*
X64182617Y-28008820D01*
X64235718Y-27826639D01*
X64247398Y-27693139D01*
X64296060Y-27810620D01*
X64683416Y-28197976D01*
X65189522Y-28407612D01*
X65737326Y-28407612D01*
X66243432Y-28197976D01*
X66630788Y-27810620D01*
X66632034Y-27807612D01*
X66892863Y-27807612D01*
X66969388Y-27822834D01*
X67045913Y-27807612D01*
X67045914Y-27807612D01*
X67272558Y-27762530D01*
X67529574Y-27590798D01*
X67572926Y-27525917D01*
X68395305Y-26703538D01*
X68423000Y-26685033D01*
X68423000Y-31308406D01*
X59528621Y-31308406D01*
X59471793Y-31297102D01*
X59414965Y-31308406D01*
X59246660Y-31341884D01*
X59055800Y-31469412D01*
X59023608Y-31517591D01*
X55982186Y-34559014D01*
X55934007Y-34591206D01*
X55817225Y-34765983D01*
X55806479Y-34782066D01*
X55761696Y-35007200D01*
X55773001Y-35064033D01*
X55773001Y-39623000D01*
X51250000Y-39623000D01*
X51201399Y-39632667D01*
X51160197Y-39660197D01*
X51132667Y-39701399D01*
X51123000Y-39750000D01*
X51123000Y-75000000D01*
X51132667Y-75048601D01*
X51160197Y-75089803D01*
X51201399Y-75117333D01*
X51250000Y-75127000D01*
X55773000Y-75127000D01*
X55773000Y-80033646D01*
X55761696Y-80090474D01*
X55773000Y-80147302D01*
X55806478Y-80315607D01*
X55934006Y-80506468D01*
X55982188Y-80538662D01*
X57183814Y-81740289D01*
X56903220Y-81856516D01*
X56761736Y-81998000D01*
X50309357Y-81998000D01*
X48702000Y-80390644D01*
X48702000Y-72438264D01*
X48843484Y-72296780D01*
X48977000Y-71974446D01*
X48977000Y-71625554D01*
X48843484Y-71303220D01*
X48596780Y-71056516D01*
X48274446Y-70923000D01*
X47925554Y-70923000D01*
X47603220Y-71056516D01*
X47356516Y-71303220D01*
X47223000Y-71625554D01*
X47223000Y-71974446D01*
X47356516Y-72296780D01*
X47498000Y-72438264D01*
X47498001Y-80580712D01*
X47486208Y-80640000D01*
X47498001Y-80699288D01*
X47498143Y-80700000D01*
X47532930Y-80874888D01*
X47632399Y-81023755D01*
X47632402Y-81023758D01*
X47665984Y-81074017D01*
X47716243Y-81107599D01*
X49592401Y-82983758D01*
X49625983Y-83034017D01*
X49676242Y-83067599D01*
X49676244Y-83067601D01*
X49719914Y-83096780D01*
X49825112Y-83167071D01*
X50000712Y-83202000D01*
X50000713Y-83202000D01*
X50060000Y-83213793D01*
X50119287Y-83202000D01*
X56761736Y-83202000D01*
X56903220Y-83343484D01*
X57225554Y-83477000D01*
X57574446Y-83477000D01*
X57896780Y-83343484D01*
X58143484Y-83096780D01*
X58259711Y-82816186D01*
X58901816Y-83458292D01*
X58934006Y-83506468D01*
X58982182Y-83538658D01*
X58982183Y-83538659D01*
X59124865Y-83633996D01*
X59350000Y-83678778D01*
X59406829Y-83667474D01*
X68423001Y-83667474D01*
X68423000Y-99430200D01*
X54138479Y-99430200D01*
X54899170Y-98479336D01*
X54917333Y-98448601D01*
X54927000Y-98400000D01*
X54927000Y-98053349D01*
X55335183Y-97681358D01*
X55581486Y-97156892D01*
X55460819Y-96927000D01*
X54267000Y-96927000D01*
X54267000Y-96947000D01*
X54013000Y-96947000D01*
X54013000Y-96927000D01*
X53993000Y-96927000D01*
X53993000Y-96673000D01*
X54013000Y-96673000D01*
X54013000Y-96653000D01*
X54267000Y-96653000D01*
X54267000Y-96673000D01*
X55460819Y-96673000D01*
X55581486Y-96443108D01*
X55335183Y-95918642D01*
X54906924Y-95528355D01*
X54877000Y-95515961D01*
X54877000Y-94400000D01*
X55207778Y-94400000D01*
X55268082Y-94703170D01*
X55439814Y-94960186D01*
X55530549Y-95020813D01*
X55653220Y-95143484D01*
X55975554Y-95277000D01*
X56324446Y-95277000D01*
X56565866Y-95177000D01*
X56834134Y-95177000D01*
X57075554Y-95277000D01*
X57424446Y-95277000D01*
X57665866Y-95177000D01*
X64323475Y-95177000D01*
X64400000Y-95192222D01*
X64476525Y-95177000D01*
X64476526Y-95177000D01*
X64703170Y-95131918D01*
X64960186Y-94960186D01*
X65003538Y-94895305D01*
X66995309Y-92903535D01*
X67060186Y-92860186D01*
X67231918Y-92603170D01*
X67277000Y-92376526D01*
X67277000Y-92376525D01*
X67292222Y-92300001D01*
X67277000Y-92223476D01*
X67277000Y-89336344D01*
X67350000Y-89336344D01*
X67536116Y-89299323D01*
X67693897Y-89193897D01*
X67799323Y-89036116D01*
X67836344Y-88850000D01*
X67836344Y-87150000D01*
X67799323Y-86963884D01*
X67693897Y-86806103D01*
X67536116Y-86700677D01*
X67350000Y-86663656D01*
X67087138Y-86663656D01*
X67456713Y-86416713D01*
X67750006Y-85977770D01*
X67852997Y-85460000D01*
X67750006Y-84942230D01*
X67456713Y-84503287D01*
X67017770Y-84209994D01*
X66630696Y-84133000D01*
X66369304Y-84133000D01*
X65982230Y-84209994D01*
X65543287Y-84503287D01*
X65249994Y-84942230D01*
X65147003Y-85460000D01*
X65215903Y-85806384D01*
X65210197Y-85810197D01*
X65182667Y-85851399D01*
X65173000Y-85900000D01*
X65173000Y-87000000D01*
X65182667Y-87048601D01*
X65183560Y-87049937D01*
X65163656Y-87150000D01*
X65163656Y-88850000D01*
X65200677Y-89036116D01*
X65306103Y-89193897D01*
X65463884Y-89299323D01*
X65650000Y-89336344D01*
X65723001Y-89336344D01*
X65723000Y-91978156D01*
X64078157Y-93623000D01*
X57665866Y-93623000D01*
X57424446Y-93523000D01*
X57075554Y-93523000D01*
X56834134Y-93623000D01*
X56565866Y-93623000D01*
X56324446Y-93523000D01*
X55975554Y-93523000D01*
X55653220Y-93656516D01*
X55530549Y-93779187D01*
X55439814Y-93839814D01*
X55268082Y-94096830D01*
X55207778Y-94400000D01*
X54877000Y-94400000D01*
X54877000Y-93802606D01*
X61052606Y-87627000D01*
X63250000Y-87627000D01*
X63298601Y-87617333D01*
X63339803Y-87589803D01*
X63367333Y-87548601D01*
X63377000Y-87500000D01*
X63377000Y-86000000D01*
X63367333Y-85951399D01*
X63339803Y-85910197D01*
X63298601Y-85882667D01*
X63250000Y-85873000D01*
X60500000Y-85873000D01*
X60451399Y-85882667D01*
X60410197Y-85910197D01*
X53410197Y-92910197D01*
X53382667Y-92951399D01*
X53373000Y-93000000D01*
X53373000Y-95528424D01*
X52944817Y-95918642D01*
X52934483Y-95940646D01*
X52899323Y-95763884D01*
X52793897Y-95606103D01*
X52636116Y-95500677D01*
X52450000Y-95463656D01*
X50750000Y-95463656D01*
X50563884Y-95500677D01*
X50406103Y-95606103D01*
X50300677Y-95763884D01*
X50263656Y-95950000D01*
X50263656Y-97650000D01*
X50300677Y-97836116D01*
X50406103Y-97993897D01*
X50524489Y-98073000D01*
X49252606Y-98073000D01*
X48157852Y-96978246D01*
X48275554Y-97027000D01*
X48624446Y-97027000D01*
X48946780Y-96893484D01*
X49193484Y-96646780D01*
X49327000Y-96324446D01*
X49327000Y-95975554D01*
X49193484Y-95653220D01*
X49127000Y-95586736D01*
X49127000Y-95563264D01*
X49193484Y-95496780D01*
X49327000Y-95174446D01*
X49327000Y-94825554D01*
X49193484Y-94503220D01*
X49127000Y-94436736D01*
X49127000Y-91916676D01*
X49140263Y-91849999D01*
X49118346Y-91739815D01*
X49087720Y-91585848D01*
X48995613Y-91448000D01*
X48975859Y-91418436D01*
X48975858Y-91418435D01*
X48938089Y-91361910D01*
X48881565Y-91324142D01*
X45732976Y-88175554D01*
X46273000Y-88175554D01*
X46273000Y-88524446D01*
X46406516Y-88846780D01*
X46653220Y-89093484D01*
X46975554Y-89227000D01*
X47324446Y-89227000D01*
X47646780Y-89093484D01*
X47725000Y-89015264D01*
X47753220Y-89043484D01*
X48075554Y-89177000D01*
X48424446Y-89177000D01*
X48746780Y-89043484D01*
X48813264Y-88977000D01*
X54404844Y-88977000D01*
X54525554Y-89027000D01*
X54874446Y-89027000D01*
X55196780Y-88893484D01*
X55443484Y-88646780D01*
X55577000Y-88324446D01*
X55577000Y-87975554D01*
X55443484Y-87653220D01*
X55390264Y-87600000D01*
X55443484Y-87546780D01*
X55577000Y-87224446D01*
X55577000Y-86875554D01*
X55443484Y-86553220D01*
X55196780Y-86306516D01*
X54874446Y-86173000D01*
X54525554Y-86173000D01*
X54203220Y-86306516D01*
X53956516Y-86553220D01*
X53823000Y-86875554D01*
X53823000Y-87224446D01*
X53956516Y-87546780D01*
X54009736Y-87600000D01*
X53986736Y-87623000D01*
X48813264Y-87623000D01*
X48746780Y-87556516D01*
X48424446Y-87423000D01*
X48075554Y-87423000D01*
X47753220Y-87556516D01*
X47686736Y-87623000D01*
X47663264Y-87623000D01*
X47646780Y-87606516D01*
X47324446Y-87473000D01*
X46975554Y-87473000D01*
X46653220Y-87606516D01*
X46406516Y-87853220D01*
X46273000Y-88175554D01*
X45732976Y-88175554D01*
X45127000Y-87569579D01*
X45127000Y-86930421D01*
X45530422Y-86527000D01*
X47886736Y-86527000D01*
X47953220Y-86593484D01*
X48275554Y-86727000D01*
X48624446Y-86727000D01*
X48946780Y-86593484D01*
X49193484Y-86346780D01*
X49327000Y-86024446D01*
X49327000Y-85675554D01*
X49193484Y-85353220D01*
X49140264Y-85300000D01*
X49143484Y-85296780D01*
X49277000Y-84974446D01*
X49277000Y-84625554D01*
X49143484Y-84303220D01*
X48896780Y-84056516D01*
X48574446Y-83923000D01*
X48225554Y-83923000D01*
X47903220Y-84056516D01*
X47656516Y-84303220D01*
X47523000Y-84625554D01*
X47523000Y-84974446D01*
X47605244Y-85173000D01*
X45316676Y-85173000D01*
X45250000Y-85159737D01*
X45183323Y-85173000D01*
X45183322Y-85173000D01*
X44985848Y-85212280D01*
X44761910Y-85361910D01*
X44724138Y-85418440D01*
X44018440Y-86124138D01*
X43961910Y-86161911D01*
X43812280Y-86385849D01*
X43778988Y-86553220D01*
X43759737Y-86650000D01*
X43773000Y-86716677D01*
X43773001Y-87633495D01*
X42891776Y-86712215D01*
X42848601Y-86682667D01*
X42800000Y-86673000D01*
X40400000Y-86673000D01*
X40351399Y-86682667D01*
X40310197Y-86710197D01*
X40282667Y-86751399D01*
X40273000Y-86800000D01*
X40273000Y-88200000D01*
X40282667Y-88248601D01*
X40310197Y-88289803D01*
X40351399Y-88317333D01*
X40400000Y-88327000D01*
X42345571Y-88327000D01*
X46273000Y-92450800D01*
X46273000Y-92771644D01*
X44517600Y-91016244D01*
X44484017Y-90965983D01*
X44284888Y-90832929D01*
X44109288Y-90798000D01*
X44109283Y-90798000D01*
X44050000Y-90786208D01*
X43990717Y-90798000D01*
X39899357Y-90798000D01*
X38502000Y-89400644D01*
X38502000Y-87259283D01*
X38513792Y-87200000D01*
X38502000Y-87140717D01*
X38502000Y-87140712D01*
X38467071Y-86965112D01*
X38407230Y-86875554D01*
X38367601Y-86816244D01*
X38367599Y-86816242D01*
X38334017Y-86765983D01*
X38283758Y-86732401D01*
X37867600Y-86316244D01*
X37834017Y-86265983D01*
X37634888Y-86132929D01*
X37459288Y-86098000D01*
X37459283Y-86098000D01*
X37400000Y-86086208D01*
X37340717Y-86098000D01*
X34099357Y-86098000D01*
X33702000Y-85700644D01*
X33702000Y-82959287D01*
X33713793Y-82900000D01*
X33701032Y-82835848D01*
X33667071Y-82665112D01*
X33625716Y-82603220D01*
X33567601Y-82516244D01*
X33567599Y-82516242D01*
X33534017Y-82465983D01*
X33483758Y-82432401D01*
X32977000Y-81925644D01*
X32977000Y-81725554D01*
X32947914Y-81655336D01*
X34724138Y-83431560D01*
X34761910Y-83488090D01*
X34985848Y-83637720D01*
X35183322Y-83677000D01*
X35183323Y-83677000D01*
X35249999Y-83690263D01*
X35316676Y-83677000D01*
X36486736Y-83677000D01*
X36553220Y-83743484D01*
X36875554Y-83877000D01*
X37224446Y-83877000D01*
X37546780Y-83743484D01*
X37575000Y-83715264D01*
X37603220Y-83743484D01*
X37925554Y-83877000D01*
X38274446Y-83877000D01*
X38596780Y-83743484D01*
X38798000Y-83542264D01*
X38798001Y-85111735D01*
X38656516Y-85253220D01*
X38523000Y-85575554D01*
X38523000Y-85924446D01*
X38656516Y-86246780D01*
X38903220Y-86493484D01*
X39225554Y-86627000D01*
X39574446Y-86627000D01*
X39896780Y-86493484D01*
X40143484Y-86246780D01*
X40277000Y-85924446D01*
X40277000Y-85575554D01*
X40143484Y-85253220D01*
X40002000Y-85111736D01*
X40002000Y-83850843D01*
X40206516Y-84055359D01*
X40306516Y-84296780D01*
X40553220Y-84543484D01*
X40875554Y-84677000D01*
X41224446Y-84677000D01*
X41546780Y-84543484D01*
X41793484Y-84296780D01*
X41927000Y-83974446D01*
X41927000Y-83625554D01*
X41793484Y-83303220D01*
X41777000Y-83286736D01*
X41777000Y-82331132D01*
X46803441Y-77304692D01*
X46864136Y-77264137D01*
X46904692Y-77203441D01*
X46904694Y-77203439D01*
X47024818Y-77023661D01*
X47032756Y-76983756D01*
X47067000Y-76811599D01*
X47067000Y-76811595D01*
X47081241Y-76740000D01*
X47067000Y-76668405D01*
X47067000Y-58241264D01*
X47119220Y-58293484D01*
X47441554Y-58427000D01*
X47790446Y-58427000D01*
X48112780Y-58293484D01*
X48359484Y-58046780D01*
X48493000Y-57724446D01*
X48493000Y-57375554D01*
X48359484Y-57053220D01*
X48218000Y-56911736D01*
X48218000Y-49163356D01*
X50031758Y-47349599D01*
X50082017Y-47316017D01*
X50115599Y-47265758D01*
X50115601Y-47265756D01*
X50215070Y-47116889D01*
X50215071Y-47116888D01*
X50250000Y-46941288D01*
X50250000Y-46941283D01*
X50261792Y-46882000D01*
X50250000Y-46822717D01*
X50250000Y-43964264D01*
X50391484Y-43822780D01*
X50525000Y-43500446D01*
X50525000Y-43151554D01*
X50391484Y-42829220D01*
X50144780Y-42582516D01*
X49822446Y-42449000D01*
X49473554Y-42449000D01*
X49151220Y-42582516D01*
X48904516Y-42829220D01*
X48771000Y-43151554D01*
X48771000Y-43350736D01*
X48636780Y-43216516D01*
X48314446Y-43083000D01*
X47965554Y-43083000D01*
X47643220Y-43216516D01*
X47396516Y-43463220D01*
X47263000Y-43785554D01*
X47263000Y-44134446D01*
X47396516Y-44456780D01*
X47423001Y-44483265D01*
X47423000Y-44536736D01*
X47406516Y-44553220D01*
X47273000Y-44875554D01*
X47273000Y-44898866D01*
X45876562Y-46295306D01*
X45815864Y-46335863D01*
X45775307Y-46396561D01*
X45775306Y-46396562D01*
X45655182Y-46576340D01*
X45598759Y-46860000D01*
X45613001Y-46931600D01*
X45613000Y-76438867D01*
X40853518Y-81198350D01*
X40852000Y-81190717D01*
X40852000Y-81190712D01*
X40817071Y-81015112D01*
X40777918Y-80956516D01*
X40717601Y-80866244D01*
X40717599Y-80866242D01*
X40684017Y-80815983D01*
X40633758Y-80782401D01*
X36952000Y-77100644D01*
X36952000Y-76738264D01*
X37093484Y-76596780D01*
X37227000Y-76274446D01*
X37227000Y-75925554D01*
X37093484Y-75603220D01*
X36846780Y-75356516D01*
X36524446Y-75223000D01*
X36175554Y-75223000D01*
X35853220Y-75356516D01*
X35606516Y-75603220D01*
X35473000Y-75925554D01*
X35473000Y-76274446D01*
X35606516Y-76596780D01*
X35748001Y-76738265D01*
X35748001Y-77290713D01*
X35736208Y-77350000D01*
X35782930Y-77584888D01*
X35882399Y-77733755D01*
X35882402Y-77733758D01*
X35915984Y-77784017D01*
X35966243Y-77817599D01*
X37346644Y-79198000D01*
X28599357Y-79198000D01*
X28102000Y-78700644D01*
X28102000Y-74009282D01*
X28113792Y-73949999D01*
X28102000Y-73890716D01*
X28102000Y-73890712D01*
X28067071Y-73715112D01*
X27979301Y-73583755D01*
X27967601Y-73566244D01*
X27967599Y-73566242D01*
X27934017Y-73515983D01*
X27883758Y-73482401D01*
X27352000Y-72950644D01*
X27352000Y-72488264D01*
X27493484Y-72346780D01*
X27627000Y-72024446D01*
X27627000Y-71675554D01*
X27493484Y-71353220D01*
X27246780Y-71106516D01*
X26924446Y-70973000D01*
X26575554Y-70973000D01*
X26494982Y-71006374D01*
X27649357Y-69852000D01*
X27771736Y-69852000D01*
X27913220Y-69993484D01*
X28235554Y-70127000D01*
X28584446Y-70127000D01*
X28906780Y-69993484D01*
X29153484Y-69746780D01*
X29287000Y-69424446D01*
X29287000Y-69075554D01*
X29153484Y-68753220D01*
X28906780Y-68506516D01*
X28584446Y-68373000D01*
X28235554Y-68373000D01*
X27913220Y-68506516D01*
X27771736Y-68648000D01*
X27459282Y-68648000D01*
X27404294Y-68637062D01*
X28189357Y-67852000D01*
X28881736Y-67852000D01*
X29023220Y-67993484D01*
X29345554Y-68127000D01*
X29694446Y-68127000D01*
X30016780Y-67993484D01*
X30263484Y-67746780D01*
X30397000Y-67424446D01*
X30397000Y-67075554D01*
X30263484Y-66753220D01*
X30016780Y-66506516D01*
X29694446Y-66373000D01*
X29345554Y-66373000D01*
X29023220Y-66506516D01*
X28881736Y-66648000D01*
X27999283Y-66648000D01*
X27940000Y-66636208D01*
X27880717Y-66648000D01*
X27880712Y-66648000D01*
X27705112Y-66682929D01*
X27705110Y-66682930D01*
X27705111Y-66682930D01*
X27556244Y-66782399D01*
X27556242Y-66782401D01*
X27505983Y-66815983D01*
X27472401Y-66866242D01*
X26152000Y-68186643D01*
X26152000Y-64949356D01*
X26583757Y-64517599D01*
X26634017Y-64484017D01*
X26667599Y-64433758D01*
X26667601Y-64433756D01*
X26746876Y-64315112D01*
X26767071Y-64284888D01*
X26802000Y-64109288D01*
X26802000Y-64109283D01*
X26813792Y-64050000D01*
X26802000Y-63990717D01*
X26802000Y-37309283D01*
X26813792Y-37250000D01*
X26802000Y-37190717D01*
X26802000Y-37190712D01*
X26767071Y-37015112D01*
X26731983Y-36962599D01*
X26667601Y-36866244D01*
X26667599Y-36866242D01*
X26634017Y-36815983D01*
X26583758Y-36782401D01*
X26142000Y-36340644D01*
X26142000Y-32632696D01*
X26411335Y-32632696D01*
X26443035Y-33804192D01*
X26643516Y-34958842D01*
X27008577Y-36072457D01*
X27530572Y-37121708D01*
X28198565Y-38084617D01*
X28998564Y-38941011D01*
X29913809Y-39672950D01*
X30925127Y-40265101D01*
X32011333Y-40705060D01*
X33149673Y-40983610D01*
X34316301Y-41094916D01*
X35486776Y-41036646D01*
X36636580Y-40810021D01*
X37741626Y-40419789D01*
X38778765Y-39874124D01*
X39726271Y-39184456D01*
X40564294Y-38365235D01*
X41275281Y-37433619D01*
X41844335Y-36409127D01*
X42259538Y-35313219D01*
X42512190Y-34168852D01*
X42597000Y-33000000D01*
X42585151Y-32562124D01*
X42437256Y-31399569D01*
X42123087Y-30270540D01*
X41649227Y-29198689D01*
X41025601Y-28206469D01*
X40265275Y-27314667D01*
X39384175Y-26541963D01*
X38400759Y-25904545D01*
X37335629Y-25415765D01*
X36211097Y-25085864D01*
X35050720Y-24921750D01*
X33878806Y-24926864D01*
X32719905Y-25101097D01*
X31598295Y-25440799D01*
X30537470Y-25938855D01*
X29559655Y-26584831D01*
X28685331Y-27365194D01*
X27932816Y-28263598D01*
X27317873Y-29261221D01*
X26853385Y-30337167D01*
X26549080Y-31468894D01*
X26411335Y-32632696D01*
X26142000Y-32632696D01*
X26142000Y-28689356D01*
X30109357Y-24722000D01*
X42340717Y-24722000D01*
X42400000Y-24733792D01*
X42459283Y-24722000D01*
X42459288Y-24722000D01*
X42634888Y-24687071D01*
X42834017Y-24554017D01*
X42867601Y-24503755D01*
X43933758Y-23437599D01*
X43984017Y-23404017D01*
X44017599Y-23353758D01*
X44017601Y-23353756D01*
X44117070Y-23204889D01*
X44117071Y-23204888D01*
X44152000Y-23029288D01*
X44152000Y-23029287D01*
X44163793Y-22970000D01*
X44152000Y-22910713D01*
X44152000Y-22438264D01*
X44293484Y-22296780D01*
X44427000Y-21974446D01*
X44427000Y-21625554D01*
X44293484Y-21303220D01*
X44046780Y-21056516D01*
X43724446Y-20923000D01*
X43375554Y-20923000D01*
X43053220Y-21056516D01*
X42806516Y-21303220D01*
X42673000Y-21625554D01*
X42673000Y-21974446D01*
X42806516Y-22296780D01*
X42948000Y-22438264D01*
X42948000Y-22720643D01*
X42150644Y-23518000D01*
X29919287Y-23518000D01*
X29860000Y-23506207D01*
X29800713Y-23518000D01*
X29800712Y-23518000D01*
X29625112Y-23552929D01*
X29592365Y-23574810D01*
X29476244Y-23652399D01*
X29476242Y-23652401D01*
X29425983Y-23685983D01*
X29392401Y-23736242D01*
X25156243Y-27972401D01*
X25105984Y-28005983D01*
X25072402Y-28056242D01*
X25072399Y-28056245D01*
X24972930Y-28205112D01*
X24926208Y-28440000D01*
X24938001Y-28499288D01*
X24938000Y-36530717D01*
X24926208Y-36590000D01*
X24938000Y-36649283D01*
X24938000Y-36649287D01*
X24972929Y-36824887D01*
X25105983Y-37024017D01*
X25156245Y-37057601D01*
X25598000Y-37499357D01*
X25598001Y-63800642D01*
X25166243Y-64232401D01*
X25163175Y-64234451D01*
X25162576Y-64233554D01*
X25117601Y-64166244D01*
X25117599Y-64166242D01*
X25084017Y-64115983D01*
X25033758Y-64082401D01*
X23182000Y-62230644D01*
X23182000Y-22789356D01*
X24414357Y-21557000D01*
X24614446Y-21557000D01*
X24936780Y-21423484D01*
X25183484Y-21176780D01*
X25317000Y-20854446D01*
X25317000Y-20505554D01*
X25183484Y-20183220D01*
X24936780Y-19936516D01*
X24614446Y-19803000D01*
X24265554Y-19803000D01*
X23943220Y-19936516D01*
X23696516Y-20183220D01*
X23563000Y-20505554D01*
X23563000Y-20705643D01*
X22196243Y-22072401D01*
X22145984Y-22105983D01*
X22112402Y-22156242D01*
X22112399Y-22156245D01*
X22047298Y-22253677D01*
X22012930Y-22305112D01*
X21982384Y-22458680D01*
X21966208Y-22540000D01*
X21978001Y-22599288D01*
X21978001Y-39411605D01*
X21874017Y-39255983D01*
X21823755Y-39222399D01*
X18549028Y-35947672D01*
X18549028Y-20414618D01*
X18600975Y-20540029D01*
X18988331Y-20927385D01*
X19494437Y-21137021D01*
X20042241Y-21137021D01*
X20548347Y-20927385D01*
X20935703Y-20540029D01*
X21145339Y-20033923D01*
X21145339Y-19486119D01*
X21096677Y-19368639D01*
X21199334Y-19454778D01*
G36*
X9798000Y-86961736D02*
X9656516Y-87103220D01*
X9523000Y-87425554D01*
X9523000Y-87774446D01*
X9656516Y-88096780D01*
X9798000Y-88238264D01*
X9798001Y-88900642D01*
X9400644Y-89298000D01*
X5609282Y-89298000D01*
X5549999Y-89286208D01*
X5490716Y-89298000D01*
X5490712Y-89298000D01*
X5315112Y-89332929D01*
X5315111Y-89332930D01*
X5315110Y-89332930D01*
X5310001Y-89336344D01*
X5115983Y-89465983D01*
X5082399Y-89516245D01*
X3516245Y-91082399D01*
X3465983Y-91115983D01*
X3332929Y-91315113D01*
X3298000Y-91490713D01*
X3298000Y-91490717D01*
X3286208Y-91550000D01*
X3298000Y-91609283D01*
X3298001Y-93682388D01*
X3262280Y-93735848D01*
X3209737Y-94000000D01*
X3262280Y-94264152D01*
X3298000Y-94317611D01*
X3298000Y-94423864D01*
X3288884Y-94425677D01*
X3251962Y-94450348D01*
X3251943Y-94450335D01*
X2988838Y-94398000D01*
X2811162Y-94398000D01*
X2548057Y-94450335D01*
X2400000Y-94549263D01*
X2251943Y-94450335D01*
X1988838Y-94398000D01*
X1811162Y-94398000D01*
X1548057Y-94450335D01*
X1249694Y-94649694D01*
X1050335Y-94948057D01*
X980329Y-95300000D01*
X1050335Y-95651943D01*
X1149263Y-95800000D01*
X1050335Y-95948057D01*
X980329Y-96300000D01*
X1050335Y-96651943D01*
X1249694Y-96950306D01*
X1548057Y-97149665D01*
X1811162Y-97202000D01*
X1988838Y-97202000D01*
X2251943Y-97149665D01*
X2275678Y-97133806D01*
X2384174Y-97226041D01*
X2609938Y-97319540D01*
X2773000Y-97192257D01*
X2773000Y-96534630D01*
X2819671Y-96300000D01*
X2799725Y-96199725D01*
X2811162Y-96202000D01*
X2988838Y-96202000D01*
X3000275Y-96199725D01*
X2980329Y-96300000D01*
X3027000Y-96534630D01*
X3027000Y-97192257D01*
X3190062Y-97319540D01*
X3415826Y-97226041D01*
X3524322Y-97133806D01*
X3548057Y-97149665D01*
X3811162Y-97202000D01*
X3988838Y-97202000D01*
X4251943Y-97149665D01*
X4550306Y-96950306D01*
X4749665Y-96651943D01*
X4819671Y-96300000D01*
X4749665Y-95948057D01*
X4749652Y-95948038D01*
X4774323Y-95911116D01*
X4811344Y-95725000D01*
X4811344Y-94875000D01*
X4774323Y-94688884D01*
X4766382Y-94677000D01*
X8932736Y-94677000D01*
X8856516Y-94753220D01*
X8723000Y-95075554D01*
X8723000Y-95424446D01*
X8830926Y-95685000D01*
X8765548Y-95685000D01*
X8310163Y-95873627D01*
X7961627Y-96222163D01*
X7773000Y-96677548D01*
X7773000Y-97170452D01*
X7961627Y-97625837D01*
X8013495Y-97677705D01*
X6261000Y-99430200D01*
X577000Y-99430200D01*
X577000Y-83667474D01*
X9593172Y-83667474D01*
X9650000Y-83678778D01*
X9706828Y-83667474D01*
X9706829Y-83667474D01*
X9798001Y-83649339D01*
X9798000Y-86961736D01*
X9798000Y-86961736D01*
G37*
X9798000Y-86961736D02*
X9656516Y-87103220D01*
X9523000Y-87425554D01*
X9523000Y-87774446D01*
X9656516Y-88096780D01*
X9798000Y-88238264D01*
X9798001Y-88900642D01*
X9400644Y-89298000D01*
X5609282Y-89298000D01*
X5549999Y-89286208D01*
X5490716Y-89298000D01*
X5490712Y-89298000D01*
X5315112Y-89332929D01*
X5315111Y-89332930D01*
X5315110Y-89332930D01*
X5310001Y-89336344D01*
X5115983Y-89465983D01*
X5082399Y-89516245D01*
X3516245Y-91082399D01*
X3465983Y-91115983D01*
X3332929Y-91315113D01*
X3298000Y-91490713D01*
X3298000Y-91490717D01*
X3286208Y-91550000D01*
X3298000Y-91609283D01*
X3298001Y-93682388D01*
X3262280Y-93735848D01*
X3209737Y-94000000D01*
X3262280Y-94264152D01*
X3298000Y-94317611D01*
X3298000Y-94423864D01*
X3288884Y-94425677D01*
X3251962Y-94450348D01*
X3251943Y-94450335D01*
X2988838Y-94398000D01*
X2811162Y-94398000D01*
X2548057Y-94450335D01*
X2400000Y-94549263D01*
X2251943Y-94450335D01*
X1988838Y-94398000D01*
X1811162Y-94398000D01*
X1548057Y-94450335D01*
X1249694Y-94649694D01*
X1050335Y-94948057D01*
X980329Y-95300000D01*
X1050335Y-95651943D01*
X1149263Y-95800000D01*
X1050335Y-95948057D01*
X980329Y-96300000D01*
X1050335Y-96651943D01*
X1249694Y-96950306D01*
X1548057Y-97149665D01*
X1811162Y-97202000D01*
X1988838Y-97202000D01*
X2251943Y-97149665D01*
X2275678Y-97133806D01*
X2384174Y-97226041D01*
X2609938Y-97319540D01*
X2773000Y-97192257D01*
X2773000Y-96534630D01*
X2819671Y-96300000D01*
X2799725Y-96199725D01*
X2811162Y-96202000D01*
X2988838Y-96202000D01*
X3000275Y-96199725D01*
X2980329Y-96300000D01*
X3027000Y-96534630D01*
X3027000Y-97192257D01*
X3190062Y-97319540D01*
X3415826Y-97226041D01*
X3524322Y-97133806D01*
X3548057Y-97149665D01*
X3811162Y-97202000D01*
X3988838Y-97202000D01*
X4251943Y-97149665D01*
X4550306Y-96950306D01*
X4749665Y-96651943D01*
X4819671Y-96300000D01*
X4749665Y-95948057D01*
X4749652Y-95948038D01*
X4774323Y-95911116D01*
X4811344Y-95725000D01*
X4811344Y-94875000D01*
X4774323Y-94688884D01*
X4766382Y-94677000D01*
X8932736Y-94677000D01*
X8856516Y-94753220D01*
X8723000Y-95075554D01*
X8723000Y-95424446D01*
X8830926Y-95685000D01*
X8765548Y-95685000D01*
X8310163Y-95873627D01*
X7961627Y-96222163D01*
X7773000Y-96677548D01*
X7773000Y-97170452D01*
X7961627Y-97625837D01*
X8013495Y-97677705D01*
X6261000Y-99430200D01*
X577000Y-99430200D01*
X577000Y-83667474D01*
X9593172Y-83667474D01*
X9650000Y-83678778D01*
X9706828Y-83667474D01*
X9706829Y-83667474D01*
X9798001Y-83649339D01*
X9798000Y-86961736D01*
G36*
X32403220Y-89093484D02*
X32725554Y-89227000D01*
X33074446Y-89227000D01*
X33173000Y-89186177D01*
X33173001Y-94623470D01*
X33157778Y-94700000D01*
X33207120Y-94948057D01*
X33218083Y-95003170D01*
X33389815Y-95260186D01*
X33454693Y-95303536D01*
X35646464Y-97495308D01*
X35689814Y-97560186D01*
X35946830Y-97731918D01*
X36173474Y-97777000D01*
X36249999Y-97792222D01*
X36326524Y-97777000D01*
X37663656Y-97777000D01*
X37663656Y-97850000D01*
X37700677Y-98036116D01*
X37806103Y-98193897D01*
X37963884Y-98299323D01*
X38150000Y-98336344D01*
X39850000Y-98336344D01*
X40036116Y-98299323D01*
X40193897Y-98193897D01*
X40299323Y-98036116D01*
X40334483Y-97859354D01*
X40344817Y-97881358D01*
X40773076Y-98271645D01*
X41183110Y-98441476D01*
X41413000Y-98320155D01*
X41413000Y-97127000D01*
X41393000Y-97127000D01*
X41393000Y-96873000D01*
X41413000Y-96873000D01*
X41413000Y-96853000D01*
X41667000Y-96853000D01*
X41667000Y-96873000D01*
X41687000Y-96873000D01*
X41687000Y-97127000D01*
X41667000Y-97127000D01*
X41667000Y-98320155D01*
X41896890Y-98441476D01*
X42306924Y-98271645D01*
X42735183Y-97881358D01*
X42874590Y-97584512D01*
X43123287Y-97956713D01*
X43562230Y-98250006D01*
X43949304Y-98327000D01*
X44210696Y-98327000D01*
X44597770Y-98250006D01*
X45036713Y-97956713D01*
X45273725Y-97602000D01*
X45640717Y-97602000D01*
X45700000Y-97613792D01*
X45759283Y-97602000D01*
X45759288Y-97602000D01*
X45934888Y-97567071D01*
X46134017Y-97434017D01*
X46167601Y-97383755D01*
X46378626Y-97172730D01*
X48259850Y-99430200D01*
X15739001Y-99430200D01*
X13948188Y-97639388D01*
X13915994Y-97591206D01*
X13725134Y-97463678D01*
X13556829Y-97430200D01*
X13556828Y-97430200D01*
X13500000Y-97418896D01*
X13443172Y-97430200D01*
X13191409Y-97430200D01*
X13299000Y-97170452D01*
X13299000Y-96677548D01*
X13110373Y-96222163D01*
X12815210Y-95927000D01*
X18783324Y-95927000D01*
X18850000Y-95940263D01*
X18916676Y-95927000D01*
X18916678Y-95927000D01*
X19114152Y-95887720D01*
X19338090Y-95738090D01*
X19375864Y-95681557D01*
X21831563Y-93225860D01*
X21888090Y-93188090D01*
X21923000Y-93135843D01*
X21923000Y-95923475D01*
X21907778Y-96000000D01*
X21923000Y-96076525D01*
X21968082Y-96303169D01*
X22139814Y-96560186D01*
X22204695Y-96603538D01*
X23096464Y-97495308D01*
X23139814Y-97560186D01*
X23274231Y-97650000D01*
X23396829Y-97731918D01*
X23663656Y-97784993D01*
X23663656Y-97850000D01*
X23700677Y-98036116D01*
X23806103Y-98193897D01*
X23963884Y-98299323D01*
X24150000Y-98336344D01*
X25850000Y-98336344D01*
X26036116Y-98299323D01*
X26193897Y-98193897D01*
X26299323Y-98036116D01*
X26334483Y-97859354D01*
X26344817Y-97881358D01*
X26773076Y-98271645D01*
X27183110Y-98441476D01*
X27413000Y-98320155D01*
X27413000Y-97127000D01*
X27393000Y-97127000D01*
X27393000Y-96873000D01*
X27413000Y-96873000D01*
X27413000Y-96853000D01*
X27667000Y-96853000D01*
X27667000Y-96873000D01*
X27687000Y-96873000D01*
X27687000Y-97127000D01*
X27667000Y-97127000D01*
X27667000Y-98320155D01*
X27896890Y-98441476D01*
X28306924Y-98271645D01*
X28735183Y-97881358D01*
X28874590Y-97584512D01*
X29123287Y-97956713D01*
X29562230Y-98250006D01*
X29949304Y-98327000D01*
X30210696Y-98327000D01*
X30597770Y-98250006D01*
X31036713Y-97956713D01*
X31291266Y-97575748D01*
X31334888Y-97567071D01*
X31534017Y-97434017D01*
X31567601Y-97383755D01*
X32033755Y-96917601D01*
X32084017Y-96884017D01*
X32171080Y-96753718D01*
X32217070Y-96684890D01*
X32217070Y-96684889D01*
X32217071Y-96684888D01*
X32252000Y-96509288D01*
X32252000Y-96509284D01*
X32263792Y-96450001D01*
X32252000Y-96390718D01*
X32252000Y-88942264D01*
X32403220Y-89093484D01*
X32403220Y-89093484D01*
G37*
X32403220Y-89093484D02*
X32725554Y-89227000D01*
X33074446Y-89227000D01*
X33173000Y-89186177D01*
X33173001Y-94623470D01*
X33157778Y-94700000D01*
X33207120Y-94948057D01*
X33218083Y-95003170D01*
X33389815Y-95260186D01*
X33454693Y-95303536D01*
X35646464Y-97495308D01*
X35689814Y-97560186D01*
X35946830Y-97731918D01*
X36173474Y-97777000D01*
X36249999Y-97792222D01*
X36326524Y-97777000D01*
X37663656Y-97777000D01*
X37663656Y-97850000D01*
X37700677Y-98036116D01*
X37806103Y-98193897D01*
X37963884Y-98299323D01*
X38150000Y-98336344D01*
X39850000Y-98336344D01*
X40036116Y-98299323D01*
X40193897Y-98193897D01*
X40299323Y-98036116D01*
X40334483Y-97859354D01*
X40344817Y-97881358D01*
X40773076Y-98271645D01*
X41183110Y-98441476D01*
X41413000Y-98320155D01*
X41413000Y-97127000D01*
X41393000Y-97127000D01*
X41393000Y-96873000D01*
X41413000Y-96873000D01*
X41413000Y-96853000D01*
X41667000Y-96853000D01*
X41667000Y-96873000D01*
X41687000Y-96873000D01*
X41687000Y-97127000D01*
X41667000Y-97127000D01*
X41667000Y-98320155D01*
X41896890Y-98441476D01*
X42306924Y-98271645D01*
X42735183Y-97881358D01*
X42874590Y-97584512D01*
X43123287Y-97956713D01*
X43562230Y-98250006D01*
X43949304Y-98327000D01*
X44210696Y-98327000D01*
X44597770Y-98250006D01*
X45036713Y-97956713D01*
X45273725Y-97602000D01*
X45640717Y-97602000D01*
X45700000Y-97613792D01*
X45759283Y-97602000D01*
X45759288Y-97602000D01*
X45934888Y-97567071D01*
X46134017Y-97434017D01*
X46167601Y-97383755D01*
X46378626Y-97172730D01*
X48259850Y-99430200D01*
X15739001Y-99430200D01*
X13948188Y-97639388D01*
X13915994Y-97591206D01*
X13725134Y-97463678D01*
X13556829Y-97430200D01*
X13556828Y-97430200D01*
X13500000Y-97418896D01*
X13443172Y-97430200D01*
X13191409Y-97430200D01*
X13299000Y-97170452D01*
X13299000Y-96677548D01*
X13110373Y-96222163D01*
X12815210Y-95927000D01*
X18783324Y-95927000D01*
X18850000Y-95940263D01*
X18916676Y-95927000D01*
X18916678Y-95927000D01*
X19114152Y-95887720D01*
X19338090Y-95738090D01*
X19375864Y-95681557D01*
X21831563Y-93225860D01*
X21888090Y-93188090D01*
X21923000Y-93135843D01*
X21923000Y-95923475D01*
X21907778Y-96000000D01*
X21923000Y-96076525D01*
X21968082Y-96303169D01*
X22139814Y-96560186D01*
X22204695Y-96603538D01*
X23096464Y-97495308D01*
X23139814Y-97560186D01*
X23274231Y-97650000D01*
X23396829Y-97731918D01*
X23663656Y-97784993D01*
X23663656Y-97850000D01*
X23700677Y-98036116D01*
X23806103Y-98193897D01*
X23963884Y-98299323D01*
X24150000Y-98336344D01*
X25850000Y-98336344D01*
X26036116Y-98299323D01*
X26193897Y-98193897D01*
X26299323Y-98036116D01*
X26334483Y-97859354D01*
X26344817Y-97881358D01*
X26773076Y-98271645D01*
X27183110Y-98441476D01*
X27413000Y-98320155D01*
X27413000Y-97127000D01*
X27393000Y-97127000D01*
X27393000Y-96873000D01*
X27413000Y-96873000D01*
X27413000Y-96853000D01*
X27667000Y-96853000D01*
X27667000Y-96873000D01*
X27687000Y-96873000D01*
X27687000Y-97127000D01*
X27667000Y-97127000D01*
X27667000Y-98320155D01*
X27896890Y-98441476D01*
X28306924Y-98271645D01*
X28735183Y-97881358D01*
X28874590Y-97584512D01*
X29123287Y-97956713D01*
X29562230Y-98250006D01*
X29949304Y-98327000D01*
X30210696Y-98327000D01*
X30597770Y-98250006D01*
X31036713Y-97956713D01*
X31291266Y-97575748D01*
X31334888Y-97567071D01*
X31534017Y-97434017D01*
X31567601Y-97383755D01*
X32033755Y-96917601D01*
X32084017Y-96884017D01*
X32171080Y-96753718D01*
X32217070Y-96684890D01*
X32217070Y-96684889D01*
X32217071Y-96684888D01*
X32252000Y-96509288D01*
X32252000Y-96509284D01*
X32263792Y-96450001D01*
X32252000Y-96390718D01*
X32252000Y-88942264D01*
X32403220Y-89093484D01*
G36*
X28006516Y-82196780D02*
X28253220Y-82443484D01*
X28545277Y-82564459D01*
X28356516Y-82753220D01*
X28223000Y-83075554D01*
X28223000Y-83424446D01*
X28356516Y-83746780D01*
X28603220Y-83993484D01*
X28925554Y-84127000D01*
X29125644Y-84127000D01*
X29478001Y-84479358D01*
X29478000Y-93266275D01*
X29123287Y-93503287D01*
X28829994Y-93942230D01*
X28810000Y-94042746D01*
X28790006Y-93942230D01*
X28496713Y-93503287D01*
X28057770Y-93209994D01*
X27670696Y-93133000D01*
X27409304Y-93133000D01*
X27022230Y-93209994D01*
X26583287Y-93503287D01*
X26289994Y-93942230D01*
X26270000Y-94042746D01*
X26250006Y-93942230D01*
X25956713Y-93503287D01*
X25827000Y-93416615D01*
X25827000Y-89165467D01*
X25975554Y-89227000D01*
X26324446Y-89227000D01*
X26646780Y-89093484D01*
X26893484Y-88846780D01*
X27027000Y-88524446D01*
X27027000Y-88175554D01*
X26893484Y-87853220D01*
X26646780Y-87606516D01*
X26324446Y-87473000D01*
X25975554Y-87473000D01*
X25734134Y-87573000D01*
X25465866Y-87573000D01*
X25224446Y-87473000D01*
X24875554Y-87473000D01*
X24553220Y-87606516D01*
X24325000Y-87834736D01*
X24146780Y-87656516D01*
X23824446Y-87523000D01*
X23475554Y-87523000D01*
X23234134Y-87623000D01*
X23115866Y-87623000D01*
X22874446Y-87523000D01*
X22525554Y-87523000D01*
X22203220Y-87656516D01*
X21956516Y-87903220D01*
X21823000Y-88225554D01*
X21823000Y-88574446D01*
X21923001Y-88815868D01*
X21923001Y-90782737D01*
X21896780Y-90756516D01*
X21574446Y-90623000D01*
X21225554Y-90623000D01*
X20903220Y-90756516D01*
X20656516Y-91003220D01*
X20523000Y-91325554D01*
X20523000Y-91674446D01*
X20656516Y-91996780D01*
X20723000Y-92063264D01*
X20723001Y-92419576D01*
X18569579Y-94573000D01*
X13211013Y-94573000D01*
X13338090Y-94488090D01*
X13375864Y-94431557D01*
X20380423Y-87427000D01*
X26133324Y-87427000D01*
X26200000Y-87440263D01*
X26266676Y-87427000D01*
X26266678Y-87427000D01*
X26464152Y-87387720D01*
X26688090Y-87238090D01*
X26725864Y-87181557D01*
X27731560Y-86175862D01*
X27788090Y-86138090D01*
X27937720Y-85914152D01*
X27977000Y-85716678D01*
X27977000Y-85716677D01*
X27990263Y-85650000D01*
X27977000Y-85583324D01*
X27977000Y-83216678D01*
X27990263Y-83150000D01*
X27977000Y-83083322D01*
X27977000Y-82125523D01*
X28006516Y-82196780D01*
X28006516Y-82196780D01*
G37*
X28006516Y-82196780D02*
X28253220Y-82443484D01*
X28545277Y-82564459D01*
X28356516Y-82753220D01*
X28223000Y-83075554D01*
X28223000Y-83424446D01*
X28356516Y-83746780D01*
X28603220Y-83993484D01*
X28925554Y-84127000D01*
X29125644Y-84127000D01*
X29478001Y-84479358D01*
X29478000Y-93266275D01*
X29123287Y-93503287D01*
X28829994Y-93942230D01*
X28810000Y-94042746D01*
X28790006Y-93942230D01*
X28496713Y-93503287D01*
X28057770Y-93209994D01*
X27670696Y-93133000D01*
X27409304Y-93133000D01*
X27022230Y-93209994D01*
X26583287Y-93503287D01*
X26289994Y-93942230D01*
X26270000Y-94042746D01*
X26250006Y-93942230D01*
X25956713Y-93503287D01*
X25827000Y-93416615D01*
X25827000Y-89165467D01*
X25975554Y-89227000D01*
X26324446Y-89227000D01*
X26646780Y-89093484D01*
X26893484Y-88846780D01*
X27027000Y-88524446D01*
X27027000Y-88175554D01*
X26893484Y-87853220D01*
X26646780Y-87606516D01*
X26324446Y-87473000D01*
X25975554Y-87473000D01*
X25734134Y-87573000D01*
X25465866Y-87573000D01*
X25224446Y-87473000D01*
X24875554Y-87473000D01*
X24553220Y-87606516D01*
X24325000Y-87834736D01*
X24146780Y-87656516D01*
X23824446Y-87523000D01*
X23475554Y-87523000D01*
X23234134Y-87623000D01*
X23115866Y-87623000D01*
X22874446Y-87523000D01*
X22525554Y-87523000D01*
X22203220Y-87656516D01*
X21956516Y-87903220D01*
X21823000Y-88225554D01*
X21823000Y-88574446D01*
X21923001Y-88815868D01*
X21923001Y-90782737D01*
X21896780Y-90756516D01*
X21574446Y-90623000D01*
X21225554Y-90623000D01*
X20903220Y-90756516D01*
X20656516Y-91003220D01*
X20523000Y-91325554D01*
X20523000Y-91674446D01*
X20656516Y-91996780D01*
X20723000Y-92063264D01*
X20723001Y-92419576D01*
X18569579Y-94573000D01*
X13211013Y-94573000D01*
X13338090Y-94488090D01*
X13375864Y-94431557D01*
X20380423Y-87427000D01*
X26133324Y-87427000D01*
X26200000Y-87440263D01*
X26266676Y-87427000D01*
X26266678Y-87427000D01*
X26464152Y-87387720D01*
X26688090Y-87238090D01*
X26725864Y-87181557D01*
X27731560Y-86175862D01*
X27788090Y-86138090D01*
X27937720Y-85914152D01*
X27977000Y-85716678D01*
X27977000Y-85716677D01*
X27990263Y-85650000D01*
X27977000Y-85583324D01*
X27977000Y-83216678D01*
X27990263Y-83150000D01*
X27977000Y-83083322D01*
X27977000Y-82125523D01*
X28006516Y-82196780D01*
G36*
X11148000Y-85690717D02*
X11136208Y-85750000D01*
X11148000Y-85809283D01*
X11148000Y-85809287D01*
X11182929Y-85984887D01*
X11241804Y-86073000D01*
X11269302Y-86114153D01*
X11315983Y-86184017D01*
X11366245Y-86217601D01*
X13482401Y-88333758D01*
X13515983Y-88384017D01*
X13566242Y-88417599D01*
X13566244Y-88417601D01*
X13609914Y-88446780D01*
X13715112Y-88517071D01*
X13890712Y-88552000D01*
X13890717Y-88552000D01*
X13950000Y-88563792D01*
X14009283Y-88552000D01*
X14411736Y-88552000D01*
X14553220Y-88693484D01*
X14875554Y-88827000D01*
X15224446Y-88827000D01*
X15546780Y-88693484D01*
X15793484Y-88446780D01*
X15927000Y-88124446D01*
X15927000Y-87775554D01*
X15793484Y-87453220D01*
X15546780Y-87206516D01*
X15224446Y-87073000D01*
X14875554Y-87073000D01*
X14553220Y-87206516D01*
X14411736Y-87348000D01*
X14199357Y-87348000D01*
X12352000Y-85500644D01*
X12352000Y-84292264D01*
X12353220Y-84293484D01*
X12675554Y-84427000D01*
X13024446Y-84427000D01*
X13346780Y-84293484D01*
X13593484Y-84046780D01*
X13727000Y-83724446D01*
X13727000Y-83375554D01*
X13701245Y-83313377D01*
X13975554Y-83427000D01*
X14175644Y-83427000D01*
X17229190Y-86480546D01*
X17156516Y-86553220D01*
X17023000Y-86875554D01*
X17023000Y-87224446D01*
X17156516Y-87546780D01*
X17403220Y-87793484D01*
X17725554Y-87927000D01*
X17965577Y-87927000D01*
X12569579Y-93323000D01*
X4502000Y-93323000D01*
X4502000Y-91799356D01*
X5799356Y-90502000D01*
X9590717Y-90502000D01*
X9650000Y-90513792D01*
X9709283Y-90502000D01*
X9709288Y-90502000D01*
X9884888Y-90467071D01*
X10084017Y-90334017D01*
X10117601Y-90283755D01*
X10783758Y-89617599D01*
X10834017Y-89584017D01*
X10867599Y-89533758D01*
X10867601Y-89533756D01*
X10967070Y-89384889D01*
X10967071Y-89384888D01*
X11002000Y-89209288D01*
X11002000Y-89209284D01*
X11013792Y-89150001D01*
X11002000Y-89090718D01*
X11002000Y-88238264D01*
X11143484Y-88096780D01*
X11277000Y-87774446D01*
X11277000Y-87425554D01*
X11143484Y-87103220D01*
X11002000Y-86961736D01*
X11002000Y-83459356D01*
X11148001Y-83313355D01*
X11148000Y-85690717D01*
X11148000Y-85690717D01*
G37*
X11148000Y-85690717D02*
X11136208Y-85750000D01*
X11148000Y-85809283D01*
X11148000Y-85809287D01*
X11182929Y-85984887D01*
X11241804Y-86073000D01*
X11269302Y-86114153D01*
X11315983Y-86184017D01*
X11366245Y-86217601D01*
X13482401Y-88333758D01*
X13515983Y-88384017D01*
X13566242Y-88417599D01*
X13566244Y-88417601D01*
X13609914Y-88446780D01*
X13715112Y-88517071D01*
X13890712Y-88552000D01*
X13890717Y-88552000D01*
X13950000Y-88563792D01*
X14009283Y-88552000D01*
X14411736Y-88552000D01*
X14553220Y-88693484D01*
X14875554Y-88827000D01*
X15224446Y-88827000D01*
X15546780Y-88693484D01*
X15793484Y-88446780D01*
X15927000Y-88124446D01*
X15927000Y-87775554D01*
X15793484Y-87453220D01*
X15546780Y-87206516D01*
X15224446Y-87073000D01*
X14875554Y-87073000D01*
X14553220Y-87206516D01*
X14411736Y-87348000D01*
X14199357Y-87348000D01*
X12352000Y-85500644D01*
X12352000Y-84292264D01*
X12353220Y-84293484D01*
X12675554Y-84427000D01*
X13024446Y-84427000D01*
X13346780Y-84293484D01*
X13593484Y-84046780D01*
X13727000Y-83724446D01*
X13727000Y-83375554D01*
X13701245Y-83313377D01*
X13975554Y-83427000D01*
X14175644Y-83427000D01*
X17229190Y-86480546D01*
X17156516Y-86553220D01*
X17023000Y-86875554D01*
X17023000Y-87224446D01*
X17156516Y-87546780D01*
X17403220Y-87793484D01*
X17725554Y-87927000D01*
X17965577Y-87927000D01*
X12569579Y-93323000D01*
X4502000Y-93323000D01*
X4502000Y-91799356D01*
X5799356Y-90502000D01*
X9590717Y-90502000D01*
X9650000Y-90513792D01*
X9709283Y-90502000D01*
X9709288Y-90502000D01*
X9884888Y-90467071D01*
X10084017Y-90334017D01*
X10117601Y-90283755D01*
X10783758Y-89617599D01*
X10834017Y-89584017D01*
X10867599Y-89533758D01*
X10867601Y-89533756D01*
X10967070Y-89384889D01*
X10967071Y-89384888D01*
X11002000Y-89209288D01*
X11002000Y-89209284D01*
X11013792Y-89150001D01*
X11002000Y-89090718D01*
X11002000Y-88238264D01*
X11143484Y-88096780D01*
X11277000Y-87774446D01*
X11277000Y-87425554D01*
X11143484Y-87103220D01*
X11002000Y-86961736D01*
X11002000Y-83459356D01*
X11148001Y-83313355D01*
X11148000Y-85690717D01*
G36*
X22523000Y-80625554D02*
X22523000Y-80974446D01*
X22656516Y-81296780D01*
X22798001Y-81438265D01*
X22798000Y-82340717D01*
X22786208Y-82400000D01*
X22798000Y-82459283D01*
X22798000Y-82459287D01*
X22832929Y-82634887D01*
X22853707Y-82665983D01*
X22927886Y-82777000D01*
X22965983Y-82834017D01*
X23016245Y-82867601D01*
X24898001Y-84749357D01*
X24898001Y-85011735D01*
X24756516Y-85153220D01*
X24623000Y-85475554D01*
X24623000Y-85824446D01*
X24725955Y-86073000D01*
X20166676Y-86073000D01*
X20099999Y-86059737D01*
X20033323Y-86073000D01*
X20033322Y-86073000D01*
X19835848Y-86112280D01*
X19611910Y-86261910D01*
X19574140Y-86318437D01*
X18777000Y-87115577D01*
X18777000Y-86875554D01*
X18643484Y-86553220D01*
X18502000Y-86411736D01*
X18502000Y-86359283D01*
X18513792Y-86300000D01*
X18502000Y-86240717D01*
X18502000Y-86240712D01*
X18467071Y-86065112D01*
X18429771Y-86009288D01*
X18367601Y-85916244D01*
X18367599Y-85916242D01*
X18334017Y-85865983D01*
X18283758Y-85832401D01*
X15027000Y-82575644D01*
X15027000Y-82375554D01*
X14893484Y-82053220D01*
X14646780Y-81806516D01*
X14539343Y-81762014D01*
X15699357Y-80602000D01*
X22532756Y-80602000D01*
X22523000Y-80625554D01*
X22523000Y-80625554D01*
G37*
X22523000Y-80625554D02*
X22523000Y-80974446D01*
X22656516Y-81296780D01*
X22798001Y-81438265D01*
X22798000Y-82340717D01*
X22786208Y-82400000D01*
X22798000Y-82459283D01*
X22798000Y-82459287D01*
X22832929Y-82634887D01*
X22853707Y-82665983D01*
X22927886Y-82777000D01*
X22965983Y-82834017D01*
X23016245Y-82867601D01*
X24898001Y-84749357D01*
X24898001Y-85011735D01*
X24756516Y-85153220D01*
X24623000Y-85475554D01*
X24623000Y-85824446D01*
X24725955Y-86073000D01*
X20166676Y-86073000D01*
X20099999Y-86059737D01*
X20033323Y-86073000D01*
X20033322Y-86073000D01*
X19835848Y-86112280D01*
X19611910Y-86261910D01*
X19574140Y-86318437D01*
X18777000Y-87115577D01*
X18777000Y-86875554D01*
X18643484Y-86553220D01*
X18502000Y-86411736D01*
X18502000Y-86359283D01*
X18513792Y-86300000D01*
X18502000Y-86240717D01*
X18502000Y-86240712D01*
X18467071Y-86065112D01*
X18429771Y-86009288D01*
X18367601Y-85916244D01*
X18367599Y-85916242D01*
X18334017Y-85865983D01*
X18283758Y-85832401D01*
X15027000Y-82575644D01*
X15027000Y-82375554D01*
X14893484Y-82053220D01*
X14646780Y-81806516D01*
X14539343Y-81762014D01*
X15699357Y-80602000D01*
X22532756Y-80602000D01*
X22523000Y-80625554D01*
G36*
X24398000Y-76350643D02*
X22000644Y-78748000D01*
X15159282Y-78748000D01*
X15112000Y-78738595D01*
X15112000Y-77689356D01*
X16019357Y-76782000D01*
X16953173Y-76782000D01*
X16873000Y-76975554D01*
X16873000Y-77324446D01*
X17006516Y-77646780D01*
X17253220Y-77893484D01*
X17575554Y-78027000D01*
X17924446Y-78027000D01*
X18246780Y-77893484D01*
X18388264Y-77752000D01*
X19290717Y-77752000D01*
X19350000Y-77763792D01*
X19409283Y-77752000D01*
X19409288Y-77752000D01*
X19584888Y-77717071D01*
X19784017Y-77584017D01*
X19817601Y-77533755D01*
X20883758Y-76467599D01*
X20934017Y-76434017D01*
X20967599Y-76383758D01*
X20967601Y-76383756D01*
X21067070Y-76234889D01*
X21067071Y-76234888D01*
X21102000Y-76059288D01*
X21102000Y-76059287D01*
X21113793Y-76000000D01*
X21102000Y-75940713D01*
X21102000Y-73538264D01*
X21243484Y-73396780D01*
X21377000Y-73074446D01*
X21377000Y-72725554D01*
X21243484Y-72403220D01*
X20996780Y-72156516D01*
X20825703Y-72085653D01*
X21693758Y-71217599D01*
X21744017Y-71184017D01*
X21777599Y-71133758D01*
X21777601Y-71133756D01*
X21786888Y-71119856D01*
X22045554Y-71227000D01*
X22394446Y-71227000D01*
X22716780Y-71093484D01*
X22735000Y-71075264D01*
X22863220Y-71203484D01*
X23185554Y-71337000D01*
X23534446Y-71337000D01*
X23856780Y-71203484D01*
X24103484Y-70956780D01*
X24237000Y-70634446D01*
X24237000Y-70434356D01*
X24398001Y-70273355D01*
X24398000Y-76350643D01*
X24398000Y-76350643D01*
G37*
X24398000Y-76350643D02*
X22000644Y-78748000D01*
X15159282Y-78748000D01*
X15112000Y-78738595D01*
X15112000Y-77689356D01*
X16019357Y-76782000D01*
X16953173Y-76782000D01*
X16873000Y-76975554D01*
X16873000Y-77324446D01*
X17006516Y-77646780D01*
X17253220Y-77893484D01*
X17575554Y-78027000D01*
X17924446Y-78027000D01*
X18246780Y-77893484D01*
X18388264Y-77752000D01*
X19290717Y-77752000D01*
X19350000Y-77763792D01*
X19409283Y-77752000D01*
X19409288Y-77752000D01*
X19584888Y-77717071D01*
X19784017Y-77584017D01*
X19817601Y-77533755D01*
X20883758Y-76467599D01*
X20934017Y-76434017D01*
X20967599Y-76383758D01*
X20967601Y-76383756D01*
X21067070Y-76234889D01*
X21067071Y-76234888D01*
X21102000Y-76059288D01*
X21102000Y-76059287D01*
X21113793Y-76000000D01*
X21102000Y-75940713D01*
X21102000Y-73538264D01*
X21243484Y-73396780D01*
X21377000Y-73074446D01*
X21377000Y-72725554D01*
X21243484Y-72403220D01*
X20996780Y-72156516D01*
X20825703Y-72085653D01*
X21693758Y-71217599D01*
X21744017Y-71184017D01*
X21777599Y-71133758D01*
X21777601Y-71133756D01*
X21786888Y-71119856D01*
X22045554Y-71227000D01*
X22394446Y-71227000D01*
X22716780Y-71093484D01*
X22735000Y-71075264D01*
X22863220Y-71203484D01*
X23185554Y-71337000D01*
X23534446Y-71337000D01*
X23856780Y-71203484D01*
X24103484Y-70956780D01*
X24237000Y-70634446D01*
X24237000Y-70434356D01*
X24398001Y-70273355D01*
X24398000Y-76350643D01*
G36*
X39073000Y-51825554D02*
X39073000Y-52174446D01*
X39134533Y-52323000D01*
X38825554Y-52323000D01*
X38503220Y-52456516D01*
X38256516Y-52703220D01*
X38123000Y-53025554D01*
X38123000Y-53225644D01*
X37966245Y-53382399D01*
X37915983Y-53415983D01*
X37782929Y-53615113D01*
X37748000Y-53790713D01*
X37748000Y-53790717D01*
X37736208Y-53850000D01*
X37748000Y-53909283D01*
X37748001Y-65646644D01*
X36867600Y-64766244D01*
X36834017Y-64715983D01*
X36634888Y-64582929D01*
X36459288Y-64548000D01*
X36459283Y-64548000D01*
X36400000Y-64536208D01*
X36340717Y-64548000D01*
X28999357Y-64548000D01*
X28552000Y-64100644D01*
X28552000Y-62424341D01*
X28606399Y-62505755D01*
X28606402Y-62505758D01*
X28639984Y-62556017D01*
X28690243Y-62589599D01*
X29876401Y-63775758D01*
X29909983Y-63826017D01*
X29960242Y-63859599D01*
X29960244Y-63859601D01*
X30109110Y-63959070D01*
X30109111Y-63959070D01*
X30109112Y-63959071D01*
X30284712Y-63994000D01*
X30284716Y-63994000D01*
X30343999Y-64005792D01*
X30403282Y-63994000D01*
X35018717Y-63994000D01*
X35078000Y-64005792D01*
X35137283Y-63994000D01*
X35137288Y-63994000D01*
X35312888Y-63959071D01*
X35512017Y-63826017D01*
X35545601Y-63775755D01*
X35854356Y-63467000D01*
X36054446Y-63467000D01*
X36376780Y-63333484D01*
X36623484Y-63086780D01*
X36757000Y-62764446D01*
X36757000Y-62415554D01*
X36623484Y-62093220D01*
X36376780Y-61846516D01*
X36054446Y-61713000D01*
X35705554Y-61713000D01*
X35383220Y-61846516D01*
X35227000Y-62002736D01*
X35227000Y-59600000D01*
X35217333Y-59551399D01*
X35189803Y-59510197D01*
X35148601Y-59482667D01*
X35100000Y-59473000D01*
X31400000Y-59473000D01*
X31351399Y-59482667D01*
X31310197Y-59510197D01*
X31282667Y-59551399D01*
X31273000Y-59600000D01*
X31273000Y-62790000D01*
X30593357Y-62790000D01*
X29676000Y-61872644D01*
X29676000Y-57625356D01*
X30056374Y-57244982D01*
X30023000Y-57325554D01*
X30023000Y-57674446D01*
X30156516Y-57996780D01*
X30403220Y-58243484D01*
X30725554Y-58377000D01*
X31074446Y-58377000D01*
X31102148Y-58365525D01*
X31156516Y-58496780D01*
X31403220Y-58743484D01*
X31725554Y-58877000D01*
X32074446Y-58877000D01*
X32396780Y-58743484D01*
X32643484Y-58496780D01*
X32777000Y-58174446D01*
X32777000Y-57974356D01*
X39177086Y-51574271D01*
X39073000Y-51825554D01*
X39073000Y-51825554D01*
G37*
X39073000Y-51825554D02*
X39073000Y-52174446D01*
X39134533Y-52323000D01*
X38825554Y-52323000D01*
X38503220Y-52456516D01*
X38256516Y-52703220D01*
X38123000Y-53025554D01*
X38123000Y-53225644D01*
X37966245Y-53382399D01*
X37915983Y-53415983D01*
X37782929Y-53615113D01*
X37748000Y-53790713D01*
X37748000Y-53790717D01*
X37736208Y-53850000D01*
X37748000Y-53909283D01*
X37748001Y-65646644D01*
X36867600Y-64766244D01*
X36834017Y-64715983D01*
X36634888Y-64582929D01*
X36459288Y-64548000D01*
X36459283Y-64548000D01*
X36400000Y-64536208D01*
X36340717Y-64548000D01*
X28999357Y-64548000D01*
X28552000Y-64100644D01*
X28552000Y-62424341D01*
X28606399Y-62505755D01*
X28606402Y-62505758D01*
X28639984Y-62556017D01*
X28690243Y-62589599D01*
X29876401Y-63775758D01*
X29909983Y-63826017D01*
X29960242Y-63859599D01*
X29960244Y-63859601D01*
X30109110Y-63959070D01*
X30109111Y-63959070D01*
X30109112Y-63959071D01*
X30284712Y-63994000D01*
X30284716Y-63994000D01*
X30343999Y-64005792D01*
X30403282Y-63994000D01*
X35018717Y-63994000D01*
X35078000Y-64005792D01*
X35137283Y-63994000D01*
X35137288Y-63994000D01*
X35312888Y-63959071D01*
X35512017Y-63826017D01*
X35545601Y-63775755D01*
X35854356Y-63467000D01*
X36054446Y-63467000D01*
X36376780Y-63333484D01*
X36623484Y-63086780D01*
X36757000Y-62764446D01*
X36757000Y-62415554D01*
X36623484Y-62093220D01*
X36376780Y-61846516D01*
X36054446Y-61713000D01*
X35705554Y-61713000D01*
X35383220Y-61846516D01*
X35227000Y-62002736D01*
X35227000Y-59600000D01*
X35217333Y-59551399D01*
X35189803Y-59510197D01*
X35148601Y-59482667D01*
X35100000Y-59473000D01*
X31400000Y-59473000D01*
X31351399Y-59482667D01*
X31310197Y-59510197D01*
X31282667Y-59551399D01*
X31273000Y-59600000D01*
X31273000Y-62790000D01*
X30593357Y-62790000D01*
X29676000Y-61872644D01*
X29676000Y-57625356D01*
X30056374Y-57244982D01*
X30023000Y-57325554D01*
X30023000Y-57674446D01*
X30156516Y-57996780D01*
X30403220Y-58243484D01*
X30725554Y-58377000D01*
X31074446Y-58377000D01*
X31102148Y-58365525D01*
X31156516Y-58496780D01*
X31403220Y-58743484D01*
X31725554Y-58877000D01*
X32074446Y-58877000D01*
X32396780Y-58743484D01*
X32643484Y-58496780D01*
X32777000Y-58174446D01*
X32777000Y-57974356D01*
X39177086Y-51574271D01*
X39073000Y-51825554D01*
G36*
X44196464Y-7545308D02*
X44239814Y-7610186D01*
X44496830Y-7781918D01*
X44723474Y-7827000D01*
X44723475Y-7827000D01*
X44800000Y-7842222D01*
X44876525Y-7827000D01*
X55478157Y-7827000D01*
X58596462Y-10945305D01*
X58639814Y-11010186D01*
X58896830Y-11181918D01*
X59123474Y-11227000D01*
X59199999Y-11242222D01*
X59276524Y-11227000D01*
X62678157Y-11227000D01*
X67123000Y-15671844D01*
X67123001Y-25778156D01*
X66647545Y-26253612D01*
X66632034Y-26253612D01*
X66630788Y-26250604D01*
X66243432Y-25863248D01*
X66118453Y-25811480D01*
X66435478Y-25680164D01*
X66822834Y-25292808D01*
X67032470Y-24786702D01*
X67032470Y-24238898D01*
X66822834Y-23732792D01*
X66435478Y-23345436D01*
X66036787Y-23180293D01*
X66053465Y-23159512D01*
X66100615Y-23068936D01*
X66157421Y-22959813D01*
X66217471Y-22753787D01*
X66235730Y-22545069D01*
X66237091Y-22529512D01*
X66213728Y-22316187D01*
X66146029Y-22101473D01*
X66126998Y-22066784D01*
X66501271Y-17788823D01*
X66526039Y-17757963D01*
X66601718Y-17612583D01*
X66629994Y-17558266D01*
X66690045Y-17352240D01*
X66709666Y-17127963D01*
X66709666Y-17127962D01*
X66686303Y-16914639D01*
X66683663Y-16906265D01*
X66618604Y-16699925D01*
X66515384Y-16511780D01*
X66441314Y-16423508D01*
X66370671Y-16339318D01*
X66203308Y-16204995D01*
X66103845Y-16153218D01*
X66003611Y-16101039D01*
X65797585Y-16040988D01*
X65573308Y-16021367D01*
X65573307Y-16021367D01*
X65359984Y-16044730D01*
X65145270Y-16112429D01*
X65110581Y-16131460D01*
X65016635Y-16123241D01*
X64985776Y-16098474D01*
X64985774Y-16098473D01*
X64985773Y-16098472D01*
X64786077Y-15994517D01*
X64580051Y-15934467D01*
X64378521Y-15916837D01*
X64355776Y-15914847D01*
X64355773Y-15914847D01*
X64355771Y-15914848D01*
X64142451Y-15938210D01*
X63927737Y-16005909D01*
X63739592Y-16109129D01*
X63673001Y-16165006D01*
X63567130Y-16253842D01*
X63432807Y-16421205D01*
X63432806Y-16421207D01*
X63432805Y-16421208D01*
X63328850Y-16620904D01*
X63268800Y-16826930D01*
X63251552Y-17024090D01*
X63249180Y-17051206D01*
X63272543Y-17264529D01*
X63272543Y-17264530D01*
X63340242Y-17479244D01*
X63359274Y-17513935D01*
X62985001Y-21791895D01*
X62960234Y-21822754D01*
X62956617Y-21829703D01*
X62856278Y-22022451D01*
X62796227Y-22228477D01*
X62777028Y-22447932D01*
X62776606Y-22452755D01*
X62799969Y-22666079D01*
X62806940Y-22688187D01*
X62867668Y-22880792D01*
X62886119Y-22914424D01*
X62851233Y-22914424D01*
X62345127Y-23124060D01*
X61957771Y-23511416D01*
X61884038Y-23689424D01*
X58089287Y-23689424D01*
X58030000Y-23677631D01*
X57970713Y-23689424D01*
X57970712Y-23689424D01*
X57795112Y-23724353D01*
X57742599Y-23759441D01*
X57646244Y-23823823D01*
X57646242Y-23823825D01*
X57595983Y-23857407D01*
X57562401Y-23907666D01*
X49688243Y-31781825D01*
X49637984Y-31815407D01*
X49604402Y-31865666D01*
X49604399Y-31865669D01*
X49504930Y-32014536D01*
X49458208Y-32249424D01*
X49470001Y-32308711D01*
X49470000Y-38559287D01*
X49470001Y-38559292D01*
X49470000Y-39578643D01*
X49265138Y-39783505D01*
X49273792Y-39740000D01*
X49262000Y-39680717D01*
X49262000Y-32145356D01*
X51420581Y-29986776D01*
X51470840Y-29953194D01*
X51504422Y-29902935D01*
X51504424Y-29902933D01*
X51603893Y-29754067D01*
X51603893Y-29754066D01*
X51603894Y-29754065D01*
X51638823Y-29578465D01*
X51638823Y-29578461D01*
X51650615Y-29519178D01*
X51638823Y-29459895D01*
X51638823Y-19490048D01*
X51816831Y-19416315D01*
X52204187Y-19028959D01*
X52413823Y-18522853D01*
X52413823Y-17975049D01*
X52209736Y-17482339D01*
X52296036Y-17472887D01*
X52510750Y-17405188D01*
X52698894Y-17301968D01*
X52698895Y-17301967D01*
X52698896Y-17301967D01*
X52833927Y-17188662D01*
X52871357Y-17157255D01*
X52871357Y-17157254D01*
X52871359Y-17157253D01*
X53005681Y-16989890D01*
X53082220Y-16842858D01*
X53109635Y-16790195D01*
X53120707Y-16752207D01*
X56410335Y-13991884D01*
X56449668Y-13987576D01*
X56612704Y-13936171D01*
X56664380Y-13919878D01*
X56852525Y-13816659D01*
X57024988Y-13671946D01*
X57024989Y-13671945D01*
X57159313Y-13504582D01*
X57239163Y-13351189D01*
X57263268Y-13304885D01*
X57323319Y-13098859D01*
X57342940Y-12874582D01*
X57342940Y-12874581D01*
X57319577Y-12661257D01*
X57264762Y-12487405D01*
X57251879Y-12446545D01*
X57148660Y-12258400D01*
X57003947Y-12085937D01*
X57003946Y-12085936D01*
X56836583Y-11951613D01*
X56758910Y-11911179D01*
X56636886Y-11847657D01*
X56598898Y-11836584D01*
X56538281Y-11764344D01*
X56533973Y-11725010D01*
X56478946Y-11550485D01*
X56466275Y-11510298D01*
X56363056Y-11322153D01*
X56218343Y-11149690D01*
X56218342Y-11149689D01*
X56050979Y-11015366D01*
X55952115Y-10963901D01*
X55851282Y-10911410D01*
X55645256Y-10851359D01*
X55420979Y-10831738D01*
X55207654Y-10855101D01*
X55067041Y-10899436D01*
X54992942Y-10922799D01*
X54804797Y-11026018D01*
X54640829Y-11163603D01*
X54632333Y-11170732D01*
X54498010Y-11338095D01*
X54464461Y-11402543D01*
X54394054Y-11537792D01*
X54382981Y-11575781D01*
X51093356Y-14336105D01*
X51054021Y-14340413D01*
X50927370Y-14380346D01*
X50839309Y-14408111D01*
X50651164Y-14511330D01*
X50493137Y-14643930D01*
X50478700Y-14656044D01*
X50344377Y-14823407D01*
X50316395Y-14877160D01*
X50240421Y-15023104D01*
X50202279Y-15153962D01*
X50184151Y-15135834D01*
X49678045Y-14926198D01*
X49130241Y-14926198D01*
X48624135Y-15135834D01*
X48236779Y-15523190D01*
X48027143Y-16029296D01*
X48027143Y-16577100D01*
X48089175Y-16726859D01*
X47872883Y-16637268D01*
X47325079Y-16637268D01*
X46818973Y-16846904D01*
X46431617Y-17234260D01*
X46221981Y-17740366D01*
X46221981Y-18173000D01*
X29707264Y-18173000D01*
X29803484Y-18076780D01*
X29937000Y-17754446D01*
X29937000Y-17405554D01*
X29803484Y-17083220D01*
X29556780Y-16836516D01*
X29234446Y-16703000D01*
X28885554Y-16703000D01*
X28563220Y-16836516D01*
X28421736Y-16978000D01*
X25228264Y-16978000D01*
X25146780Y-16896516D01*
X24824446Y-16763000D01*
X24475554Y-16763000D01*
X24153220Y-16896516D01*
X23906516Y-17143220D01*
X23773000Y-17465554D01*
X23773000Y-17814446D01*
X23906516Y-18136780D01*
X23942736Y-18173000D01*
X22909751Y-18173000D01*
X23041529Y-18015953D01*
X23132802Y-17849584D01*
X23153461Y-17660949D01*
X23100360Y-17478768D01*
X22981584Y-17330776D01*
X21602704Y-16173758D01*
X21436335Y-16082485D01*
X21247700Y-16061826D01*
X21065519Y-16114927D01*
X20956708Y-16202257D01*
X20956708Y-15883565D01*
X20747072Y-15377459D01*
X20359716Y-14990103D01*
X19853610Y-14780467D01*
X19305806Y-14780467D01*
X18799700Y-14990103D01*
X18761186Y-15028617D01*
X18759579Y-15023105D01*
X18709132Y-14926198D01*
X18655625Y-14823410D01*
X18521303Y-14656047D01*
X18521300Y-14656044D01*
X18436988Y-14585298D01*
X18348840Y-14511333D01*
X18348839Y-14511333D01*
X18348838Y-14511332D01*
X18338695Y-14505767D01*
X31673131Y-14505767D01*
X31773131Y-16705767D01*
X31791903Y-16766664D01*
X31825643Y-16802956D01*
X33625643Y-18102956D01*
X33656542Y-18119333D01*
X33705517Y-18126880D01*
X36005517Y-18026880D01*
X36069153Y-18006521D01*
X36104653Y-17971949D01*
X37204653Y-16371949D01*
X37217333Y-16348601D01*
X37227000Y-16300000D01*
X37227000Y-14100000D01*
X37209880Y-14036318D01*
X37177146Y-13999117D01*
X35477146Y-12699117D01*
X35448601Y-12682667D01*
X35400000Y-12673000D01*
X33500000Y-12673000D01*
X33451399Y-12682667D01*
X33410197Y-12710197D01*
X31710197Y-14410197D01*
X31680581Y-14456777D01*
X31673131Y-14505767D01*
X18338695Y-14505767D01*
X18160694Y-14408112D01*
X17945980Y-14340413D01*
X17906646Y-14336105D01*
X14617019Y-11575782D01*
X14605946Y-11537793D01*
X14555078Y-11440077D01*
X14501992Y-11338098D01*
X14367670Y-11170735D01*
X14367667Y-11170732D01*
X14276627Y-11094341D01*
X14195207Y-11026021D01*
X14195206Y-11026021D01*
X14195205Y-11026020D01*
X14007061Y-10922800D01*
X13792347Y-10855101D01*
X13579023Y-10831738D01*
X13579022Y-10831738D01*
X13354745Y-10851359D01*
X13148719Y-10911410D01*
X13066235Y-10954349D01*
X12949024Y-11015364D01*
X12781661Y-11149686D01*
X12781660Y-11149688D01*
X12781659Y-11149688D01*
X12754616Y-11181917D01*
X12636947Y-11322149D01*
X12636947Y-11322150D01*
X12636946Y-11322151D01*
X12533726Y-11510295D01*
X12466027Y-11725009D01*
X12461719Y-11764344D01*
X12401103Y-11836583D01*
X12363114Y-11847656D01*
X12297077Y-11882033D01*
X12163417Y-11951611D01*
X11996054Y-12085935D01*
X11996053Y-12085936D01*
X11851340Y-12258399D01*
X11748120Y-12446544D01*
X11735237Y-12487405D01*
X11680422Y-12661257D01*
X11657059Y-12874581D01*
X11657059Y-12874582D01*
X11676680Y-13098859D01*
X11736731Y-13304885D01*
X11797154Y-13420955D01*
X11840687Y-13504582D01*
X11975010Y-13671945D01*
X12040781Y-13727133D01*
X12147473Y-13816659D01*
X12335619Y-13919879D01*
X12447393Y-13955120D01*
X12550332Y-13987577D01*
X12589669Y-13991885D01*
X15879292Y-16752208D01*
X15890365Y-16790196D01*
X15955148Y-16914642D01*
X15994321Y-16989893D01*
X16128644Y-17157256D01*
X16128645Y-17157257D01*
X16301108Y-17301970D01*
X16489253Y-17405189D01*
X16525372Y-17416577D01*
X16703965Y-17472887D01*
X16717072Y-17474322D01*
X16570028Y-17829318D01*
X16570028Y-18377122D01*
X16779664Y-18883228D01*
X17167020Y-19270584D01*
X17345029Y-19344318D01*
X17345028Y-36137745D01*
X17335749Y-36184393D01*
X16102000Y-34950644D01*
X16102000Y-25959283D01*
X16113792Y-25900000D01*
X16102000Y-25840717D01*
X16102000Y-25840712D01*
X16067071Y-25665112D01*
X16030014Y-25609652D01*
X15967601Y-25516244D01*
X15967599Y-25516242D01*
X15934017Y-25465983D01*
X15883758Y-25432401D01*
X14319939Y-23868583D01*
X14286355Y-23818321D01*
X14087226Y-23685267D01*
X13911626Y-23650338D01*
X13911621Y-23650338D01*
X13852338Y-23638546D01*
X13793055Y-23650338D01*
X7195045Y-23650338D01*
X7121312Y-23472330D01*
X6733956Y-23084974D01*
X6227850Y-22875338D01*
X6134053Y-22875338D01*
X6138519Y-22861173D01*
X6200033Y-22666075D01*
X6223395Y-22452752D01*
X6211447Y-22316191D01*
X6203773Y-22228476D01*
X6143722Y-22022450D01*
X6100772Y-21939944D01*
X6039767Y-21822753D01*
X6014999Y-21791893D01*
X5640726Y-17513934D01*
X5659758Y-17479243D01*
X5727457Y-17264529D01*
X5750820Y-17051206D01*
X5750368Y-17046033D01*
X5731199Y-16826928D01*
X5671148Y-16620902D01*
X5622506Y-16527462D01*
X5567193Y-16421205D01*
X5432869Y-16253842D01*
X5260406Y-16109129D01*
X5072262Y-16005909D01*
X4906112Y-15953522D01*
X4857549Y-15938210D01*
X4644225Y-15914847D01*
X4644224Y-15914847D01*
X4419947Y-15934468D01*
X4213921Y-15994519D01*
X4147116Y-16029296D01*
X4014224Y-16098474D01*
X3983365Y-16123241D01*
X3889421Y-16131460D01*
X3854730Y-16112428D01*
X3810467Y-16098472D01*
X3640013Y-16044728D01*
X3426689Y-16021366D01*
X3294929Y-16032894D01*
X3208377Y-16040466D01*
X11621844Y-7627000D01*
X17473475Y-7627000D01*
X17550000Y-7642222D01*
X17626525Y-7627000D01*
X17626526Y-7627000D01*
X17853170Y-7581918D01*
X18110186Y-7410186D01*
X18153538Y-7345305D01*
X21921844Y-3577000D01*
X27723475Y-3577000D01*
X27800000Y-3592222D01*
X27876525Y-3577000D01*
X27876526Y-3577000D01*
X28103170Y-3531918D01*
X28360186Y-3360186D01*
X28403538Y-3295305D01*
X28973000Y-2725843D01*
X28973000Y-3024446D01*
X29061219Y-3237424D01*
X27325644Y-4973000D01*
X27125554Y-4973000D01*
X26803220Y-5106516D01*
X26556516Y-5353220D01*
X26423000Y-5675554D01*
X26423000Y-6024446D01*
X26556516Y-6346780D01*
X26803220Y-6593484D01*
X27125554Y-6727000D01*
X27474446Y-6727000D01*
X27796780Y-6593484D01*
X28043484Y-6346780D01*
X28177000Y-6024446D01*
X28177000Y-5824356D01*
X30233758Y-3767599D01*
X30284017Y-3734017D01*
X30317599Y-3683758D01*
X30317601Y-3683756D01*
X30406917Y-3550084D01*
X30417071Y-3534888D01*
X30419975Y-3520289D01*
X30593484Y-3346780D01*
X30727000Y-3024446D01*
X30727000Y-2675554D01*
X30593484Y-2353220D01*
X30467264Y-2227000D01*
X38878157Y-2227000D01*
X44196464Y-7545308D01*
X44196464Y-7545308D01*
G37*
X44196464Y-7545308D02*
X44239814Y-7610186D01*
X44496830Y-7781918D01*
X44723474Y-7827000D01*
X44723475Y-7827000D01*
X44800000Y-7842222D01*
X44876525Y-7827000D01*
X55478157Y-7827000D01*
X58596462Y-10945305D01*
X58639814Y-11010186D01*
X58896830Y-11181918D01*
X59123474Y-11227000D01*
X59199999Y-11242222D01*
X59276524Y-11227000D01*
X62678157Y-11227000D01*
X67123000Y-15671844D01*
X67123001Y-25778156D01*
X66647545Y-26253612D01*
X66632034Y-26253612D01*
X66630788Y-26250604D01*
X66243432Y-25863248D01*
X66118453Y-25811480D01*
X66435478Y-25680164D01*
X66822834Y-25292808D01*
X67032470Y-24786702D01*
X67032470Y-24238898D01*
X66822834Y-23732792D01*
X66435478Y-23345436D01*
X66036787Y-23180293D01*
X66053465Y-23159512D01*
X66100615Y-23068936D01*
X66157421Y-22959813D01*
X66217471Y-22753787D01*
X66235730Y-22545069D01*
X66237091Y-22529512D01*
X66213728Y-22316187D01*
X66146029Y-22101473D01*
X66126998Y-22066784D01*
X66501271Y-17788823D01*
X66526039Y-17757963D01*
X66601718Y-17612583D01*
X66629994Y-17558266D01*
X66690045Y-17352240D01*
X66709666Y-17127963D01*
X66709666Y-17127962D01*
X66686303Y-16914639D01*
X66683663Y-16906265D01*
X66618604Y-16699925D01*
X66515384Y-16511780D01*
X66441314Y-16423508D01*
X66370671Y-16339318D01*
X66203308Y-16204995D01*
X66103845Y-16153218D01*
X66003611Y-16101039D01*
X65797585Y-16040988D01*
X65573308Y-16021367D01*
X65573307Y-16021367D01*
X65359984Y-16044730D01*
X65145270Y-16112429D01*
X65110581Y-16131460D01*
X65016635Y-16123241D01*
X64985776Y-16098474D01*
X64985774Y-16098473D01*
X64985773Y-16098472D01*
X64786077Y-15994517D01*
X64580051Y-15934467D01*
X64378521Y-15916837D01*
X64355776Y-15914847D01*
X64355773Y-15914847D01*
X64355771Y-15914848D01*
X64142451Y-15938210D01*
X63927737Y-16005909D01*
X63739592Y-16109129D01*
X63673001Y-16165006D01*
X63567130Y-16253842D01*
X63432807Y-16421205D01*
X63432806Y-16421207D01*
X63432805Y-16421208D01*
X63328850Y-16620904D01*
X63268800Y-16826930D01*
X63251552Y-17024090D01*
X63249180Y-17051206D01*
X63272543Y-17264529D01*
X63272543Y-17264530D01*
X63340242Y-17479244D01*
X63359274Y-17513935D01*
X62985001Y-21791895D01*
X62960234Y-21822754D01*
X62956617Y-21829703D01*
X62856278Y-22022451D01*
X62796227Y-22228477D01*
X62777028Y-22447932D01*
X62776606Y-22452755D01*
X62799969Y-22666079D01*
X62806940Y-22688187D01*
X62867668Y-22880792D01*
X62886119Y-22914424D01*
X62851233Y-22914424D01*
X62345127Y-23124060D01*
X61957771Y-23511416D01*
X61884038Y-23689424D01*
X58089287Y-23689424D01*
X58030000Y-23677631D01*
X57970713Y-23689424D01*
X57970712Y-23689424D01*
X57795112Y-23724353D01*
X57742599Y-23759441D01*
X57646244Y-23823823D01*
X57646242Y-23823825D01*
X57595983Y-23857407D01*
X57562401Y-23907666D01*
X49688243Y-31781825D01*
X49637984Y-31815407D01*
X49604402Y-31865666D01*
X49604399Y-31865669D01*
X49504930Y-32014536D01*
X49458208Y-32249424D01*
X49470001Y-32308711D01*
X49470000Y-38559287D01*
X49470001Y-38559292D01*
X49470000Y-39578643D01*
X49265138Y-39783505D01*
X49273792Y-39740000D01*
X49262000Y-39680717D01*
X49262000Y-32145356D01*
X51420581Y-29986776D01*
X51470840Y-29953194D01*
X51504422Y-29902935D01*
X51504424Y-29902933D01*
X51603893Y-29754067D01*
X51603893Y-29754066D01*
X51603894Y-29754065D01*
X51638823Y-29578465D01*
X51638823Y-29578461D01*
X51650615Y-29519178D01*
X51638823Y-29459895D01*
X51638823Y-19490048D01*
X51816831Y-19416315D01*
X52204187Y-19028959D01*
X52413823Y-18522853D01*
X52413823Y-17975049D01*
X52209736Y-17482339D01*
X52296036Y-17472887D01*
X52510750Y-17405188D01*
X52698894Y-17301968D01*
X52698895Y-17301967D01*
X52698896Y-17301967D01*
X52833927Y-17188662D01*
X52871357Y-17157255D01*
X52871357Y-17157254D01*
X52871359Y-17157253D01*
X53005681Y-16989890D01*
X53082220Y-16842858D01*
X53109635Y-16790195D01*
X53120707Y-16752207D01*
X56410335Y-13991884D01*
X56449668Y-13987576D01*
X56612704Y-13936171D01*
X56664380Y-13919878D01*
X56852525Y-13816659D01*
X57024988Y-13671946D01*
X57024989Y-13671945D01*
X57159313Y-13504582D01*
X57239163Y-13351189D01*
X57263268Y-13304885D01*
X57323319Y-13098859D01*
X57342940Y-12874582D01*
X57342940Y-12874581D01*
X57319577Y-12661257D01*
X57264762Y-12487405D01*
X57251879Y-12446545D01*
X57148660Y-12258400D01*
X57003947Y-12085937D01*
X57003946Y-12085936D01*
X56836583Y-11951613D01*
X56758910Y-11911179D01*
X56636886Y-11847657D01*
X56598898Y-11836584D01*
X56538281Y-11764344D01*
X56533973Y-11725010D01*
X56478946Y-11550485D01*
X56466275Y-11510298D01*
X56363056Y-11322153D01*
X56218343Y-11149690D01*
X56218342Y-11149689D01*
X56050979Y-11015366D01*
X55952115Y-10963901D01*
X55851282Y-10911410D01*
X55645256Y-10851359D01*
X55420979Y-10831738D01*
X55207654Y-10855101D01*
X55067041Y-10899436D01*
X54992942Y-10922799D01*
X54804797Y-11026018D01*
X54640829Y-11163603D01*
X54632333Y-11170732D01*
X54498010Y-11338095D01*
X54464461Y-11402543D01*
X54394054Y-11537792D01*
X54382981Y-11575781D01*
X51093356Y-14336105D01*
X51054021Y-14340413D01*
X50927370Y-14380346D01*
X50839309Y-14408111D01*
X50651164Y-14511330D01*
X50493137Y-14643930D01*
X50478700Y-14656044D01*
X50344377Y-14823407D01*
X50316395Y-14877160D01*
X50240421Y-15023104D01*
X50202279Y-15153962D01*
X50184151Y-15135834D01*
X49678045Y-14926198D01*
X49130241Y-14926198D01*
X48624135Y-15135834D01*
X48236779Y-15523190D01*
X48027143Y-16029296D01*
X48027143Y-16577100D01*
X48089175Y-16726859D01*
X47872883Y-16637268D01*
X47325079Y-16637268D01*
X46818973Y-16846904D01*
X46431617Y-17234260D01*
X46221981Y-17740366D01*
X46221981Y-18173000D01*
X29707264Y-18173000D01*
X29803484Y-18076780D01*
X29937000Y-17754446D01*
X29937000Y-17405554D01*
X29803484Y-17083220D01*
X29556780Y-16836516D01*
X29234446Y-16703000D01*
X28885554Y-16703000D01*
X28563220Y-16836516D01*
X28421736Y-16978000D01*
X25228264Y-16978000D01*
X25146780Y-16896516D01*
X24824446Y-16763000D01*
X24475554Y-16763000D01*
X24153220Y-16896516D01*
X23906516Y-17143220D01*
X23773000Y-17465554D01*
X23773000Y-17814446D01*
X23906516Y-18136780D01*
X23942736Y-18173000D01*
X22909751Y-18173000D01*
X23041529Y-18015953D01*
X23132802Y-17849584D01*
X23153461Y-17660949D01*
X23100360Y-17478768D01*
X22981584Y-17330776D01*
X21602704Y-16173758D01*
X21436335Y-16082485D01*
X21247700Y-16061826D01*
X21065519Y-16114927D01*
X20956708Y-16202257D01*
X20956708Y-15883565D01*
X20747072Y-15377459D01*
X20359716Y-14990103D01*
X19853610Y-14780467D01*
X19305806Y-14780467D01*
X18799700Y-14990103D01*
X18761186Y-15028617D01*
X18759579Y-15023105D01*
X18709132Y-14926198D01*
X18655625Y-14823410D01*
X18521303Y-14656047D01*
X18521300Y-14656044D01*
X18436988Y-14585298D01*
X18348840Y-14511333D01*
X18348839Y-14511333D01*
X18348838Y-14511332D01*
X18338695Y-14505767D01*
X31673131Y-14505767D01*
X31773131Y-16705767D01*
X31791903Y-16766664D01*
X31825643Y-16802956D01*
X33625643Y-18102956D01*
X33656542Y-18119333D01*
X33705517Y-18126880D01*
X36005517Y-18026880D01*
X36069153Y-18006521D01*
X36104653Y-17971949D01*
X37204653Y-16371949D01*
X37217333Y-16348601D01*
X37227000Y-16300000D01*
X37227000Y-14100000D01*
X37209880Y-14036318D01*
X37177146Y-13999117D01*
X35477146Y-12699117D01*
X35448601Y-12682667D01*
X35400000Y-12673000D01*
X33500000Y-12673000D01*
X33451399Y-12682667D01*
X33410197Y-12710197D01*
X31710197Y-14410197D01*
X31680581Y-14456777D01*
X31673131Y-14505767D01*
X18338695Y-14505767D01*
X18160694Y-14408112D01*
X17945980Y-14340413D01*
X17906646Y-14336105D01*
X14617019Y-11575782D01*
X14605946Y-11537793D01*
X14555078Y-11440077D01*
X14501992Y-11338098D01*
X14367670Y-11170735D01*
X14367667Y-11170732D01*
X14276627Y-11094341D01*
X14195207Y-11026021D01*
X14195206Y-11026021D01*
X14195205Y-11026020D01*
X14007061Y-10922800D01*
X13792347Y-10855101D01*
X13579023Y-10831738D01*
X13579022Y-10831738D01*
X13354745Y-10851359D01*
X13148719Y-10911410D01*
X13066235Y-10954349D01*
X12949024Y-11015364D01*
X12781661Y-11149686D01*
X12781660Y-11149688D01*
X12781659Y-11149688D01*
X12754616Y-11181917D01*
X12636947Y-11322149D01*
X12636947Y-11322150D01*
X12636946Y-11322151D01*
X12533726Y-11510295D01*
X12466027Y-11725009D01*
X12461719Y-11764344D01*
X12401103Y-11836583D01*
X12363114Y-11847656D01*
X12297077Y-11882033D01*
X12163417Y-11951611D01*
X11996054Y-12085935D01*
X11996053Y-12085936D01*
X11851340Y-12258399D01*
X11748120Y-12446544D01*
X11735237Y-12487405D01*
X11680422Y-12661257D01*
X11657059Y-12874581D01*
X11657059Y-12874582D01*
X11676680Y-13098859D01*
X11736731Y-13304885D01*
X11797154Y-13420955D01*
X11840687Y-13504582D01*
X11975010Y-13671945D01*
X12040781Y-13727133D01*
X12147473Y-13816659D01*
X12335619Y-13919879D01*
X12447393Y-13955120D01*
X12550332Y-13987577D01*
X12589669Y-13991885D01*
X15879292Y-16752208D01*
X15890365Y-16790196D01*
X15955148Y-16914642D01*
X15994321Y-16989893D01*
X16128644Y-17157256D01*
X16128645Y-17157257D01*
X16301108Y-17301970D01*
X16489253Y-17405189D01*
X16525372Y-17416577D01*
X16703965Y-17472887D01*
X16717072Y-17474322D01*
X16570028Y-17829318D01*
X16570028Y-18377122D01*
X16779664Y-18883228D01*
X17167020Y-19270584D01*
X17345029Y-19344318D01*
X17345028Y-36137745D01*
X17335749Y-36184393D01*
X16102000Y-34950644D01*
X16102000Y-25959283D01*
X16113792Y-25900000D01*
X16102000Y-25840717D01*
X16102000Y-25840712D01*
X16067071Y-25665112D01*
X16030014Y-25609652D01*
X15967601Y-25516244D01*
X15967599Y-25516242D01*
X15934017Y-25465983D01*
X15883758Y-25432401D01*
X14319939Y-23868583D01*
X14286355Y-23818321D01*
X14087226Y-23685267D01*
X13911626Y-23650338D01*
X13911621Y-23650338D01*
X13852338Y-23638546D01*
X13793055Y-23650338D01*
X7195045Y-23650338D01*
X7121312Y-23472330D01*
X6733956Y-23084974D01*
X6227850Y-22875338D01*
X6134053Y-22875338D01*
X6138519Y-22861173D01*
X6200033Y-22666075D01*
X6223395Y-22452752D01*
X6211447Y-22316191D01*
X6203773Y-22228476D01*
X6143722Y-22022450D01*
X6100772Y-21939944D01*
X6039767Y-21822753D01*
X6014999Y-21791893D01*
X5640726Y-17513934D01*
X5659758Y-17479243D01*
X5727457Y-17264529D01*
X5750820Y-17051206D01*
X5750368Y-17046033D01*
X5731199Y-16826928D01*
X5671148Y-16620902D01*
X5622506Y-16527462D01*
X5567193Y-16421205D01*
X5432869Y-16253842D01*
X5260406Y-16109129D01*
X5072262Y-16005909D01*
X4906112Y-15953522D01*
X4857549Y-15938210D01*
X4644225Y-15914847D01*
X4644224Y-15914847D01*
X4419947Y-15934468D01*
X4213921Y-15994519D01*
X4147116Y-16029296D01*
X4014224Y-16098474D01*
X3983365Y-16123241D01*
X3889421Y-16131460D01*
X3854730Y-16112428D01*
X3810467Y-16098472D01*
X3640013Y-16044728D01*
X3426689Y-16021366D01*
X3294929Y-16032894D01*
X3208377Y-16040466D01*
X11621844Y-7627000D01*
X17473475Y-7627000D01*
X17550000Y-7642222D01*
X17626525Y-7627000D01*
X17626526Y-7627000D01*
X17853170Y-7581918D01*
X18110186Y-7410186D01*
X18153538Y-7345305D01*
X21921844Y-3577000D01*
X27723475Y-3577000D01*
X27800000Y-3592222D01*
X27876525Y-3577000D01*
X27876526Y-3577000D01*
X28103170Y-3531918D01*
X28360186Y-3360186D01*
X28403538Y-3295305D01*
X28973000Y-2725843D01*
X28973000Y-3024446D01*
X29061219Y-3237424D01*
X27325644Y-4973000D01*
X27125554Y-4973000D01*
X26803220Y-5106516D01*
X26556516Y-5353220D01*
X26423000Y-5675554D01*
X26423000Y-6024446D01*
X26556516Y-6346780D01*
X26803220Y-6593484D01*
X27125554Y-6727000D01*
X27474446Y-6727000D01*
X27796780Y-6593484D01*
X28043484Y-6346780D01*
X28177000Y-6024446D01*
X28177000Y-5824356D01*
X30233758Y-3767599D01*
X30284017Y-3734017D01*
X30317599Y-3683758D01*
X30317601Y-3683756D01*
X30406917Y-3550084D01*
X30417071Y-3534888D01*
X30419975Y-3520289D01*
X30593484Y-3346780D01*
X30727000Y-3024446D01*
X30727000Y-2675554D01*
X30593484Y-2353220D01*
X30467264Y-2227000D01*
X38878157Y-2227000D01*
X44196464Y-7545308D01*
G36*
X14898000Y-26149357D02*
X14898001Y-34240886D01*
X14892000Y-34210717D01*
X14892000Y-34210712D01*
X14857071Y-34035112D01*
X14821983Y-33982599D01*
X14757601Y-33886244D01*
X14757599Y-33886242D01*
X14724017Y-33835983D01*
X14673758Y-33802401D01*
X12457000Y-31585644D01*
X12457000Y-31385554D01*
X12323484Y-31063220D01*
X12076780Y-30816516D01*
X11754446Y-30683000D01*
X11405554Y-30683000D01*
X11083220Y-30816516D01*
X10836516Y-31063220D01*
X10703000Y-31385554D01*
X10703000Y-31734446D01*
X10836516Y-32056780D01*
X11083220Y-32303484D01*
X11405554Y-32437000D01*
X11605644Y-32437000D01*
X13688001Y-34519358D01*
X13688000Y-35610717D01*
X13676208Y-35670000D01*
X13688000Y-35729283D01*
X13688000Y-35729287D01*
X13722929Y-35904887D01*
X13855983Y-36104017D01*
X13906245Y-36137601D01*
X17391643Y-39623000D01*
X13227000Y-39623000D01*
X13227000Y-35064027D01*
X13238304Y-35007199D01*
X13227000Y-34950371D01*
X13193522Y-34782066D01*
X13065994Y-34591206D01*
X13017815Y-34559014D01*
X9976394Y-31517594D01*
X9944200Y-31469412D01*
X9753340Y-31341884D01*
X9585035Y-31308406D01*
X9585034Y-31308406D01*
X9528206Y-31297102D01*
X9471378Y-31308406D01*
X577000Y-31308406D01*
X577000Y-26841008D01*
X589814Y-26860186D01*
X654695Y-26903538D01*
X1177074Y-27425917D01*
X1220426Y-27490798D01*
X1477442Y-27662530D01*
X1704086Y-27707612D01*
X1780611Y-27722834D01*
X1857136Y-27707612D01*
X2312916Y-27707612D01*
X2333948Y-27948015D01*
X2387049Y-28130196D01*
X2505825Y-28278188D01*
X2672194Y-28369461D01*
X2860829Y-28390120D01*
X4653979Y-28233240D01*
X4836160Y-28180139D01*
X4984152Y-28061363D01*
X5075425Y-27894994D01*
X5096084Y-27706359D01*
X5084523Y-27574221D01*
X5386902Y-27876600D01*
X5893008Y-28086236D01*
X6440812Y-28086236D01*
X6946918Y-27876600D01*
X7334274Y-27489244D01*
X7543910Y-26983138D01*
X7543910Y-26435334D01*
X7334274Y-25929228D01*
X6946918Y-25541872D01*
X6692965Y-25436681D01*
X6733956Y-25419702D01*
X7121312Y-25032346D01*
X7195045Y-24854338D01*
X13602982Y-24854338D01*
X14898000Y-26149357D01*
X14898000Y-26149357D01*
G37*
X14898000Y-26149357D02*
X14898001Y-34240886D01*
X14892000Y-34210717D01*
X14892000Y-34210712D01*
X14857071Y-34035112D01*
X14821983Y-33982599D01*
X14757601Y-33886244D01*
X14757599Y-33886242D01*
X14724017Y-33835983D01*
X14673758Y-33802401D01*
X12457000Y-31585644D01*
X12457000Y-31385554D01*
X12323484Y-31063220D01*
X12076780Y-30816516D01*
X11754446Y-30683000D01*
X11405554Y-30683000D01*
X11083220Y-30816516D01*
X10836516Y-31063220D01*
X10703000Y-31385554D01*
X10703000Y-31734446D01*
X10836516Y-32056780D01*
X11083220Y-32303484D01*
X11405554Y-32437000D01*
X11605644Y-32437000D01*
X13688001Y-34519358D01*
X13688000Y-35610717D01*
X13676208Y-35670000D01*
X13688000Y-35729283D01*
X13688000Y-35729287D01*
X13722929Y-35904887D01*
X13855983Y-36104017D01*
X13906245Y-36137601D01*
X17391643Y-39623000D01*
X13227000Y-39623000D01*
X13227000Y-35064027D01*
X13238304Y-35007199D01*
X13227000Y-34950371D01*
X13193522Y-34782066D01*
X13065994Y-34591206D01*
X13017815Y-34559014D01*
X9976394Y-31517594D01*
X9944200Y-31469412D01*
X9753340Y-31341884D01*
X9585035Y-31308406D01*
X9585034Y-31308406D01*
X9528206Y-31297102D01*
X9471378Y-31308406D01*
X577000Y-31308406D01*
X577000Y-26841008D01*
X589814Y-26860186D01*
X654695Y-26903538D01*
X1177074Y-27425917D01*
X1220426Y-27490798D01*
X1477442Y-27662530D01*
X1704086Y-27707612D01*
X1780611Y-27722834D01*
X1857136Y-27707612D01*
X2312916Y-27707612D01*
X2333948Y-27948015D01*
X2387049Y-28130196D01*
X2505825Y-28278188D01*
X2672194Y-28369461D01*
X2860829Y-28390120D01*
X4653979Y-28233240D01*
X4836160Y-28180139D01*
X4984152Y-28061363D01*
X5075425Y-27894994D01*
X5096084Y-27706359D01*
X5084523Y-27574221D01*
X5386902Y-27876600D01*
X5893008Y-28086236D01*
X6440812Y-28086236D01*
X6946918Y-27876600D01*
X7334274Y-27489244D01*
X7543910Y-26983138D01*
X7543910Y-26435334D01*
X7334274Y-25929228D01*
X6946918Y-25541872D01*
X6692965Y-25436681D01*
X6733956Y-25419702D01*
X7121312Y-25032346D01*
X7195045Y-24854338D01*
X13602982Y-24854338D01*
X14898000Y-26149357D01*
G04 #@! TD*
M02*
