G04 #@! TF.GenerationSoftware,KiCad,Pcbnew,(5.0.0)*
G04 #@! TF.CreationDate,2019-01-08T13:39:35+09:00*
G04 #@! TF.ProjectId,novem,6E6F76656D2E6B696361645F70636200,rev?*
G04 #@! TF.SameCoordinates,PX3473bc0PY17d7840*
G04 #@! TF.FileFunction,Profile,NP*
%FSLAX46Y46*%
G04 Gerber Fmt 4.6, Leading zero omitted, Abs format (unit mm)*
G04 Created by KiCad (PCBNEW (5.0.0)) date 01/08/19 13:39:35*
%MOMM*%
%LPD*%
G01*
G04 APERTURE LIST*
%ADD10C,0.200000*%
G04 APERTURE END LIST*
D10*
X42000000Y-33000000D02*
G75*
G03X42000000Y-33000000I-7500000J0D01*
G01*
X54850000Y-69923926D02*
G75*
G03X54850000Y-69923926I-1000000J0D01*
G01*
X0Y-100007200D02*
X0Y-83090474D01*
X63949333Y-17389858D02*
G75*
G02X64791981Y-16682790I421324J353534D01*
G01*
X52615737Y-16422709D02*
X56173527Y-13437369D01*
X54887952Y-11905280D02*
X51330162Y-14890620D01*
X69000000Y-100007200D02*
X69000000Y-83090474D01*
X69000000Y-31885406D02*
X69000000Y-14308207D01*
X54887952Y-11905279D02*
G75*
G02X55983766Y-12001151I547907J-47936D01*
G01*
X51234291Y-15986434D02*
X51519923Y-16326838D01*
X64251616Y-22859197D02*
G75*
G02X63544550Y-22016549I-353533J421324D01*
G01*
X16150000Y-69923926D02*
G75*
G03X16150000Y-69923926I-1000000J0D01*
G01*
X65234656Y-16721520D02*
G75*
G02X65941722Y-17564168I353533J-421324D01*
G01*
X56269399Y-12341554D02*
X55983766Y-12001151D01*
X35500000Y-15507200D02*
G75*
G03X35500000Y-15507200I-1000000J0D01*
G01*
X0Y-31885406D02*
X0Y-14308207D01*
X52615737Y-16422708D02*
G75*
G02X51519923Y-16326838I-547907J47935D01*
G01*
X56269399Y-12341555D02*
G75*
G02X56173527Y-13437369I-47936J-547907D01*
G01*
X51234290Y-15986434D02*
G75*
G02X51330162Y-14890620I47936J547907D01*
G01*
X9528206Y-31885406D02*
X0Y-31885406D01*
X59471794Y-31885406D02*
X69000000Y-31885406D01*
X54850000Y-44923926D02*
G75*
G03X54850000Y-44923926I-1000000J0D01*
G01*
X13500000Y-98007200D02*
X15500000Y-100007200D01*
X8500000Y-98007200D02*
X6500000Y-100007200D01*
X65536939Y-22190860D02*
X65941722Y-17564168D01*
X5455450Y-22016548D02*
G75*
G02X4748384Y-22859198I-353533J-421325D01*
G01*
X3463061Y-22190860D02*
X3058278Y-17564168D01*
X4305711Y-22897926D02*
G75*
G02X3463061Y-22190860I-421325J353533D01*
G01*
X12826473Y-13437370D02*
G75*
G02X12730601Y-12341554I-47936J547908D01*
G01*
X17480077Y-16326837D02*
G75*
G02X16384263Y-16422709I-547907J-47936D01*
G01*
X13016234Y-12001150D02*
G75*
G02X14112048Y-11905280I547907J47935D01*
G01*
X17669839Y-14890620D02*
G75*
G02X17765709Y-15986434I47935J-547907D01*
G01*
X17765709Y-15986434D02*
X17480077Y-16326838D01*
X59350000Y-83090474D02*
X56350000Y-80090474D01*
X16384263Y-16422709D02*
X12826473Y-13437369D01*
X14112048Y-11905280D02*
X17669838Y-14890620D01*
X12730601Y-12341554D02*
X13016234Y-12001151D01*
X3058278Y-17564169D02*
G75*
G02X3765344Y-16721519I353533J421325D01*
G01*
X4208019Y-16682791D02*
G75*
G02X5050667Y-17389857I421324J-353533D01*
G01*
X4748384Y-22859198D02*
X4305710Y-22897927D01*
X5050667Y-17389857D02*
X5455450Y-22016549D01*
X9650000Y-83090474D02*
X12650000Y-80090474D01*
X3765344Y-16721519D02*
X4208019Y-16682790D01*
X16150000Y-44923926D02*
G75*
G03X16150000Y-44923926I-1000000J0D01*
G01*
X59471794Y-31885406D02*
X56350000Y-35007200D01*
X69000000Y-83090474D02*
X59350000Y-83090474D01*
X56350000Y-80090474D02*
X56350000Y-35007200D01*
X65536938Y-22190859D02*
G75*
G02X64694290Y-22897927I-421324J-353534D01*
G01*
X64251616Y-22859198D02*
X64694290Y-22897927D01*
X65234656Y-16721519D02*
X64791981Y-16682790D01*
X63949333Y-17389857D02*
X63544550Y-22016549D01*
X8500000Y-98007200D02*
X13500000Y-98007200D01*
X0Y-83090474D02*
X9650000Y-83090474D01*
X9528206Y-31885406D02*
X12650000Y-35007200D01*
X12650000Y-80090474D02*
X12650000Y-35007200D01*
X34500000Y-100007200D02*
X69000000Y-100007200D01*
X6500000Y-100007200D02*
X0Y-100007200D01*
X34500000Y-100007200D02*
X15500000Y-100007200D01*
X-23860Y-14332109D02*
G75*
G02X69000000Y-14308207I34523860J-34439797D01*
G01*
M02*
