M48
;DRILL file {KiCad (5.0.0)} date 01/08/19 13:39:39
;FORMAT={-:-/ absolute / metric / decimal}
FMAT,2
METRIC,TZ
T1C0.400
T2C0.500
T3C0.900
T4C1.000
%
G90
G05
M71
T1
X1.15Y-84.15
X1.85Y-93.8
X2.4Y-29.1
X2.4Y-91.55
X4.6Y-15.4
X4.6Y-87.725
X5.3Y-84.05
X5.6Y-91.5
X5.65Y-99.1
X6.4Y-19.2
X7.65Y-29.1
X7.75Y-25.4
X7.8Y-22.9
X8.95Y-17.15
X9.2Y-84.2
X9.53Y-14.3
X9.6Y-91.5
X9.6Y-95.25
X10.4Y-87.6
X11.5Y-25.5
X11.58Y-31.56
X11.7Y-88.25
X11.85Y-18.47
X12.05Y-33.05
X12.5Y-92.9
X12.8Y-30.45
X12.85Y-28.15
X12.85Y-83.55
X13.65Y-15.65
X13.8Y-39.
X13.95Y-10.
X14.1Y-90.9
X14.15Y-82.55
X14.45Y-94.3
X15.05Y-87.95
X15.35Y-86.45
X15.75Y-18.1
X15.95Y-77.63
X16.Y-24.45
X16.32Y-8.62
X16.65Y-39.1
X17.75Y-77.15
X17.9Y-87.05
X18.2Y-10.03
X18.55Y-85.3
X18.914Y-40.532
X19.28Y-27.38
X19.39Y-69.31
X19.422Y-64.408
X19.65Y-22.1
X20.3Y-90.65
X20.5Y-72.9
X20.65Y-32.05
X20.85Y-10.8
X20.9Y-8.45
X20.9Y-13.95
X21.2Y-37.55
X21.29Y-62.38
X21.4Y-91.5
X21.41Y-64.3
X21.65Y-27.5
X21.708Y-23.768
X22.1Y-20.05
X22.15Y-68.25
X22.22Y-70.35
X22.3Y-98.8
X22.7Y-88.4
X23.3Y-84.75
X23.36Y-70.46
X23.4Y-80.8
X23.45Y-54.5
X23.486Y-23.768
X23.486Y-59.074
X23.6Y-37.7
X23.65Y-88.4
X24.Y-76.05
X24.2Y-30.5
X24.2Y-34.95
X24.44Y-20.68
X24.6Y-43.9
X24.65Y-17.64
X24.8Y-46.75
X24.95Y-79.55
X25.05Y-88.35
X25.2Y-37.75
X25.264Y-59.074
X25.3Y-54.65
X25.5Y-85.65
X25.55Y-26.65
X26.15Y-88.35
X26.4Y-7.25
X26.4Y-79.7
X26.55Y-9.
X26.55Y-83.1
X26.75Y-71.85
X26.75Y-74.65
X27.05Y-55.1
X27.1Y-52.45
X27.1Y-58.55
X27.25Y-43.65
X27.3Y-5.85
X27.3Y-47.75
X27.3Y-90.45
X27.35Y-39.75
X27.85Y-16.25
X27.95Y-24.1
X28.05Y-20.212
X28.41Y-69.25
X28.68Y-13.36
X28.75Y-81.7
X28.82Y-55.9
X29.06Y-17.58
X29.1Y-83.25
X29.15Y-9.95
X29.25Y-5.65
X29.4Y-47.8
X29.52Y-67.25
X29.85Y-2.85
X30.15Y-49.35
X30.2Y-23.1
X30.3Y-50.85
X30.344Y-20.212
X30.9Y-17.6
X30.9Y-57.5
X31.Y-46.65
X31.1Y-43.4
X31.4Y-82.75
X31.55Y-13.35
X31.9Y-58.
X32.1Y-81.9
X32.212Y-48.152
X32.6Y-41.85
X32.75Y-90.4
X32.9Y-88.35
X33.2Y-46.8
X33.35Y-44.3
X33.95Y-88.35
X34.2Y-57.3
X34.55Y-12.1
X34.55Y-98.75
X34.95Y-48.4
X35.15Y-85.
X35.2Y-88.4
X35.6Y-61.2
X35.88Y-62.59
X35.9Y-20.05
X35.9Y-23.15
X36.15Y-88.4
X36.25Y-64.15
X36.35Y-76.1
X36.9Y-12.1
X36.9Y-41.6
X36.95Y-46.85
X37.Y-44.35
X37.05Y-83.
X37.1Y-56.6
X37.1Y-59.9
X37.15Y-49.45
X37.25Y-62.35
X37.45Y-17.75
X38.1Y-83.
X38.2Y-75.65
X39.Y-42.6
X39.Y-53.2
X39.Y-73.35
X39.31Y-47.39
X39.4Y-85.75
X39.95Y-52.
X40.Y-74.25
X40.25Y-60.75
X40.25Y-83.
X40.4Y-46.25
X40.4Y-57.25
X40.55Y-44.3
X40.9Y-5.5
X40.95Y-80.4
X41.Y-72.8
X41.05Y-8.05
X41.05Y-83.8
X41.05Y-87.45
X41.45Y-40.25
X41.66Y-68.99
X41.7Y-52.9
X41.8Y-64.4
X41.8Y-77.5
X41.85Y-23.05
X41.9Y-90.5
X41.95Y-20.05
X42.05Y-2.65
X42.05Y-27.7
X42.4Y-66.85
X42.4Y-74.
X42.4Y-87.45
X42.5Y-17.75
X42.525Y-12.1
X42.6Y-85.75
X42.65Y-58.9
X42.7Y-61.9
X42.75Y-55.81
X42.99Y-67.96
X43.55Y-21.8
X43.7Y-82.3
X43.8Y-41.35
X44.05Y-27.5
X44.4Y-2.95
X45.25Y-75.65
X45.3Y-72.75
X45.35Y-21.3
X46.3Y-28.85
X46.35Y-39.5
X46.4Y-31.25
X46.8Y-98.8
X46.95Y-20.25
X47.05Y-26.05
X47.05Y-35.8
X47.15Y-88.35
X47.6Y-5.55
X47.616Y-57.55
X48.Y-14.35
X48.05Y-12.1
X48.1Y-71.8
X48.14Y-43.96
X48.14Y-43.96
X48.15Y-45.05
X48.25Y-88.3
X48.378Y-54.756
X48.4Y-84.8
X48.45Y-85.85
X48.45Y-95.
X48.45Y-96.15
X49.5Y-24.15
X49.648Y-43.326
X49.7Y-5.55
X49.9Y-28.45
X50.05Y-21.9
X50.1Y-94.35
X50.45Y-54.756
X50.45Y-59.35
X50.45Y-64.1
X50.45Y-68.8
X50.75Y-41.5
X50.8Y-46.25
X50.85Y-75.7
X50.95Y-13.65
X51.85Y-8.3
X51.85Y-35.05
X51.9Y-39.05
X52.8Y-23.8
X52.85Y-21.65
X52.95Y-17.85
X53.5Y-31.8
X54.7Y-87.05
X54.7Y-88.15
X55.15Y-9.73
X55.25Y-16.
X55.25Y-39.1
X55.35Y-35.15
X55.35Y-75.65
X55.35Y-98.8
X55.45Y-81.3
X55.5Y-28.4
X56.15Y-94.4
X56.3Y-18.65
X56.5Y-86.5
X56.75Y-92.95
X57.15Y-95.65
X57.25Y-94.4
X57.4Y-82.6
X57.75Y-31.85
X58.1Y-28.4
X58.45Y-13.3
X58.5Y-25.25
X58.52Y-20.5
X58.9Y-92.8
X60.15Y-98.8
X60.7Y-28.4
X60.95Y-14.8
X61.45Y-25.25
X61.8Y-92.6
X62.2Y-21.9
X62.5Y-90.85
X62.7Y-18.85
X62.7Y-86.8
X64.2Y-98.8
X64.3Y-87.05
X64.45Y-15.25
X65.25Y-90.8
X66.5Y-22.6
X67.85Y-89.95
X67.9Y-84.05
X67.9Y-98.75
X67.95Y-92.4
T2
X1.9Y-95.3
X1.9Y-96.3
X2.9Y-95.3
X2.9Y-96.3
X3.9Y-95.3
X3.9Y-96.3
T3
X62.933Y-26.809
X65.463Y-27.031
X3.637Y-26.931
X6.167Y-26.709
X63.125Y-24.291
X65.655Y-24.513
X17.947Y-18.103
X19.58Y-16.157
X3.424Y-24.474
X5.954Y-24.252
X49.404Y-16.303
X51.037Y-18.249
X47.599Y-18.014
X49.232Y-19.96
X9.012Y-96.924
X12.06Y-96.924
X19.768Y-19.76
X21.401Y-17.814
T4
X25.Y-94.46
X25.Y-97.
X27.54Y-94.46
X27.54Y-97.
X30.08Y-94.46
X30.08Y-97.
X39.Y-94.46
X39.Y-97.
X41.54Y-94.46
X41.54Y-97.
X44.08Y-94.46
X44.08Y-97.
X66.5Y-85.46
X66.5Y-88.
X51.6Y-96.8
X54.14Y-96.8
T0
M30
